<?xml version="1.0" standalone="no"?>
<!DOCTYPE svg PUBLIC "-//W3C//DTD SVG 1.1//EN" "http://www.w3.org/Graphics/SVG/1.1/DTD/svg11.dtd" >
<svg xmlns="http://www.w3.org/2000/svg">
<metadata>
This is a custom SVG webfont generated by Font Squirrel.
Copyright   : 1970 AlbertJan Pool published by Fontshop International for the FontFont library
</metadata>
<defs>
<font id="webfont61DCXFYE" horiz-adv-x="1257" >
<font-face units-per-em="2048" ascent="1556" descent="-492" />
<missing-glyph horiz-adv-x="378" />
<glyph unicode=" "  horiz-adv-x="378" />
<glyph unicode="&#x09;" horiz-adv-x="378" />
<glyph unicode="&#xa0;" horiz-adv-x="378" />
<glyph unicode="!" horiz-adv-x="608" d="M201 104q0 47 30.5 79t73.5 32t73 -31.5t30 -79.5q0 -47 -30 -78.5t-73 -31.5t-73.5 31.5t-30.5 78.5zM217 1458h176l-24 -1055h-127z" />
<glyph unicode="&#x22;" horiz-adv-x="813" d="M154 1110v348h174v-348h-174zM485 1110v348h174v-348h-174z" />
<glyph unicode="#" horiz-adv-x="1255" d="M90 459v147h203l43 268h-184v152h204l70 434h170l-72 -434h301l70 434h166l-70 -434h174v-152h-194l-43 -268h178v-147h-201l-74 -459h-167l73 459h-305l-70 -459h-167l73 459h-178zM459 606h301l43 268h-301z" />
<glyph unicode="$" horiz-adv-x="1146" d="M35 184l117 119q82 -84 160.5 -118.5t176.5 -41.5v521l-32 4q-84 8 -154 39.5t-113 70.5q-113 98 -112 277q0 174 107.5 285.5t295.5 127.5v183h140v-181q115 -8 202.5 -48t175.5 -117l-112 -113q-59 53 -123 85t-150 40v-508q88 -14 168 -32.5t152 -80.5 q59 -53 92 -126.5t33 -166.5q0 -90 -32 -162.5t-89 -126t-138 -85t-179 -39.5v-223h-140v219q-139 8 -243.5 54t-202.5 144zM246 1061q0 -109 61 -158q39 -33 87 -50t95 -26v490q-117 -12 -180 -81t-63 -175zM614 145q129 10 202 77t73 177q0 113 -68 174q-47 41 -97 52.5 t-110 19.5v-500z" />
<glyph unicode="%" horiz-adv-x="1605" d="M82 977v213q0 63 21.5 115.5t59.5 89.5t89 57.5t113 20.5q59 0 110 -20.5t89 -57.5t59.5 -89.5t21.5 -115.5v-213q0 -129 -80 -204t-200 -75q-61 0 -112.5 19.5t-89.5 56.5t-59.5 88.5t-21.5 114.5zM215 981q0 -164 150 -164q78 0 112.5 43t34.5 121v205q0 78 -35 123 t-112 45q-78 0 -114 -44t-36 -124v-205zM389 0l684 1458h144l-685 -1458h-143zM961 268v213q0 63 21.5 115.5t58 89.5t88 56.5t112.5 19.5q59 0 111.5 -19.5t90.5 -56.5t59.5 -89t21.5 -116v-213q0 -66 -21.5 -118t-59.5 -88.5t-90.5 -56t-111.5 -19.5q-61 0 -112.5 19.5 t-88 56t-58 88.5t-21.5 118zM1094 272q0 -80 34.5 -124t112.5 -44t114 45.5t36 122.5v205q0 78 -36 122t-114 44t-112.5 -43t-34.5 -123v-205z" />
<glyph unicode="&#x26;" horiz-adv-x="1423" d="M123 416q0 82 26.5 145.5t69.5 113.5t98.5 92t112.5 81q-57 68 -104 142.5t-47 168.5q0 68 24.5 124t67.5 98t102 65.5t131 23.5q70 0 128.5 -23.5t101.5 -65.5t67.5 -99t24.5 -125q0 -90 -47.5 -153.5t-116.5 -110.5l-98 -66l352 -426q39 61 55 131t19 193h163 q-2 -141 -31.5 -253t-99.5 -198l228 -274h-215l-127 154q-25 -23 -62 -50.5t-89 -54t-119.5 -44t-151.5 -17.5q-106 0 -191.5 30.5t-146 87t-93 135.5t-32.5 175zM291 420q0 -125 81 -202t212 -77q78 0 156.5 27t168.5 104l-383 465q-43 -29 -85 -60.5t-75.5 -68.5t-54 -83 t-20.5 -105zM449 1161q0 -47 26.5 -93t93.5 -130l45 31l25 16q51 35 88 74t37 98q0 70 -45 117t-115 47q-72 0 -113.5 -45t-41.5 -115z" />
<glyph unicode="'" horiz-adv-x="489" d="M164 1110v348h162v-348h-162z" />
<glyph unicode="(" horiz-adv-x="573" d="M180 201v1056q0 49 5 89t16.5 76t31 70t50.5 69q16 20 36.5 42.5t49.5 51.5l106 -113l-58.5 -63.5t-49.5 -71.5q-14 -29 -22.5 -71t-8.5 -91v-1032q0 -68 15.5 -122t58.5 -105q12 -16 27 -32l38 -38l-106 -113l-80 86q-39 43 -68 97q-27 53 -34 107.5t-7 107.5z" />
<glyph unicode=")" horiz-adv-x="575" d="M98 -80l63 67q26 28 42 57.5t24.5 68.5t8.5 100v1032q0 61 -8.5 100t-25 69t-41.5 57l-63 67l111 117l80 -86q39 -43 67 -96q27 -53 33 -107.5t6 -108.5v-1056q0 -53 -6 -107.5t-33 -107.5q-29 -53 -67 -97l-80 -86z" />
<glyph unicode="*" horiz-adv-x="913" d="M104 973l234 127l-234 129l68 110l225 -137l-8 266h135l-8 -266l227 137l66 -110l-234 -129l234 -127l-66 -113l-227 137l8 -266h-135l8 266l-225 -137z" />
<glyph unicode="+" horiz-adv-x="1003" d="M74 471v154h352v348h154v-348h350v-154h-350v-352h-154v352h-352z" />
<glyph unicode="," horiz-adv-x="446" d="M133 180h180v-315l-180 -170v485z" />
<glyph unicode="-" horiz-adv-x="819" d="M129 483v138h561v-138h-561z" />
<glyph unicode="." horiz-adv-x="524" d="M145 111q0 47 35 81.5t82 34.5t82 -34.5t35 -81.5t-35 -82t-82 -35t-82 35t-35 82z" />
<glyph unicode="/" horiz-adv-x="684" d="M-27 -152l576 1762h162l-576 -1762h-162z" />
<glyph unicode="0" horiz-adv-x="1052" d="M127 393v672q0 92 30.5 167t84 128t126 81.5t158.5 28.5t159 -28.5t126 -81.5t84 -128t31 -167v-672q0 -92 -31 -166.5t-84 -128t-126 -82t-159 -28.5t-158.5 28.5t-126 82t-84 128t-30.5 166.5zM289 401q0 -117 61.5 -191.5t175.5 -74.5q115 0 176.5 75t61.5 191v656 q0 117 -61.5 191.5t-176.5 74.5t-176 -74.5t-61 -191.5v-656z" />
<glyph unicode="1" horiz-adv-x="659" d="M45 1030v191l266 237h154v-1458h-160v1268z" />
<glyph unicode="2" horiz-adv-x="933" d="M59 0v141l566 725q41 53 59 101.5t18 105.5q0 115 -62 182.5t-177 67.5q-47 0 -91 -14.5t-77 -45t-52.5 -80.5t-19.5 -120h-162q0 90 29 165t81 129t126 83.5t166 29.5q90 0 163.5 -27.5t127 -79.5t82 -126t28.5 -164t-28.5 -154.5t-87.5 -142.5l-488 -629h604v-147h-805 z" />
<glyph unicode="3" horiz-adv-x="1021" d="M68 385h161q4 -68 28 -116t60.5 -78.5t82.5 -44t96 -13.5q113 0 189.5 70.5t76.5 199.5t-65.5 200t-207.5 71h-38v145h38q127 0 186.5 66.5t59.5 185.5q0 125 -69.5 189.5t-169.5 64.5q-111 0 -174.5 -63.5t-73.5 -178.5h-164q6 92 40 165t89 123t127 76t156 26 q88 0 162.5 -29t127 -81t82 -126t29.5 -164q0 -111 -44 -191.5t-134 -127.5q205 -90 205 -353q0 -102 -34 -179t-91.5 -130t-136 -79.5t-166.5 -26.5q-86 0 -162 23.5t-133.5 72.5t-93 124t-39.5 179z" />
<glyph unicode="4" horiz-adv-x="1005" d="M74 229v142l520 1087h174l-516 -1079h391v407h162v-407h174v-150h-174v-229h-162v229h-569z" />
<glyph unicode="5" horiz-adv-x="1003" d="M98 358h162q14 -111 68.5 -168t165.5 -57q106 0 170 64q53 53 64 131t11 155q0 66 -8 127.5t-33.5 109.5t-70.5 76.5t-119 28.5q-92 0 -149.5 -37.5t-79.5 -103.5h-146v774h737v-147h-589v-426q90 86 247 86q82 0 145.5 -24.5t106.5 -69.5q39 -41 63.5 -88.5t37 -98.5 t16.5 -103t4 -104q0 -109 -19.5 -208t-97.5 -179q-51 -53 -121.5 -81.5t-168.5 -28.5q-94 0 -170 28.5t-123 77.5t-72 114.5t-31 151.5z" />
<glyph unicode="6" horiz-adv-x="987" d="M90 412q0 78 22.5 156.5t67.5 170.5l355 719h167l-313 -639q61 23 131 23q86 0 155.5 -32t119 -87t77 -132t27.5 -167q0 -94 -28.5 -174t-81 -138.5t-127 -91t-166.5 -32.5t-168 30.5t-128.5 86t-81 133.5t-28.5 174zM252 418q0 -129 65.5 -206t176.5 -77t177 77t66 206 q0 57 -16 109.5t-47 90t-76 60t-104 22.5q-111 0 -176.5 -75.5t-65.5 -206.5z" />
<glyph unicode="7" horiz-adv-x="944" d="M86 1083v375h809v-139l-498 -1319h-172l496 1311h-475v-228h-160z" />
<glyph unicode="8" horiz-adv-x="1044" d="M92 406q0 125 58.5 210.5t146.5 139.5q-80 51 -128 130t-48 189q0 86 29.5 159t84 125t128 81.5t159.5 29.5t160 -29.5t128 -81.5t84 -125t30 -159q0 -111 -48.5 -189.5t-127.5 -129.5q88 -53 146 -139.5t58 -210.5q0 -92 -32.5 -169t-91 -132.5t-137.5 -86t-169 -30.5 t-169 30.5t-137 86t-91 132.5t-33 169zM254 408q0 -59 20.5 -108.5t56.5 -86.5t85 -57.5t106 -20.5t106.5 20.5t85.5 57.5t56.5 86t20.5 109q0 57 -20.5 107t-56.5 87t-85 57.5t-107 20.5q-57 0 -106 -20.5t-85 -57.5t-56.5 -87t-20.5 -107zM283 1073q0 -111 66.5 -179.5 t172.5 -68.5t173 69t67 179q0 111 -66.5 180.5t-173.5 69.5q-106 0 -172.5 -69.5t-66.5 -180.5z" />
<glyph unicode="9" horiz-adv-x="987" d="M88 1034q0 94 28.5 174t81 138.5t127 91t167.5 32.5q92 0 167.5 -30.5t128 -86t81 -134t28.5 -172.5q0 -78 -22.5 -157t-67.5 -171l-354 -719h-170l315 639q-63 -23 -133 -23q-86 0 -155.5 32t-119 87.5t-76 132t-26.5 166.5zM250 1040q0 -59 15.5 -110t46 -90 t75.5 -60.5t105 -21.5q111 0 177 75.5t66 206.5q0 129 -66.5 206t-176.5 77q-111 0 -176.5 -77t-65.5 -206z" />
<glyph unicode=":" horiz-adv-x="524" d="M145 117q0 51 35 87t82 36t82 -36t35 -87t-35 -87t-82 -36t-82 36t-35 87zM145 700q0 51 35 87t82 36t82 -35.5t35 -87.5q0 -51 -35 -86.5t-82 -35.5t-82 35.5t-35 86.5z" />
<glyph unicode=";" horiz-adv-x="524" d="M145 698q0 51 35 88t82 37t82 -36.5t35 -88.5q0 -51 -35 -87t-82 -36t-82 36t-35 87zM170 190h184v-321l-184 -174v495z" />
<glyph unicode="&#x37e;" horiz-adv-x="524" d="M145 698q0 51 35 88t82 37t82 -36.5t35 -88.5q0 -51 -35 -87t-82 -36t-82 36t-35 87zM170 190h184v-321l-184 -174v495z" />
<glyph unicode="&#x3c;" horiz-adv-x="1005" d="M152 479v144l677 346v-174l-487 -244l487 -244v-174z" />
<glyph unicode="=" horiz-adv-x="1003" d="M74 309v148h856v-148h-856zM74 643v150h856v-150h-856z" />
<glyph unicode="&#x3e;" horiz-adv-x="1005" d="M176 133v174l488 244l-488 244v174l678 -346v-144z" />
<glyph unicode="?" horiz-adv-x="956" d="M88 1081q0 82 28.5 154t81 124t122 81.5t153.5 29.5q80 0 150.5 -27.5t122 -77.5t81 -119.5t29.5 -151.5q0 -74 -25.5 -132.5t-66.5 -117.5l-164 -240q-16 -27 -25.5 -58.5t-9.5 -53.5v-89h-162v91q0 61 15.5 105t48.5 91l162 236q29 41 47 79.5t18 88.5q0 49 -16 91 t-46 72.5t-70 48t-89 17.5q-104 0 -163.5 -70.5t-59.5 -171.5h-162zM375 104q0 47 30.5 79t77.5 32t78 -31.5t31 -79.5q0 -47 -31 -78.5t-78 -31.5t-77.5 31.5t-30.5 78.5z" />
<glyph unicode="@" horiz-adv-x="1943" d="M104 342v354q0 178 49.5 320.5t144.5 244t233.5 155.5t316.5 54h252q178 0 316 -54t233.5 -155.5t144.5 -244t49 -320.5v-327q0 -74 -11 -140.5t-44 -119t-93.5 -83t-160.5 -30.5h-90q-80 0 -127 32.5t-70 77.5q-55 -72 -144 -97t-181 -25q-104 0 -171 21.5t-116 72.5 q-39 39 -58.5 93t-19.5 116q0 135 90 216t262 81h291v86q0 104 -55 157.5t-191 53.5q-94 0 -148 -27t-101 -92l-113 104q72 94 157 126t207 32q205 0 306.5 -87t101.5 -255v-428q0 -57 31.5 -88t72.5 -31h64q90 0 123 54.5t33 160.5v352q0 141 -37 257t-111 199t-185.5 128 t-260.5 45h-240q-150 0 -261.5 -45t-185 -128t-110.5 -198.5t-37 -257.5v-366q0 -141 37 -257t110.5 -199t185.5 -128t261 -45h387v-139h-393q-178 0 -316.5 54t-233.5 155.5t-144.5 244t-49.5 320.5zM717 289q0 -82 51 -122t168 -40q63 0 117.5 11.5t99.5 54.5 q47 47 47 165v99h-270q-111 0 -162 -43t-51 -125z" />
<glyph unicode="A" horiz-adv-x="1185" d="M-12 0l534 1458h144l532 -1458h-182l-115 326h-616l-115 -326h-182zM338 477h512l-254 725z" />
<glyph unicode="B" horiz-adv-x="1259" d="M168 0v1458h549q94 0 174 -26.5t136 -77.5t88 -124t32 -165q0 -111 -55.5 -194t-141.5 -121q98 -41 158.5 -128t60.5 -214q0 -100 -31.5 -176t-89 -127.5t-138.5 -78t-177 -26.5h-565zM338 156h383q129 0 203.5 69.5t74.5 186.5t-74.5 185.5t-203.5 68.5h-383v-510z M338 821h367q117 0 194.5 58.5t77.5 183.5t-78 182.5t-194 57.5h-367v-482z" />
<glyph unicode="C" horiz-adv-x="1206" d="M119 729q0 117 2 204t15.5 155.5t41 124t78.5 106.5q74 74 169 112.5t204 38.5q199 0 334 -114.5t174 -331.5h-176q-29 135 -115 213t-217 78q-70 0 -132.5 -25.5t-109.5 -72.5q-33 -35 -52.5 -72t-29.5 -92.5t-13 -133t-3 -190.5q0 -115 3 -191.5t13 -132t29.5 -93.5 t52.5 -70q47 -47 109.5 -73t132.5 -26q131 0 219 78t117 213h172q-18 -109 -63.5 -191.5t-112 -139t-150.5 -86t-182 -29.5q-109 0 -204 39t-169 112q-51 51 -78.5 106.5t-41 124t-15.5 155.5t-2 204z" />
<glyph unicode="D" horiz-adv-x="1298" d="M168 0v1458h500q115 0 209 -34.5t159 -100.5q57 -57 87 -127t42.5 -145.5t13.5 -153.5t1 -152q0 -76 -1 -158.5t-14 -162.5q-12 -82 -41.5 -156.5t-87.5 -132.5q-66 -66 -160 -100.5t-208 -34.5h-500zM338 156h303q82 0 152.5 22.5t124.5 79.5q39 39 57 101.5t26.5 131 t8.5 136.5v118q0 66 -1 131.5t-10 124.5q-8 59 -27.5 110.5t-53.5 88.5q-53 57 -124 80t-153 23h-303v-1147z" />
<glyph unicode="E" horiz-adv-x="1148" d="M168 0v1458h905v-155h-735v-490h627v-156h-627v-501h735v-156h-905z" />
<glyph unicode="F" horiz-adv-x="1087" d="M168 0v1458h905v-155h-735v-512h627v-156h-627v-635h-170z" />
<glyph unicode="G" horiz-adv-x="1251" d="M119 729q0 117 2 204t15.5 155.5t41 124t78.5 106.5q152 152 373 151q104 0 191 -32.5t152.5 -91t108.5 -141.5t60 -183h-172q-31 141 -120 217t-220 76q-70 0 -132.5 -26.5t-109.5 -74.5q-33 -35 -52.5 -71.5t-29.5 -91t-13 -132t-3 -190.5q0 -115 3 -191.5t13 -132 t29.5 -93.5t52.5 -70q47 -47 109.5 -73t132.5 -26q78 0 146.5 31t117.5 90q43 53 61.5 111.5t18.5 142.5v100h-352v154h522v-237q0 -127 -29 -216.5t-96 -162.5q-78 -84 -177.5 -126t-211.5 -42q-109 0 -204 39t-169 112q-51 51 -78.5 106.5t-41 124t-15.5 155.5t-2 204z " />
<glyph unicode="H" horiz-adv-x="1339" d="M168 0v1458h170v-645h663v645h170v-1458h-170v657h-663v-657h-170z" />
<glyph unicode="I" horiz-adv-x="503" d="M174 0v1458h156v-1458h-156z" />
<glyph unicode="J" horiz-adv-x="964" d="M18 127l115 115q43 -43 91 -71t134 -28q135 0 209 83t74 241v991h170v-1012q0 -106 -34 -191t-93 -144.5t-143 -91t-183 -31.5q-104 0 -186 32.5t-154 106.5z" />
<glyph unicode="K" d="M168 0v1458h172v-811l655 811h209l-459 -565l521 -893h-201l-434 760l-291 -352v-408h-172z" />
<glyph unicode="L" horiz-adv-x="1105" d="M176 0v1458h170v-1302h731v-156h-901z" />
<glyph unicode="M" horiz-adv-x="1585" d="M168 0v1458h168l463 -1007l450 1007h168v-1458h-172v1061l-379 -834h-141l-385 834v-1061h-172z" />
<glyph unicode="N" horiz-adv-x="1413" d="M168 0v1458h160l745 -1130v1130h172v-1458h-160l-745 1135v-1135h-172z" />
<glyph unicode="O" d="M119 729q0 117 2 204t15.5 155.5t41 124t78.5 106.5q152 152 373 151q221 0 372 -151q51 -51 79 -106.5t41.5 -124t15.5 -155.5t2 -204t-2 -204t-15.5 -155.5t-41 -124t-79.5 -106.5q-74 -74 -168 -112.5t-204 -38.5q-221 0 -373 151q-51 51 -78.5 106.5t-41 124 t-15.5 155.5t-2 204zM289 729q0 -115 3 -191.5t13 -131t29.5 -92.5t52.5 -70q47 -47 109.5 -74t132.5 -27t132 27t109 74q33 33 52.5 70.5t30 92t13.5 131t3 191.5q0 113 -3 190.5t-13.5 132t-30 91.5t-52.5 71q-47 47 -109.5 74t-131.5 27q-70 0 -132.5 -26.5t-109.5 -74.5 q-33 -35 -52.5 -71.5t-29.5 -91t-13 -132t-3 -190.5z" />
<glyph unicode="P" horiz-adv-x="1243" d="M172 0v1458h543q100 0 183 -30.5t142.5 -87t92 -136.5t32.5 -178t-32.5 -179t-92 -137.5t-142.5 -87t-183 -30.5h-373v-592h-170zM342 748h358q131 0 213 69.5t82 208.5t-82 208t-213 69h-358v-555z" />
<glyph unicode="Q" horiz-adv-x="1265" d="M119 729q0 117 2 204t15.5 155.5t41 124t78.5 106.5q152 152 373 151q221 0 372 -151q51 -51 79 -106.5t41.5 -124t15.5 -155.5t2 -204q0 -102 -1 -182t-10.5 -144.5t-29 -117t-54.5 -97.5l158 -157l-106 -107l-160 162q-133 -98 -307 -98q-221 0 -373 151 q-51 51 -78.5 106.5t-41 124t-15.5 155.5t-2 204zM291 729q0 -115 3 -191.5t12 -131t28.5 -92.5t52.5 -70q47 -47 109.5 -74t132.5 -27q106 0 190 60l-180 182l104 107l175 -175q16 31 26 68t15.5 85t7.5 111.5t2 147.5q0 113 -3 190.5t-13.5 132t-30 91.5t-52.5 71 q-47 47 -109.5 74t-131.5 27q-70 0 -132.5 -26.5t-109.5 -74.5q-33 -35 -52.5 -71.5t-28.5 -91t-12 -132t-3 -190.5z" />
<glyph unicode="R" horiz-adv-x="1253" d="M168 0v1458h559q94 0 174 -28.5t137.5 -81t89 -129t31.5 -170.5q0 -160 -85 -260.5t-222 -133.5l342 -655h-201l-325 639h-330v-639h-170zM338 793h375q123 0 199.5 62.5t76.5 191.5t-76.5 192.5t-199.5 63.5h-375v-510z" />
<glyph unicode="S" horiz-adv-x="1148" d="M72 186l116 119q45 -47 90.5 -77.5t92.5 -49t98 -27t111 -8.5q156 0 242.5 68t86.5 190q0 115 -65 174q-16 14 -32.5 24.5t-36 18t-47.5 12.5t-66 11l-168 27q-82 12 -152 40.5t-120 74.5t-78.5 113t-28.5 159q0 94 32.5 171t93 131t146.5 83.5t195 29.5 q139 0 240.5 -37.5t199.5 -127.5l-113 -113q-72 66 -146.5 96.5t-187.5 30.5q-141 0 -216.5 -70.5t-75.5 -187.5q0 -104 61 -160q33 -29 76 -45t90 -26.5t94 -16.5t86 -12q102 -16 160.5 -39t105.5 -64q123 -106 123 -292q0 -98 -36.5 -175t-102.5 -131.5t-159 -83 t-206 -28.5q-82 0 -150.5 11t-128.5 34.5t-115.5 61.5t-108.5 91z" />
<glyph unicode="T" horiz-adv-x="1073" d="M37 1303v155h999v-155h-413v-1303h-172v1303h-414z" />
<glyph unicode="U" horiz-adv-x="1316" d="M150 483v975h169v-962q0 -160 92.5 -256.5t245.5 -96.5q76 0 139.5 25t107.5 71t68.5 111.5t24.5 145.5v962h170v-975q0 -111 -37.5 -202t-106.5 -156.5t-162 -101t-204 -35.5t-204 35.5t-160.5 101t-105 156.5t-37.5 202z" />
<glyph unicode="V" horiz-adv-x="1110" d="M8 1458h180l367 -1145l367 1145h180l-477 -1458h-140z" />
<glyph unicode="W" horiz-adv-x="1716" d="M14 1458h183l274 -1132l311 1132h152l311 -1132l275 1132h182l-373 -1458h-158l-313 1128l-313 -1128h-158z" />
<glyph unicode="X" horiz-adv-x="1099" d="M10 0l445 748l-418 710h199l313 -559l313 559h199l-420 -710l449 -748h-197l-344 596l-344 -596h-195z" />
<glyph unicode="Y" horiz-adv-x="1007" d="M-12 1458h186l332 -678l328 678h186l-428 -856v-602h-172v602z" />
<glyph unicode="Z" horiz-adv-x="1030" d="M37 0v158l706 1145h-677v155h876v-141l-713 -1161h713v-156h-905z" />
<glyph unicode="[" horiz-adv-x="602" d="M174 -152v1762h363v-148h-205v-1466h205v-148h-363z" />
<glyph unicode="\" horiz-adv-x="684" d="M-25 1604h162l574 -1756h-162z" />
<glyph unicode="]" horiz-adv-x="602" d="M66 -8h210v1474h-210v144h362v-1762h-362v144z" />
<glyph unicode="^" horiz-adv-x="1034" d="M109 846l337 624h144l336 -624h-168l-240 444l-242 -444h-167z" />
<glyph unicode="_" horiz-adv-x="1034" d="M-33 -233h1100v-105h-1100v105z" />
<glyph unicode="`" horiz-adv-x="370" d="M0 1530h190l181 -313h-148z" />
<glyph unicode="a" horiz-adv-x="1011" d="M86 289q0 135 91 215t259 80h287v86q0 104 -55.5 155.5t-188.5 51.5q-94 0 -146 -26t-100 -91l-112 102q72 94 155.5 126t204.5 32q203 0 303.5 -87t100.5 -253v-680h-162v82q-57 -53 -119.5 -73.5t-157.5 -20.5q-104 0 -169.5 22.5t-114.5 71.5q-37 39 -56.5 93.5 t-19.5 113.5zM244 291q0 -80 50 -120t167 -40q63 0 116.5 10.5t98.5 53.5q23 23 35 62.5t12 100.5v99h-268q-111 0 -161 -42t-50 -124z" />
<glyph unicode="b" horiz-adv-x="1050" d="M145 0v1458h162v-545q59 68 126 90.5t145 22.5t141 -24.5t104 -65.5q39 -39 62.5 -89t37 -106.5t18.5 -117t5 -117.5q0 -59 -5 -118.5t-18.5 -115t-37 -105.5t-62.5 -89q-41 -41 -104.5 -65.5t-140.5 -24.5q-78 0 -144.5 22.5t-126.5 91.5v-102h-162zM307 506 q0 -74 8.5 -140.5t35 -117.5t72.5 -82t124 -31q76 0 123 31t72.5 82t33.5 117.5t8 140.5t-8 140.5t-33.5 118.5t-72.5 83t-123 31q-78 0 -124 -31t-72.5 -83t-35 -118.5t-8.5 -140.5z" />
<glyph unicode="c" horiz-adv-x="923" d="M94 504q0 129 34 225t93.5 160.5t140 97.5t177.5 33q51 0 95 -7t84 -25.5t79 -48.5t80 -75l-113 -106q-59 66 -108.5 90t-116.5 24q-141 0 -220 -108q-35 -47 -49 -107.5t-14 -152.5t14.5 -152.5t48.5 -107.5q78 -109 220 -109q68 0 118 25.5t109 91.5l111 -109 q-41 -45 -80 -74.5t-79 -48t-84 -25.5t-95 -7q-96 0 -177 32.5t-140.5 97t-93.5 161t-34 225.5z" />
<glyph unicode="d" horiz-adv-x="1050" d="M104 506q0 57 5.5 117.5t18.5 117t36.5 106.5t62.5 89q41 41 104.5 65.5t141.5 24.5t144.5 -22.5t125.5 -90.5v545h162v-1458h-160v102q-59 -70 -126.5 -92t-145.5 -22t-141.5 24.5t-104.5 65.5q-39 39 -62.5 89t-36.5 105.5t-18.5 115t-5.5 118.5zM266 506 q0 -74 8.5 -140.5t35 -117.5t72.5 -82t124 -31q76 0 123 31t72.5 82t33.5 117.5t8 140.5t-8 140.5t-33.5 118.5t-72.5 83t-123 31q-78 0 -124 -31t-72.5 -83t-35 -118.5t-8.5 -140.5z" />
<glyph unicode="e" horiz-adv-x="1013" d="M94 504q0 244 109.5 380t304.5 136q98 0 175 -35t130 -98.5t81 -153.5t28 -201v-75h-666q2 -158 74.5 -241t208.5 -83q84 0 140 25.5t118 89.5l110 -98q-41 -41 -80 -72t-83 -50.5t-95 -29.5t-114 -10q-100 0 -181.5 30.5t-138.5 94t-89 161t-32 230.5zM256 584h504 q-4 55 -9.5 83.5t-21.5 67.5q-29 66 -87 105t-134 39t-134.5 -39t-86.5 -105q-16 -39 -21.5 -67.5t-9.5 -83.5z" />
<glyph unicode="f" horiz-adv-x="604" d="M59 879v129h125v178q0 57 15.5 107t48.5 88t80 59.5t112 21.5h111v-143h-86q-121 0 -121 -137v-174h207v-129h-207v-879h-160v879h-125z" />
<glyph unicode="g" horiz-adv-x="1046" d="M104 510q0 123 24 232.5t99 187.5q41 41 104.5 65.5t141.5 24.5t143.5 -21.5t124.5 -91.5v101h160v-1035q0 -94 -28.5 -174t-82 -138t-132 -91t-177.5 -33q-57 0 -102 8.5t-85 25.5t-78 44t-81 66l107 104q29 -27 54.5 -46.5t51 -31.5t57 -18t72.5 -6q70 0 119 23.5 t81 63.5t47 94t15 116v131q-59 -68 -125.5 -91.5t-142.5 -23.5q-78 0 -140.5 25.5t-103.5 66.5q-76 78 -99.5 188.5t-23.5 233.5zM266 510q0 -70 8.5 -135.5t34 -116.5t71.5 -82t124 -31q76 0 123 31t71.5 81t32.5 115.5t8 137.5q0 70 -8 135.5t-32.5 116.5t-71.5 80.5 t-123 29.5q-78 0 -124 -30.5t-71.5 -80.5t-34 -115.5t-8.5 -135.5z" />
<glyph unicode="h" horiz-adv-x="1077" d="M145 0v1458h162v-540q106 109 268 108q172 0 267.5 -102.5t95.5 -276.5v-647h-162v625q0 129 -61.5 191.5t-169.5 62.5q-109 0 -173.5 -63.5t-64.5 -190.5v-625h-162z" />
<glyph unicode="i" horiz-adv-x="468" d="M133 1378q0 45 30 77t70 32q41 0 72 -32t31 -77t-31 -76.5t-72 -31.5t-70.5 31.5t-29.5 76.5zM158 0v1014h151v-1014h-151z" />
<glyph unicode="j" horiz-adv-x="475" d="M-49 -307h86q70 0 94.5 32.5t24.5 104.5v1182h159v-1188q0 -117 -61 -197t-193 -80h-110v146zM131 1378q0 45 31 77t74 32t74.5 -32t31.5 -77t-31.5 -76.5t-74.5 -31.5t-74 31.5t-31 76.5z" />
<glyph unicode="k" horiz-adv-x="1019" d="M145 0v1458h162v-948l432 504h205l-344 -391l399 -623h-200l-310 504l-182 -211v-293h-162z" />
<glyph unicode="l" horiz-adv-x="552" d="M145 274v1184h158v-1177q0 -72 25.5 -105t95.5 -33h84v-143h-111q-131 0 -191.5 78.5t-60.5 195.5z" />
<glyph unicode="m" horiz-adv-x="1726" d="M145 0v1008h164v-95q53 53 124 80t149 27q102 0 180 -40t125 -118q117 158 327 158q172 0 272.5 -102.5t100.5 -274.5v-643h-164v618q0 129 -63.5 191.5t-171.5 62.5q-106 0 -173 -61t-67 -176v-635h-164v618q0 129 -63.5 191.5t-171.5 62.5q-111 0 -175.5 -63.5 t-64.5 -190.5v-618h-164z" />
<glyph unicode="n" horiz-adv-x="1077" d="M145 0v1008h162v-95q53 53 122 80t146 27q172 0 267.5 -102.5t95.5 -274.5v-643h-162v618q0 129 -62.5 191.5t-170.5 62.5q-109 0 -172.5 -63.5t-63.5 -190.5v-618h-162z" />
<glyph unicode="o" horiz-adv-x="1032" d="M104 504q0 57 5.5 112.5t18.5 106.5t36.5 97t62.5 85q53 53 125 84t164 31t164 -31t125 -84q76 -78 99.5 -182.5t23.5 -218.5q0 -115 -23.5 -219.5t-99.5 -182.5q-53 -53 -125 -83.5t-164 -30.5t-163.5 30.5t-125.5 83.5q-39 39 -62.5 85t-36.5 97.5t-18.5 107 t-5.5 112.5zM266 504q0 -84 12.5 -165t65.5 -134q70 -70 172 -70q104 0 174 70q53 53 64.5 134t11.5 165t-11.5 165t-64.5 134q-70 70 -174 69q-102 0 -172 -69q-53 -53 -65.5 -134t-12.5 -165z" />
<glyph unicode="p" horiz-adv-x="1050" d="M145 -451v1459h162v-101q59 70 126 91.5t145 21.5t141 -24.5t104 -65.5q39 -39 62.5 -89t37 -105.5t18.5 -116t5 -117.5q0 -59 -5 -118.5t-18.5 -116t-37 -106.5t-62.5 -89q-41 -41 -104.5 -65.5t-140.5 -24.5q-78 0 -144.5 23.5t-126.5 90.5v-547h-162zM307 502 q0 -74 8.5 -140.5t35 -119t72.5 -83t124 -30.5q76 0 123 30.5t72.5 83t33.5 119t8 140.5t-8 140.5t-33.5 117.5t-72.5 81.5t-123 30.5q-78 0 -124 -30.5t-72.5 -81.5t-35 -117.5t-8.5 -140.5z" />
<glyph unicode="q" horiz-adv-x="1050" d="M104 502q0 57 5.5 117.5t18.5 116t36.5 105.5t62.5 89q41 41 104.5 65.5t141.5 24.5t145.5 -21.5t126.5 -91.5v101h160v-1459h-162v547q-59 -68 -125.5 -91t-144.5 -23t-141.5 24.5t-104.5 65.5q-39 39 -62.5 89t-36.5 106.5t-18.5 116t-5.5 118.5zM266 502 q0 -74 8.5 -140.5t35 -119t72.5 -83t124 -30.5q76 0 123 30.5t72.5 83t33.5 119t8 140.5t-8 140.5t-33.5 117.5t-72.5 81.5t-123 30.5q-78 0 -124 -30.5t-72.5 -81.5t-35 -117.5t-8.5 -140.5z" />
<glyph unicode="r" horiz-adv-x="823" d="M145 0v1008h162v-103q45 53 117 84t149 31q72 0 130.5 -21.5t117.5 -80.5l-119 -121q-45 45 -79.5 60t-90.5 15q-104 0 -164.5 -72.5t-60.5 -183.5v-616h-162z" />
<glyph unicode="s" horiz-adv-x="954" d="M51 139l109 111q61 -66 138 -92.5t169 -26.5q123 0 188.5 42t65.5 124q0 59 -36 93t-120 42l-153 13q-82 7 -152 34t-115 82t-45 160q0 70 28 126t78 94t117.5 58.5t147.5 20.5q106 0 200.5 -27.5t168.5 -87.5l-109 -108q-55 43 -120.5 62.5t-141.5 19.5 q-106 0 -158.5 -41t-52.5 -113q0 -59 36 -93t128 -42l155 -13q81 -7 147.5 -34t110.5 -83.5t44 -160.5q0 -74 -31 -132t-85 -98t-129 -60.5t-165 -20.5q-127 0 -228.5 32.5t-189.5 118.5z" />
<glyph unicode="t" horiz-adv-x="638" d="M72 877v129h123v311h159v-311h207v-129h-207v-596q0 -66 30 -102t93 -36h84v-143h-108q-66 0 -114 21.5t-80 59.5t-48 88t-16 107v601h-123z" />
<glyph unicode="u" horiz-adv-x="1077" d="M139 367v641h162v-619q0 -129 61.5 -191.5t169.5 -62.5q109 0 173.5 63.5t64.5 190.5v619h162v-1008h-160v96q-53 -53 -122.5 -80.5t-147.5 -27.5q-162 0 -260 94q-53 53 -78 125t-25 160z" />
<glyph unicode="v" horiz-adv-x="866" d="M-6 1008h176l262 -777l264 777h176l-370 -1008h-140z" />
<glyph unicode="w" horiz-adv-x="1445" d="M0 1008h178l221 -772l254 772h140l256 -772l219 772h178l-320 -1008h-149l-254 750l-252 -750h-149z" />
<glyph unicode="x" horiz-adv-x="919" d="M33 0l342 514l-328 494h197l221 -359l217 359h197l-328 -494l342 -514h-197l-231 377l-236 -377h-196z" />
<glyph unicode="y" horiz-adv-x="872" d="M4 1008h176l264 -781l263 781h176l-455 -1248q-29 -78 -72 -120q-41 -41 -93 -56.5t-105 -15.5h-72v147h53q72 0 100.5 26t53.5 91l69 193z" />
<glyph unicode="z" horiz-adv-x="811" d="M47 0v137l539 723h-508v148h700v-136l-540 -725h540v-147h-731z" />
<glyph unicode="{" horiz-adv-x="681" d="M74 655v148h59q27 0 48.5 10t35.5 25q33 37 33 114v387q0 80 13 126t48 81t83 49.5t124 14.5h82v-148h-55q-53 0 -74.5 -6t-34.5 -18q-14 -14 -20 -42t-6 -83v-381q0 -84 -30 -129t-83 -74q53 -29 83 -74t30 -129v-381q0 -55 6 -82.5t20 -42.5q12 -12 34 -18t75 -6h55 v-148h-82q-76 0 -124 14.5t-83 49.5t-48 81t-13 126v387q0 78 -33 115q-14 14 -35.5 24t-48.5 10h-59z" />
<glyph unicode="|" horiz-adv-x="626" d="M240 -152v1762h147v-1762h-147z" />
<glyph unicode="}" horiz-adv-x="681" d="M82 -4h57q53 0 73.5 6t33.5 18q14 14 21 42t7 83v381q0 84 30 129t83 74q-53 29 -83 74t-30 129v381q0 55 -7 82.5t-21 42.5q-12 12 -32.5 18t-74.5 6h-57v148h84q76 0 124 -14.5t83 -49.5t48 -81t13 -126v-387q0 -78 33 -114q14 -14 34.5 -24.5t47.5 -10.5h59v-148h-59 q-27 0 -47.5 -10t-34.5 -24q-33 -37 -33 -115v-387q0 -80 -13 -126t-48 -81t-83 -49.5t-124 -14.5h-84v148z" />
<glyph unicode="~" horiz-adv-x="1038" d="M63 543q45 43 80 69.5t66 42t61.5 21.5t65.5 6q53 0 105.5 -17.5t109.5 -41.5l74 -30.5t77 -14.5q20 0 37 2t35.5 11t42 26.5t53.5 48.5l105 -97q-45 -43 -80 -70.5t-65.5 -43t-61.5 -20.5t-66 -5q-53 0 -106 17.5t-111 41.5l-73.5 31t-77.5 15q-20 0 -37.5 -2.5 t-36 -11.5t-42 -26.5t-54.5 -48.5z" />
<glyph unicode="&#xa1;" horiz-adv-x="606" d="M201 903q0 47 29.5 79t72.5 32t73 -32t30 -79t-30 -78.5t-73 -31.5t-72.5 31.5t-29.5 78.5zM215 -451l25 1055h127l24 -1055h-176z" />
<glyph unicode="&#xa2;" horiz-adv-x="958" d="M115 750q0 219 98 351t264 161v196h135v-192q88 -8 156 -44t139 -116l-112 -105q-51 59 -94.5 84t-96.5 31v-733q53 6 96 30.5t95 84.5l112 -107q-72 -80 -139.5 -114.5t-155.5 -43.5v-233h-135v238q-166 29 -264 161t-98 351zM276 750q0 -94 15.5 -154.5t50.5 -108.5 q55 -78 143 -98v721q-88 -20 -143 -98q-35 -47 -50.5 -107.5t-15.5 -154.5z" />
<glyph unicode="&#xa3;" horiz-adv-x="1073" d="M59 668v127h127v217q0 106 34 191t94.5 144.5t144.5 91t184 31.5q104 0 186 -32.5t154 -106.5l-117 -114q-43 43 -90 70.5t-133 27.5q-135 0 -210 -83t-75 -241v-196h293v-127h-293v-512h621v-156h-793v668h-127z" />
<glyph unicode="&#xa4;" horiz-adv-x="1116" d="M70 547v125h159v125h-159v125h161q4 121 40 221t98.5 173t149.5 113.5t196 40.5q121 0 207 -39.5t159 -127.5l-127 -109q-49 63 -102 92t-137 29t-141.5 -34t-94.5 -89t-55 -126t-21 -144h433v-125h-437v-125h437v-125h-433q4 -197 81 -300.5t231 -103.5q86 0 148.5 29 t123.5 94l105 -112q-45 -47 -86 -79t-87.5 -51.5t-98.5 -27.5t-118 -8q-131 0 -220 48t-144 127t-80 179t-27 205h-161z" />
<glyph unicode="&#xa5;" horiz-adv-x="1032" d="M0 1458h186l332 -678l330 678h184l-315 -629h194v-127h-258l-49 -100v-94h307v-129h-307v-379h-174v379h-309v129h309v94l-49 100h-260v127h194z" />
<glyph unicode="&#xa6;" horiz-adv-x="638" d="M246 -152v727h147v-727h-147zM246 883v727h147v-727h-147z" />
<glyph unicode="&#xa7;" horiz-adv-x="1071" d="M143 516q0 61 16.5 112.5t44 92.5t63.5 72.5t75 54.5q-80 41 -127 105.5t-47 174.5q0 76 27.5 139.5t77 108.5t117 69.5t147.5 24.5t146.5 -22.5t115.5 -65.5t77.5 -105.5t32.5 -141.5h-161q-8 104 -62.5 146t-148.5 42q-98 0 -152.5 -49t-54.5 -144q0 -78 44 -120.5 t118 -65.5l155 -45q135 -39 208 -138t73 -241q0 -61 -16.5 -112.5t-44 -92.5t-62.5 -73.5t-74 -53.5q82 -35 132 -109.5t50 -182.5q0 -82 -29.5 -147.5t-79.5 -113t-119 -73t-148 -25.5q-76 0 -143.5 20.5t-121 63.5t-86 107.5t-36.5 152.5h163q10 -98 67.5 -145t156.5 -47 q98 0 155.5 53t57.5 152q0 68 -34 108.5t-83 66t-106 40.5l-103 26q-135 39 -208 139.5t-73 241.5zM307 518q0 -63 17.5 -106t46.5 -74q63 -70 166 -70q102 0 165 70q29 33 45.5 74t16.5 106q0 57 -13.5 100.5t-48.5 79.5q-70 70 -165 70q-102 0 -166 -70q-35 -37 -49.5 -78 t-14.5 -102z" />
<glyph unicode="&#xa8;" horiz-adv-x="618" d="M0 1321q0 39 28.5 66.5t69.5 27.5t70 -27.5t29 -66.5t-29 -65.5t-70 -26.5t-69.5 26.5t-28.5 65.5zM422 1321q0 39 28.5 66.5t69.5 27.5t69.5 -27.5t28.5 -66.5t-28.5 -65.5t-69.5 -26.5t-69.5 26.5t-28.5 65.5z" />
<glyph unicode="&#xa9;" horiz-adv-x="1695" d="M106 729q0 154 58.5 289t159 235.5t235.5 158.5t289 58t289 -58t235.5 -158.5t158.5 -235.5t58 -289t-58 -289t-158.5 -235.5t-236 -158.5t-288.5 -58q-154 0 -289 58t-235.5 158.5t-159 235.5t-58.5 289zM244 729q0 -127 47 -238.5t129 -195.5t192.5 -132t235.5 -48 t235.5 48t192.5 132t130 195.5t48 238.5t-48 238.5t-130 195.5t-192.5 132t-235.5 48t-235.5 -48t-192.5 -132t-129 -195.5t-47 -238.5zM489 729q0 90 24 167t70 134t115.5 89t159.5 32q88 0 148.5 -28.5t130.5 -88.5l-86 -86q-53 47 -96.5 65.5t-96.5 18.5 q-66 0 -112 -23.5t-73.5 -64.5t-39.5 -96t-12 -119q0 -63 12 -117.5t39.5 -95.5t74 -64.5t111.5 -23.5q53 0 96 17.5t97 64.5l86 -86q-66 -59 -128.5 -87t-150.5 -28q-90 0 -159.5 32t-115.5 88t-70 133t-24 167z" />
<glyph unicode="&#xaa;" horiz-adv-x="864" d="M115 883q0 109 72.5 173t205.5 64h219v64q0 80 -40 118.5t-144 38.5q-72 0 -114 -19t-81 -73l-94 86q59 78 127 104.5t164 26.5q160 0 239 -70.5t79 -203.5v-539h-134v60q-43 -39 -92 -54.5t-121 -15.5q-82 0 -134 17.5t-91 58.5q-31 31 -46 74t-15 90zM250 887 q0 -61 37 -91t125 -30q49 0 90 7t76 40q16 16 25 47t9 80v72h-204q-84 0 -121 -32t-37 -93z" />
<glyph unicode="&#xab;" horiz-adv-x="1067" d="M51 549l445 442v-205l-238 -237l238 -240v-203zM506 549l442 442v-205l-239 -237l239 -240v-203z" />
<glyph unicode="&#xac;" horiz-adv-x="1536" d="M57 1151v158l174 149h127v-883h-133v725zM291 0l682 1458h141l-682 -1458h-141zM973 0v117l336 411q25 29 35 55.5t10 57.5q0 57 -32 91t-91 34q-49 0 -86 -28.5t-37 -106.5h-135q0 121 72.5 190.5t185.5 69.5t185.5 -66.5t72.5 -183.5q0 -59 -20.5 -101t-61.5 -91 l-264 -326h346v-123h-516z" />
<glyph unicode="&#xad;" horiz-adv-x="819" d="M129 483v138h561v-138h-561z" />
<glyph unicode="&#xae;" horiz-adv-x="1695" d="M106 729q0 154 58.5 289t159 235.5t235.5 158.5t289 58t289 -58t235.5 -158.5t158.5 -235.5t58 -289t-58 -289t-158.5 -235.5t-236 -158.5t-288.5 -58q-154 0 -289 58t-235.5 158.5t-159 235.5t-58.5 289zM242 729q0 -127 48 -239.5t130 -196.5t192.5 -132t235.5 -48 t235.5 48t193.5 132t131 196.5t48 239.5t-48 239.5t-131 196.5t-193.5 132.5t-235.5 48.5t-235.5 -48.5t-192.5 -132.5t-130 -196.5t-48 -239.5zM600 319v822h283q53 0 101 -19.5t84 -53.5t56.5 -79t20.5 -98q0 -90 -48 -145.5t-120 -79.5l194 -347h-151l-184 328h-107v-328 h-129zM729 760h141q63 0 102.5 37t39.5 94t-39 95t-103 38h-141v-264z" />
<glyph unicode="&#xaf;" horiz-adv-x="618" d="M0 1257v117h618v-117h-618z" />
<glyph unicode="&#x2c9;" horiz-adv-x="618" d="M0 1257v117h618v-117h-618z" />
<glyph unicode="&#xb0;" horiz-adv-x="890" d="M109 1141q0 70 26.5 131t72.5 106t107.5 72t130.5 27q70 0 131.5 -27t106.5 -72t71.5 -106.5t26.5 -130.5q0 -70 -26.5 -131.5t-71.5 -106.5t-106.5 -71.5t-131.5 -26.5t-131 26.5t-107 71.5t-72.5 106.5t-26.5 131.5zM248 1141q0 -43 15.5 -80t42 -64.5t62 -43 t78.5 -15.5q86 0 141.5 58.5t55.5 144.5q0 43 -15.5 79.5t-42 64.5t-62.5 43t-79 15q-86 0 -141 -58t-55 -144z" />
<glyph unicode="&#xb1;" horiz-adv-x="1007" d="M76 0v154h856v-154h-856zM76 582v153h352v352h154v-352h350v-153h-350v-357h-154v357h-352z" />
<glyph unicode="&#xb2;" horiz-adv-x="657" d="M84 584v116l328 408q23 29 33 54.5t10 56.5q0 57 -31 90.5t-88 33.5q-47 0 -83 -28.5t-36 -104.5h-133q0 121 70.5 188.5t181.5 67.5t181.5 -66.5t70.5 -180.5q0 -59 -19.5 -100.5t-60.5 -90.5l-260 -321h340v-123h-504z" />
<glyph unicode="&#xb3;" horiz-adv-x="686" d="M72 829h133q4 -72 43 -102.5t92 -30.5q57 0 95 36t38 102t-33.5 101.5t-105.5 35.5h-27v119h27q66 0 95.5 33.5t29.5 93.5q0 63 -35 94.5t-86 31.5q-53 0 -87 -31.5t-38 -92.5h-129q6 121 77.5 184t176.5 63q111 0 181.5 -68.5t70.5 -178.5q0 -131 -94 -185 q53 -27 80.5 -75t27.5 -125q0 -63 -20.5 -112.5t-56 -82.5t-84 -49.5t-103.5 -16.5q-51 0 -99 14.5t-85 46.5t-59.5 79.5t-24.5 115.5z" />
<glyph unicode="&#xb4;" horiz-adv-x="370" d="M0 1217l180 313h191l-224 -313h-147z" />
<glyph unicode="&#xb5;" horiz-adv-x="1005" d="M98 250l303 303l-303 303l103 102l303 -305l303 305l102 -102l-305 -303l305 -303l-102 -103l-303 304l-303 -304z" />
<glyph unicode="&#x3bc;" horiz-adv-x="1005" d="M98 250l303 303l-303 303l103 102l303 -305l303 305l102 -102l-305 -303l305 -303l-102 -103l-303 304l-303 -304z" />
<glyph unicode="&#xb6;" horiz-adv-x="1161" d="M92 1055q0 84 30 157.5t87 128t140 86t188 31.5h493v-1909h-162v1754h-217v-1754h-164v1108q-90 2 -163.5 36t-125 89.5t-79 126t-27.5 146.5z" />
<glyph unicode="&#xb7;" horiz-adv-x="524" d="M145 547q0 47 35 81t82 34t82 -34t35 -81t-35 -82t-82 -35t-82 35t-35 82z" />
<glyph unicode="&#x22c5;" horiz-adv-x="524" d="M145 547q0 47 35 81t82 34t82 -34t35 -81t-35 -82t-82 -35t-82 35t-35 82z" />
<glyph unicode="&#xb8;" horiz-adv-x="290" d="M0 -442l143 305h148l-121 -305h-170z" />
<glyph unicode="&#xb9;" horiz-adv-x="501" d="M88 1155v156l166 147h121v-874h-127v716z" />
<glyph unicode="&#xba;" horiz-adv-x="876" d="M111 1055q0 92 18 174t80 145q41 41 98.5 66.5t130.5 25.5q74 0 131.5 -25.5t98.5 -66.5q61 -63 79.5 -145t18.5 -174t-18.5 -174t-79.5 -146q-41 -41 -98.5 -65.5t-131.5 -24.5t-131 24.5t-98 65.5q-61 63 -79.5 145.5t-18.5 174.5zM248 1055q0 -66 8 -127.5t49 -102.5 q55 -55 133 -55t133 55q41 41 50.5 102.5t9.5 127.5t-9.5 128t-50.5 103q-53 53 -133 53t-133 -53q-41 -41 -49 -103t-8 -128z" />
<glyph unicode="&#xbb;" horiz-adv-x="1067" d="M119 106v203l239 240l-239 237v205l442 -442zM571 106v203l238 240l-238 237v205l445 -442z" />
<glyph unicode="&#xbc;" horiz-adv-x="1478" d="M37 1151v158l174 149h127v-883h-133v725zM295 0l682 1458h141l-682 -1458h-141zM885 129v119l307 635h145l-303 -629h197v213h133v-213h94v-125h-94v-129h-133v129h-346z" />
<glyph unicode="&#xbd;" horiz-adv-x="1521" d="M37 1151v158l174 149h127v-883h-133v725zM270 0l682 1458h142l-682 -1458h-142zM952 0v117l336 411q25 29 35 55.5t10 57.5q0 57 -31.5 91t-91.5 34q-49 0 -86 -28.5t-37 -106.5h-135q0 121 73 190.5t185 69.5q113 0 185.5 -66.5t72.5 -183.5q0 -59 -20.5 -101t-61.5 -91 l-264 -326h346v-123h-516z" />
<glyph unicode="&#xbe;" horiz-adv-x="1622" d="M88 825h135q4 -74 45 -104.5t94 -30.5q59 0 98.5 36t39.5 101q0 66 -36 103t-108 37h-26v118h26q66 0 97.5 35t31.5 94q0 66 -36.5 97.5t-88.5 31.5q-55 0 -88.5 -32.5t-38.5 -93.5h-133q6 121 81 185t179 64q113 0 185.5 -68.5t72.5 -180.5q0 -66 -25.5 -113t-72.5 -74 q53 -27 83 -76t30 -127q0 -66 -21.5 -113.5t-58.5 -80.5t-86 -49.5t-105 -16.5q-53 0 -101 14.5t-86 46t-61.5 80.5t-25.5 117zM440 0l684 1458h144l-686 -1458h-142zM1016 129v119l309 635h145l-305 -629h199v213h133v-213h94v-125h-94v-129h-133v129h-348z" />
<glyph unicode="&#xbf;" horiz-adv-x="956" d="M106 -84q0 74 26 131t67 117l163 239q16 27 25.5 59t9.5 54v88h162v-90q0 -61 -15.5 -105t-47.5 -92l-162 -233q-29 -41 -47.5 -80t-18.5 -88t16.5 -91t46 -73t69.5 -48t89 -17q104 0 164 69.5t60 169.5h161q0 -84 -28.5 -154.5t-80.5 -122.5t-123 -82t-153 -30 q-80 0 -150.5 27.5t-121.5 79t-81 120t-30 152.5zM369 903q0 47 31.5 79t78.5 32t78 -32t31 -79t-31 -78.5t-78 -31.5t-78.5 31.5t-31.5 78.5z" />
<glyph unicode="&#xc0;" horiz-adv-x="1185" d="M-12 0l534 1462h144l532 -1462h-182l-115 326h-616l-115 -326h-182zM315 1913h197l188 -328h-153zM338 479h512l-254 725z" />
<glyph unicode="&#xc1;" horiz-adv-x="1185" d="M-12 0l534 1462h144l532 -1462h-182l-115 326h-616l-115 -326h-182zM338 479h512l-254 725zM471 1585l188 328h197l-231 -328h-154z" />
<glyph unicode="&#xc2;" horiz-adv-x="1185" d="M-12 0l534 1462h144l532 -1462h-182l-115 326h-616l-115 -326h-182zM246 1585l266 328h147l267 -328h-162l-178 205l-178 -205h-162zM338 479h512l-254 725z" />
<glyph unicode="&#xc3;" horiz-adv-x="1185" d="M-12 0l534 1462h144l532 -1462h-182l-115 326h-616l-115 -326h-182zM248 1718q37 37 65.5 59.5t53 34t45 15.5t41.5 4q47 0 77.5 -13.5t69.5 -35.5q33 -20 56.5 -30.5t52.5 -10.5q20 0 45.5 11t72.5 58l88 -86q-74 -74 -120.5 -93t-83.5 -19q-45 0 -78 12t-70 35 l-52.5 28.5t-55.5 14.5q-23 0 -46.5 -10.5t-72.5 -59.5zM338 479h512l-254 725z" />
<glyph unicode="&#xc4;" horiz-adv-x="1185" d="M-12 0l534 1462h144l532 -1462h-182l-115 326h-616l-115 -326h-182zM272 1696q0 41 30 71.5t71 30.5t69.5 -30.5t28.5 -71.5t-28.5 -71t-69.5 -30t-71 30t-30 71zM338 479h512l-254 725zM700 1696q0 41 29 71.5t70 30.5t70.5 -30.5t29.5 -71.5t-29.5 -71t-70.5 -30 t-70 30t-29 71z" />
<glyph unicode="&#xc5;" horiz-adv-x="1185" d="M-12 0l534 1462h144l532 -1462h-182l-115 328h-616l-115 -328h-182zM338 479h512l-254 727zM338 1769q0 51 19.5 96.5t53 79t79 53t96.5 19.5t96 -19.5t79 -52t53.5 -78.5t19.5 -98q0 -51 -19.5 -97t-53.5 -79.5t-79 -54t-96 -20.5t-96.5 20.5t-79 54t-53 79.5t-19.5 97z M457 1769q0 -53 37.5 -92t91.5 -39q53 0 92 39t39 92t-39 91t-92 38t-91 -38t-38 -91z" />
<glyph unicode="&#xc6;" horiz-adv-x="1851" d="M10 0l772 1458h994v-155h-742v-494h633v-156h-633v-497h742v-156h-912v342h-487l-178 -342h-189zM455 494h409v780z" />
<glyph unicode="&#xc7;" horiz-adv-x="1206" d="M119 727q0 117 2 204t15.5 155.5t41 124t78.5 106.5q74 74 169 113.5t204 39.5q199 0 334 -115.5t174 -332.5h-176q-29 135 -115 214t-217 79q-70 0 -132.5 -25.5t-109.5 -72.5q-33 -35 -52.5 -73t-29.5 -92.5t-13 -133t-3 -191.5q0 -115 3 -192.5t13 -132t29.5 -93.5 t52.5 -71q47 -47 109.5 -73t132.5 -26q131 0 219 79t117 214h172q-18 -109 -63.5 -191.5t-112 -140t-150.5 -87t-182 -29.5q-109 0 -204 39.5t-169 113.5q-51 51 -78.5 106.5t-41 124t-15.5 155.5t-2 204zM428 -442l152 319h153l-127 -319h-178z" />
<glyph unicode="&#xc8;" horiz-adv-x="1148" d="M168 0v1462h905v-155h-735v-492h627v-156h-627v-503h735v-156h-905zM330 1913h196l187 -328h-154z" />
<glyph unicode="&#xc9;" horiz-adv-x="1148" d="M168 0v1462h905v-155h-735v-492h627v-156h-627v-503h735v-156h-905zM485 1585l187 328h194l-229 -328h-152z" />
<glyph unicode="&#xca;" horiz-adv-x="1148" d="M168 0v1462h905v-155h-735v-492h627v-156h-627v-503h735v-156h-905zM260 1585l266 328h146l264 -328h-162l-176 205l-176 -205h-162z" />
<glyph unicode="&#xcb;" horiz-adv-x="1148" d="M168 0v1462h905v-157h-735v-490h627v-156h-627v-503h735v-156h-905zM287 1696q0 41 28.5 71.5t69.5 30.5t70.5 -30.5t29.5 -71.5t-29.5 -71t-70.5 -30t-69.5 30t-28.5 71zM713 1696q0 41 28.5 71.5t69.5 30.5t70.5 -30.5t29.5 -71.5t-29.5 -71t-70.5 -30t-69.5 30 t-28.5 71z" />
<glyph unicode="&#xcc;" horiz-adv-x="503" d="M4 1913h191l180 -328h-148zM201 0v1462h166v-1462h-166z" />
<glyph unicode="&#xcd;" horiz-adv-x="503" d="M205 1585l180 328h190l-223 -328h-147zM211 0v1462h166v-1462h-166z" />
<glyph unicode="&#xce;" horiz-adv-x="503" d="M-49 1585l264 328h143l265 -328h-160l-176 205l-176 -205h-160zM205 0v1462h168v-1462h-168z" />
<glyph unicode="&#xcf;" horiz-adv-x="503" d="M-16 1696q0 41 28.5 71.5t69.5 30.5t69.5 -30.5t28.5 -71.5t-28.5 -71t-69.5 -30t-69.5 30t-28.5 71zM205 0v1462h168v-1462h-168zM406 1696q0 41 28.5 71.5t69.5 30.5t69.5 -30.5t28.5 -71.5t-28.5 -71t-69.5 -30t-69.5 30t-28.5 71z" />
<glyph unicode="&#xd0;" horiz-adv-x="1370" d="M80 668v137h158v653h501q279 0 422 -221q31 -49 49.5 -90t27.5 -95.5t11 -130t2 -192.5q0 -123 -3 -203t-12 -135t-26.5 -94t-48.5 -80q-66 -94 -173 -155.5t-259 -61.5h-491v668h-158zM410 154h303q211 0 307 145q20 33 32.5 63.5t18.5 74.5t7 111.5t1 172.5 q0 102 -1 171t-8 118t-21.5 83.5t-38.5 69.5q-55 78 -126 110t-171 32h-303v-500h325v-137h-325v-514z" />
<glyph unicode="&#xd1;" horiz-adv-x="1413" d="M168 0v1462h160l745 -1132v1132h172v-1462h-160l-745 1137v-1137h-172zM369 1718q37 37 65.5 59.5t53 34t45 15.5t40.5 4q47 0 78 -13.5t70 -35.5q33 -20 56.5 -30.5t51.5 -10.5q20 0 46 11t73 58l88 -86q-74 -74 -121 -93t-84 -19q-45 0 -77.5 12t-69.5 35l-52.5 28.5 t-56.5 14.5q-23 0 -46 -10.5t-72 -59.5z" />
<glyph unicode="&#xd2;" d="M119 731q0 117 2 204t15.5 155.5t41 124t78.5 106.5q74 74 168 114t205 40t205 -40t167 -114q51 -51 79 -106.5t41.5 -124t15.5 -155.5t2 -204t-2 -204t-15.5 -155.5t-41 -123.5t-79.5 -107q-74 -74 -168 -113.5t-204 -39.5q-111 0 -205 40t-168 113q-51 51 -78.5 106.5 t-41 124t-15.5 155.5t-2 204zM289 731q0 -115 3 -191.5t13 -132t29.5 -93.5t52.5 -70q47 -47 109.5 -74t132.5 -27t132 27t109 74q33 33 52.5 70.5t30 93t13.5 132t3 191.5q0 113 -3 190.5t-13.5 133t-30 92.5t-52.5 72q-47 47 -109.5 73.5t-131.5 26.5q-70 0 -132.5 -26.5 t-109.5 -73.5q-33 -35 -52.5 -72t-29.5 -92.5t-13 -133t-3 -190.5zM360 1913h195l188 -328h-153z" />
<glyph unicode="&#xd3;" d="M119 731q0 117 2 204t15.5 155.5t41 124t78.5 106.5q74 74 168 114t205 40t205 -40t167 -114q51 -51 79 -106.5t41.5 -124t15.5 -155.5t2 -204t-2 -204t-15.5 -155.5t-41 -123.5t-79.5 -107q-74 -74 -168 -113.5t-204 -39.5q-111 0 -205 40t-168 113q-51 51 -78.5 106.5 t-41 124t-15.5 155.5t-2 204zM289 731q0 -115 3 -191.5t13 -132t29.5 -93.5t52.5 -70q47 -47 109.5 -74t132.5 -27t132 27t109 74q33 33 52.5 70.5t30 93t13.5 132t3 191.5q0 113 -3 190.5t-13.5 133t-30 92.5t-52.5 72q-47 47 -109.5 73.5t-131.5 26.5q-70 0 -132.5 -26.5 t-109.5 -73.5q-33 -35 -52.5 -72t-29.5 -92.5t-13 -133t-3 -190.5zM514 1585l188 328h195l-229 -328h-154z" />
<glyph unicode="&#xd4;" d="M119 731q0 117 2 204t15.5 155.5t41 124t78.5 106.5q74 74 168 114t205 40t205 -40t167 -114q51 -51 79 -106.5t41.5 -124t15.5 -155.5t2 -204t-2 -204t-15.5 -155.5t-41 -123.5t-79.5 -107q-74 -74 -168 -113.5t-204 -39.5q-111 0 -205 40t-168 113q-51 51 -78.5 106.5 t-41 124t-15.5 155.5t-2 204zM289 731q0 -115 3 -191.5t13 -132t29.5 -93.5t52.5 -70q47 -47 109.5 -74t132.5 -27t132 27t109 74q33 33 52.5 70.5t30 93t13.5 132t3 191.5q0 113 -3 190.5t-13.5 133t-30 92.5t-52.5 72q-47 47 -109.5 73.5t-131.5 26.5q-70 0 -132.5 -26.5 t-109.5 -73.5q-33 -35 -52.5 -72t-29.5 -92.5t-13 -133t-3 -190.5zM291 1585l266 328h143l267 -328h-162l-176 205l-176 -205h-162z" />
<glyph unicode="&#xd5;" d="M119 731q0 117 2 204t15.5 155.5t41 124t78.5 106.5q74 74 168 114t205 40t205 -40t167 -114q51 -51 79 -106.5t41.5 -124t15.5 -155.5t2 -204t-2 -204t-15.5 -155.5t-41 -123.5t-79.5 -107q-74 -74 -168 -113.5t-204 -39.5q-111 0 -205 40t-168 113q-51 51 -78.5 106.5 t-41 124t-15.5 155.5t-2 204zM289 731q0 -115 3 -191.5t13 -132t29.5 -93.5t52.5 -70q47 -47 109.5 -74t132.5 -27t132 27t109 74q33 33 52.5 70.5t30 93t13.5 132t3 191.5q0 113 -3 190.5t-13.5 132t-30 91.5t-52.5 72q-47 47 -109.5 74.5t-131.5 27.5q-70 0 -132.5 -27.5 t-109.5 -74.5q-33 -35 -52.5 -72t-29.5 -91.5t-13 -132t-3 -190.5zM293 1718q37 37 65.5 59.5t52 34t44 15.5t41.5 4q47 0 77.5 -13.5t69.5 -35.5q33 -20 56.5 -30.5t52.5 -10.5q20 0 45.5 11t72.5 58l88 -86q-74 -74 -120.5 -93t-83.5 -19q-45 0 -78 12t-70 35l-52.5 28.5 t-55.5 14.5q-23 0 -46.5 -10.5t-72.5 -59.5z" />
<glyph unicode="&#xd6;" d="M119 731q0 117 2 204t15.5 155.5t41 124t78.5 106.5q74 74 168 114t205 40t205 -40t167 -114q51 -51 79 -106.5t41.5 -124t15.5 -155.5t2 -204t-2 -204t-15.5 -155.5t-41 -123.5t-79.5 -107q-74 -74 -168 -113.5t-204 -39.5q-111 0 -205 40t-168 113q-51 51 -78.5 106.5 t-41 124t-15.5 155.5t-2 204zM289 731q0 -115 3 -191.5t13 -132t29.5 -93.5t52.5 -70q47 -47 109.5 -74t132.5 -27t132 27t109 74q33 33 52.5 70.5t30 93t13.5 132t3 191.5q0 113 -3 190.5t-13.5 132t-30 91.5t-52.5 72q-47 47 -109.5 73.5t-131.5 26.5q-70 0 -132.5 -26.5 t-109.5 -73.5q-33 -35 -52.5 -72t-29.5 -91.5t-13 -132t-3 -190.5zM334 1599v199h164v-199h-164zM760 1599v199h164v-199h-164z" />
<glyph unicode="&#xd7;" horiz-adv-x="1005" d="M96 250l303 303l-303 303l103 102l303 -305l303 305l102 -102l-305 -303l305 -303l-102 -103l-303 304l-303 -304z" />
<glyph unicode="&#xd8;" d="M155 564q1 81 1 165q0 117 2 204t15 155.5t41 124t79 106.5q152 152 373 151q68 0 130 -14t117 -45l66 137h151l-104 -217l4 -4q29 -31 49.5 -56.5t35.5 -53t25.5 -59.5t18.5 -73q6 -35 9 -72.5t6 -82.5q2 -45 2 -94v-107q0 -117 -2.5 -204t-15.5 -155.5t-40.5 -124 t-79.5 -106.5q-74 -74 -168 -112.5t-204 -38.5q-68 0 -131.5 14t-118.5 45l-64 -137h-151l104 217q-66 63 -96.5 134t-42.5 146.5t-11 156.5zM326 729q0 -94 2 -162.5t8 -120t18.5 -88t32.5 -67.5l461 971q-41 25 -87 39t-95 14q-70 0 -132.5 -26.5t-109.5 -74.5 q-33 -35 -52.5 -71.5t-29.5 -91t-13 -132t-3 -190.5zM483 197q41 -25 87 -39.5t96 -14.5q70 0 132 27t109 74q33 33 52.5 70.5t28.5 92t12.5 131t3.5 191.5q0 94 -2.5 164t-8.5 120t-18 87t-31 67z" />
<glyph unicode="&#xd9;" horiz-adv-x="1316" d="M150 485v977h169v-964q0 -162 92.5 -258.5t245.5 -96.5q76 0 139.5 26t107.5 72t68.5 111.5t24.5 145.5v964h170v-977q0 -111 -37.5 -201.5t-106.5 -156.5t-162 -102.5t-204 -36.5t-204 36.5t-160.5 102.5t-105 156.5t-37.5 201.5zM389 1913h195l188 -328h-154z" />
<glyph unicode="&#xda;" horiz-adv-x="1316" d="M150 485v977h169v-964q0 -162 92.5 -258.5t245.5 -96.5q76 0 139.5 26t107.5 72t68.5 111.5t24.5 145.5v964h170v-977q0 -111 -37.5 -201.5t-106.5 -156.5t-162 -102.5t-204 -36.5t-204 36.5t-160.5 102.5t-105 156.5t-37.5 201.5zM543 1585l188 328h195l-230 -328h-153z " />
<glyph unicode="&#xdb;" horiz-adv-x="1316" d="M150 485v977h169v-964q0 -162 92.5 -258.5t245.5 -96.5q76 0 139.5 26t107.5 72t68.5 111.5t24.5 145.5v964h170v-977q0 -111 -37.5 -201.5t-106.5 -156.5t-162 -102.5t-204 -36.5t-204 36.5t-160.5 102.5t-105 156.5t-37.5 201.5zM319 1585l267 328h143l266 -328h-161 l-177 205l-176 -205h-162z" />
<glyph unicode="&#xdc;" horiz-adv-x="1316" d="M150 485v977h169v-964q0 -162 92.5 -258.5t245.5 -96.5q76 0 139.5 26t107.5 72t68.5 111.5t24.5 145.5v964h170v-977q0 -111 -37.5 -201.5t-106.5 -156.5t-162 -102.5t-204 -36.5t-204 36.5t-160.5 102.5t-105 156.5t-37.5 201.5zM344 1696q0 41 29.5 71.5t70.5 30.5 t71 -30.5t30 -71.5t-30 -71t-71 -30t-70.5 30t-29.5 71zM772 1696q0 41 28.5 71.5t69.5 30.5t71 -30.5t30 -71.5t-30 -71t-71 -30t-69.5 30t-28.5 71z" />
<glyph unicode="&#xdd;" horiz-adv-x="1007" d="M-12 1462h186l332 -680l328 680h186l-428 -858v-604h-172v604zM389 1585l189 328h194l-229 -328h-154z" />
<glyph unicode="&#xde;" horiz-adv-x="1234" d="M172 0v1458h170v-289h373q100 0 183 -30.5t142.5 -87t92 -137t32.5 -179.5q0 -98 -32.5 -178t-92 -136t-142.5 -87t-183 -31h-373v-303h-170zM342 459h358q131 0 213 68.5t82 207.5t-82 208t-213 69h-358v-553z" />
<glyph unicode="&#xdf;" horiz-adv-x="1071" d="M160 0v1069q0 195 111.5 299.5t299.5 104.5q80 0 153 -20.5t126 -62.5t85 -106.5t32 -155.5q0 -82 -31 -141t-88 -100q68 -41 93.5 -93.5t25.5 -148.5v-350q0 -143 -82 -219q-41 -41 -90.5 -58.5t-120.5 -17.5h-117v143h88q41 0 64.5 9.5t48.5 29.5q47 41 47 129v342 q0 43 -8.5 70t-30.5 49q-39 39 -113 39h-96v139h80q74 0 121 47t47 129q0 88 -60 144q-57 57 -182 57q-129 0 -184 -72.5t-55 -191.5v-1063h-164z" />
<glyph unicode="&#xe0;" horiz-adv-x="1011" d="M86 291q0 135 91 216t259 81h287v86q0 104 -55.5 156.5t-188.5 52.5q-94 0 -146 -27t-100 -92l-112 104q72 94 155.5 126t204.5 32q203 0 303.5 -87t100.5 -255v-684h-162v82q-57 -53 -119.5 -73.5t-157.5 -20.5q-104 0 -169.5 21.5t-114.5 72.5q-37 39 -56.5 94.5 t-19.5 114.5zM229 1530h195l186 -328h-151zM244 293q0 -82 50 -122t167 -40q63 0 116.5 11.5t98.5 54.5q23 23 35 62.5t12 100.5v99h-268q-111 0 -161 -42t-50 -124z" />
<glyph unicode="&#xe1;" horiz-adv-x="1011" d="M86 291q0 135 91 216t259 81h287v86q0 104 -55.5 156.5t-188.5 52.5q-94 0 -146 -27t-100 -92l-112 104q72 94 155.5 126t204.5 32q203 0 303.5 -87t100.5 -255v-684h-162v82q-57 -53 -119.5 -73.5t-157.5 -20.5q-104 0 -169.5 21.5t-114.5 72.5q-37 39 -56.5 94.5 t-19.5 114.5zM244 293q0 -82 50 -122t167 -40q63 0 116.5 11.5t98.5 54.5q23 23 35 62.5t12 100.5v99h-268q-111 0 -161 -42t-50 -124zM383 1202l186 328h197l-229 -328h-154z" />
<glyph unicode="&#xe2;" horiz-adv-x="1011" d="M86 291q0 135 91 216t259 81h287v86q0 104 -55.5 156.5t-188.5 52.5q-94 0 -146 -27t-100 -92l-112 104q72 94 155.5 126t204.5 32q203 0 303.5 -87t100.5 -255v-684h-162v82q-57 -53 -119.5 -73.5t-157.5 -20.5q-104 0 -169.5 21.5t-114.5 72.5q-37 39 -56.5 94.5 t-19.5 114.5zM160 1202l266 328h143l267 -328h-162l-176 205l-176 -205h-162zM244 293q0 -82 50 -122t167 -40q63 0 116.5 11.5t98.5 54.5q23 23 35 62.5t12 100.5v99h-268q-111 0 -161 -42t-50 -124z" />
<glyph unicode="&#xe3;" horiz-adv-x="1011" d="M86 291q0 135 91 215t259 80h287v86q0 104 -55.5 156.5t-188.5 52.5q-94 0 -146 -26t-100 -91l-112 104q72 94 155.5 126t204.5 32q203 0 303.5 -87t100.5 -255v-684h-162v82q-57 -53 -119.5 -73.5t-157.5 -20.5q-104 0 -169.5 21.5t-114.5 72.5q-37 39 -56.5 94.5 t-19.5 114.5zM162 1335q37 37 65.5 59.5t52 34t44 15.5t41.5 4q47 0 77.5 -13.5t69.5 -35.5q31 -20 54.5 -29.5t51.5 -9.5q20 0 46 10t73 57l88 -86q-74 -74 -121 -93t-83 -19q-45 0 -77 13t-69 36q-25 14 -52.5 27.5t-55.5 13.5q-10 0 -20.5 -2t-24 -8t-31 -20.5 t-41.5 -39.5zM244 293q0 -82 50 -122t167 -40q63 0 116.5 10.5t98.5 53.5q47 47 47 165v99h-268q-111 0 -161 -42t-50 -124z" />
<glyph unicode="&#xe4;" horiz-adv-x="1011" d="M86 291q0 135 91 215t259 80h287v86q0 104 -55.5 156.5t-188.5 52.5q-94 0 -146 -26t-100 -91l-112 102q72 94 155.5 126t204.5 32q403 0 404 -340v-684h-162v82q-57 -53 -119.5 -73.5t-157.5 -20.5q-104 0 -169.5 21.5t-114.5 72.5q-37 39 -56.5 94.5t-19.5 114.5z M186 1313q0 41 29 71.5t70 30.5t70.5 -30.5t29.5 -71.5t-29.5 -71t-70.5 -30t-70 30t-29 71zM244 293q0 -82 50 -122t167 -40q63 0 116.5 10.5t98.5 53.5q47 47 47 165v99h-268q-111 0 -161 -42t-50 -124zM610 1313q0 41 29 71.5t70 30.5t70.5 -30.5t29.5 -71.5t-29.5 -71 t-70.5 -30t-70 30t-29 71z" />
<glyph unicode="&#xe5;" horiz-adv-x="1011" d="M86 291q0 135 91 216t259 81h287v86q0 104 -55.5 156.5t-188.5 52.5q-94 0 -146 -26t-100 -91l-112 102q72 94 155.5 126t204.5 32q403 0 404 -340v-686h-162v82q-57 -53 -119.5 -73.5t-157.5 -20.5q-104 0 -169.5 21.5t-114.5 72.5q-37 39 -56.5 94.5t-19.5 114.5z M244 293q0 -82 50 -122t167 -40q63 0 116.5 11.5t98.5 54.5q23 23 35 62.5t12 100.5v99h-268q-111 0 -161 -42t-50 -124zM252 1401q0 51 19.5 96t53 79t77.5 53.5t96 19.5q51 0 95 -19.5t78 -52.5t53 -79t19 -97t-19 -97.5t-53 -80t-78 -53t-95 -19.5t-95.5 19.5t-78 53 t-53 80t-19.5 97.5zM369 1401q0 -53 37.5 -92t91.5 -39q53 0 91 39t38 92t-38 91t-91 38t-91 -38t-38 -91z" />
<glyph unicode="&#xe6;" horiz-adv-x="1656" d="M86 289q0 135 91 215t261 80h291v86q0 104 -55.5 155.5t-190.5 51.5q-94 0 -148 -26t-102 -91l-112 102q72 94 156.5 126t207.5 32q260 0 351 -148q111 147 311 148q98 0 176 -35t132 -98.5t82 -153.5t28 -201v-75h-674q2 -158 76.5 -241t210.5 -83q43 0 76.5 6 t63.5 19.5t58.5 36t59.5 53.5l114 -98q-41 -41 -80.5 -72t-85 -50.5t-98.5 -29.5t-117 -10q-117 0 -207 39t-147 125q-68 -92 -152.5 -128t-211.5 -36q-104 0 -171 22.5t-116 71.5q-37 39 -57.5 93.5t-20.5 113.5zM246 291q0 -80 51 -120t168 -40q63 0 117.5 10.5t99.5 53.5 q23 23 35 62.5t12 100.5v99h-270q-111 0 -162 -42t-51 -124zM891 584h510q-4 55 -8 83.5t-21 67.5q-29 66 -88 105t-137 39t-136.5 -39t-86.5 -105q-16 -39 -22.5 -67.5t-10.5 -83.5z" />
<glyph unicode="&#xe7;" horiz-adv-x="923" d="M94 502q0 129 34 226t93.5 161.5t140 97.5t177.5 33q51 0 95 -8t84 -26.5t79 -48.5t80 -75l-113 -104q-59 66 -108.5 90t-116.5 24q-139 0 -220 -110q-35 -47 -49 -106.5t-14 -153.5t14.5 -154.5t48.5 -107.5q80 -111 220 -111q68 0 118 26.5t109 92.5l111 -109 q-41 -45 -80 -74.5t-79 -48t-84 -26.5t-95 -8q-96 0 -177 32.5t-140.5 98t-93.5 163t-34 226.5zM313 -442l150 319h153l-124 -319h-179z" />
<glyph unicode="&#xe8;" horiz-adv-x="1013" d="M94 506q0 246 109.5 383t304.5 137q98 0 175 -35t130 -99.5t81 -154.5t28 -202v-76h-666q2 -158 74.5 -242t208.5 -84q84 0 140 26.5t118 90.5l110 -98q-41 -41 -80 -72t-83 -51.5t-95 -30.5t-114 -10q-100 0 -181.5 30.5t-138.5 94t-89 162t-32 231.5zM246 1530h194 l187 -328h-152zM256 588h504q-4 55 -9.5 83.5t-21.5 67.5q-29 66 -87 106t-134 40t-134.5 -40t-86.5 -106q-16 -39 -21.5 -67.5t-9.5 -83.5z" />
<glyph unicode="&#xe9;" horiz-adv-x="1013" d="M94 506q0 246 109.5 383t304.5 137q98 0 175 -35t130 -99.5t81 -154.5t28 -202v-76h-666q2 -158 74.5 -242t208.5 -84q84 0 140 26.5t118 90.5l110 -98q-41 -41 -80 -72t-83 -51.5t-95 -30.5t-114 -10q-100 0 -181.5 30.5t-138.5 94t-89 162t-32 231.5zM256 588h504 q-4 55 -9.5 83.5t-21.5 67.5q-29 66 -87 106t-134 40t-134.5 -40t-86.5 -106q-16 -39 -21.5 -67.5t-9.5 -83.5zM399 1202l189 328h194l-229 -328h-154z" />
<glyph unicode="&#xea;" horiz-adv-x="1013" d="M94 506q0 246 109.5 383t304.5 137q98 0 175 -35t130 -99.5t81 -154.5t28 -202v-76h-666q2 -158 74.5 -242t208.5 -84q84 0 140 26.5t118 90.5l110 -98q-41 -41 -80 -72t-83 -51.5t-95 -30.5t-114 -10q-100 0 -181.5 30.5t-138.5 94t-89 162t-32 231.5zM176 1202l266 328 h144l266 -328h-162l-176 205l-176 -205h-162zM256 588h504q-4 55 -9.5 83.5t-21.5 67.5q-29 66 -87 106t-134 40t-134.5 -40t-86.5 -106q-16 -39 -21.5 -67.5t-9.5 -83.5z" />
<glyph unicode="&#xeb;" horiz-adv-x="1013" d="M94 506q0 246 109.5 382t304.5 136q197 0 305.5 -132t108.5 -357v-76h-666q2 -158 74.5 -242t208.5 -84q84 0 140 26.5t118 90.5l110 -98q-41 -41 -80 -72t-83 -51.5t-95 -30.5t-114 -10q-100 0 -181.5 30.5t-138.5 94t-89 162t-32 231.5zM203 1313q0 41 28.5 71.5 t69.5 30.5t70.5 -30.5t29.5 -71.5t-29.5 -71t-70.5 -30t-69.5 30t-28.5 71zM256 586h504q-4 55 -9.5 84.5t-21.5 68.5q-29 66 -87 105t-134 39t-134.5 -39t-86.5 -105q-16 -39 -21.5 -68.5t-9.5 -84.5zM627 1313q0 41 29.5 71.5t70.5 30.5t69.5 -30.5t28.5 -71.5t-28.5 -71 t-69.5 -30t-70.5 30t-29.5 71z" />
<glyph unicode="&#xec;" horiz-adv-x="468" d="M-18 1530h190l180 -328h-147zM174 0v1014h158v-1014h-158z" />
<glyph unicode="&#xed;" horiz-adv-x="468" d="M178 1202l180 328h191l-223 -328h-148zM184 0v1014h158v-1014h-158z" />
<glyph unicode="&#xee;" horiz-adv-x="468" d="M-72 1202l265 328h143l264 -328h-160l-176 205l-176 -205h-160zM178 0v1014h160v-1014h-160z" />
<glyph unicode="&#xef;" horiz-adv-x="468" d="M-49 1313q0 41 28.5 71.5t69.5 30.5t69.5 -30.5t28.5 -71.5t-28.5 -71t-69.5 -30t-69.5 30t-28.5 71zM178 0v1014h160v-1014h-160zM373 1313q0 41 28.5 71.5t69.5 30.5t69.5 -30.5t28.5 -71.5t-28.5 -71t-69.5 -30t-69.5 30t-28.5 71z" />
<glyph unicode="&#xf0;" horiz-adv-x="1026" d="M104 502q0 57 4.5 112.5t17.5 106.5t36.5 97t62.5 85q96 98 250 109q31 2 65.5 0t65.5 -13l-100 175h-238v122h170l-94 166h172l94 -166h168v-122h-102l119 -211q39 -72 64.5 -127.5t38.5 -107.5t18.5 -105.5t5.5 -120.5q0 -115 -24 -218.5t-99 -181.5 q-51 -53 -123 -83.5t-164 -30.5t-164 30.5t-123 83.5q-39 39 -62.5 85t-36.5 97.5t-17.5 106t-4.5 111.5zM266 502q0 -86 11.5 -165t64.5 -132q70 -70 170 -70q102 0 172 70q53 53 64.5 132t11.5 165t-11.5 166t-64.5 133q-35 35 -78 53t-94 18q-98 0 -170 -71 q-53 -53 -64.5 -133t-11.5 -166z" />
<glyph unicode="&#xf1;" horiz-adv-x="1077" d="M145 0v1014h162v-96q53 53 122 80.5t146 27.5q172 0 267.5 -104.5t95.5 -276.5v-645h-162v623q0 129 -62.5 192.5t-170.5 63.5q-109 0 -172.5 -63.5t-63.5 -192.5v-623h-162zM209 1335q37 37 65.5 59.5t52 34t44 15.5t41.5 4q47 0 77.5 -13.5t69.5 -35.5 q31 -20 55.5 -29.5t53.5 -9.5q20 0 44.5 10t71.5 57l88 -86q-74 -74 -119.5 -93t-82.5 -19q-45 0 -78 13t-70 36q-25 14 -52.5 27.5t-55.5 13.5q-10 0 -20.5 -2t-24 -8t-30.5 -20.5t-42 -39.5z" />
<glyph unicode="&#xf2;" horiz-adv-x="1032" d="M104 506q0 115 23 219t100 184q53 53 125 85t164 32t164 -31.5t125 -85.5q76 -80 99.5 -184t23.5 -219t-23.5 -218.5t-99.5 -183.5q-53 -53 -125 -84.5t-164 -31.5t-163.5 31.5t-125.5 84.5q-78 80 -100.5 183.5t-22.5 218.5zM227 1530h197l186 -328h-153zM266 506 q0 -86 12.5 -167t65.5 -134q70 -70 172 -70q104 0 174 70q53 53 64.5 134t11.5 167q0 43 -2 85t-10.5 82t-22.5 74.5t-41 61.5q-70 70 -174 70q-102 0 -172 -70q-53 -53 -65.5 -135t-12.5 -168z" />
<glyph unicode="&#xf3;" horiz-adv-x="1032" d="M104 506q0 115 23 219t100 184q53 53 125 85t164 32t164 -31.5t125 -85.5q76 -80 99.5 -184t23.5 -219t-23.5 -218.5t-99.5 -183.5q-53 -53 -125 -84.5t-164 -31.5t-163.5 31.5t-125.5 84.5q-78 80 -100.5 183.5t-22.5 218.5zM266 506q0 -86 12.5 -167t65.5 -134 q70 -70 172 -70q104 0 174 70q53 53 64.5 134t11.5 167q0 43 -2 85t-10.5 82t-22.5 74.5t-41 61.5q-70 70 -174 70q-102 0 -172 -70q-53 -53 -65.5 -135t-12.5 -168zM401 1202l189 328h194l-229 -328h-154z" />
<glyph unicode="&#xf4;" horiz-adv-x="1032" d="M104 506q0 115 23 219t100 184q53 53 125 85t164 32t164 -31.5t125 -85.5q76 -80 99.5 -184t23.5 -219t-23.5 -218.5t-99.5 -183.5q-53 -53 -125 -84.5t-164 -31.5t-163.5 31.5t-125.5 84.5q-78 80 -100.5 183.5t-22.5 218.5zM178 1202l266 328h144l266 -328h-162 l-176 205l-176 -205h-162zM266 506q0 -86 12.5 -167t65.5 -134q70 -70 172 -70q104 0 174 70q53 53 64.5 134t11.5 167q0 43 -2 85t-10.5 82t-22.5 74.5t-41 61.5q-70 70 -174 70q-102 0 -172 -70q-53 -53 -65.5 -135t-12.5 -168z" />
<glyph unicode="&#xf5;" horiz-adv-x="1032" d="M104 506q0 115 23 219t100 184q53 53 125 85t164 32t164 -31.5t125 -85.5q76 -80 99.5 -184t23.5 -219t-23.5 -218.5t-99.5 -183.5q-53 -53 -125 -84.5t-164 -31.5t-163.5 31.5t-125.5 84.5q-78 80 -100.5 183.5t-22.5 218.5zM180 1335q37 37 65.5 59.5t52.5 34t44 15.5 t41 4q47 0 78 -13.5t69 -35.5q33 -20 56.5 -29.5t52.5 -9.5q20 0 45 10t72 57l88 -86q-74 -74 -120 -93t-83 -19q-45 0 -78 13t-69 36q-25 14 -52.5 27.5t-56.5 13.5q-10 0 -20.5 -2t-23.5 -8t-30.5 -20.5t-42.5 -39.5zM266 506q0 -86 12.5 -167t65.5 -134q70 -70 172 -70 q104 0 174 70q53 53 64.5 134t11.5 167t-11.5 167t-64.5 134q-35 35 -79 53.5t-95 18.5q-100 0 -172 -72q-53 -53 -65.5 -134t-12.5 -167z" />
<glyph unicode="&#xf6;" horiz-adv-x="1032" d="M104 506q0 57 5.5 112.5t18.5 107.5t36.5 98t62.5 85q53 53 125 84t164 31t164 -30.5t125 -84.5q76 -78 99.5 -183t23.5 -220t-23.5 -219.5t-99.5 -182.5q-53 -53 -125 -84.5t-164 -31.5t-163.5 31.5t-125.5 84.5q-39 39 -62.5 85.5t-36.5 97.5t-18.5 106.5t-5.5 112.5z M205 1313q0 41 28.5 71.5t69.5 30.5t70.5 -30.5t29.5 -71.5t-29.5 -71t-70.5 -30t-69.5 30t-28.5 71zM266 506q0 -86 12.5 -167t65.5 -134q70 -70 172 -70q104 0 174 70q53 53 64.5 134t11.5 167t-11.5 167t-64.5 134q-70 70 -174 70q-102 0 -172 -70q-53 -53 -65.5 -134 t-12.5 -167zM629 1313q0 41 29.5 71.5t70.5 30.5t69.5 -30.5t28.5 -71.5t-28.5 -71t-69.5 -30t-70.5 30t-29.5 71z" />
<glyph unicode="&#xf7;" horiz-adv-x="1007" d="M74 475v154h860v-154h-860zM381 190q0 51 36 88t87 37t87 -36.5t36 -88.5q0 -51 -36 -86.5t-87 -35.5t-87 35.5t-36 86.5zM381 913q0 51 36 87t87 36t87 -35.5t36 -87.5q0 -51 -36 -88t-87 -37t-87 37t-36 88z" />
<glyph unicode="&#xf8;" horiz-adv-x="1032" d="M127 -90l119 201q-72 78 -93.5 179t-21.5 214q0 57 5 112.5t18.5 106.5t37 97t62.5 85q53 53 125 85t164 32q117 0 207 -51l75 127h133l-118 -201q72 -78 93 -179.5t21 -213.5q0 -115 -23.5 -219.5t-99.5 -182.5q-53 -53 -124.5 -84.5t-163.5 -31.5q-117 0 -207 51 l-74 -127h-135zM293 504q0 -66 7 -131.5t34 -118.5l342 584q-55 37 -133 36q-102 0 -172 -69q-53 -53 -65.5 -135t-12.5 -166zM410 172q57 -39 133 -39q104 0 174 70q53 53 64.5 134t11.5 167q0 68 -6.5 132t-32.5 118z" />
<glyph unicode="&#xf9;" horiz-adv-x="1077" d="M139 369v645h162v-623q0 -129 61.5 -192.5t169.5 -63.5q109 0 173.5 63.5t64.5 192.5v623h162v-1014h-160v96q-53 -53 -122.5 -80.5t-147.5 -27.5q-82 0 -147.5 24.5t-112.5 71.5q-53 53 -78 125t-25 160zM266 1530h195l188 -328h-153z" />
<glyph unicode="&#xfa;" horiz-adv-x="1077" d="M139 369v645h162v-623q0 -129 61.5 -192.5t169.5 -63.5q109 0 173.5 63.5t64.5 192.5v623h162v-1014h-160v96q-53 -53 -122.5 -80.5t-147.5 -27.5q-82 0 -147.5 24.5t-112.5 71.5q-53 53 -78 125t-25 160zM422 1202l186 328h195l-230 -328h-151z" />
<glyph unicode="&#xfb;" horiz-adv-x="1077" d="M139 369v645h162v-623q0 -129 61.5 -192.5t169.5 -63.5q109 0 173.5 63.5t64.5 192.5v623h162v-1014h-160v96q-53 -53 -122.5 -80.5t-147.5 -27.5q-82 0 -147.5 24.5t-112.5 71.5q-53 53 -78 125t-25 160zM197 1202l266 328h143l266 -328h-161l-176 205l-177 -205h-161z " />
<glyph unicode="&#xfc;" horiz-adv-x="1077" d="M139 369v645h162v-623q0 -129 61.5 -192.5t169.5 -63.5q109 0 173.5 63.5t64.5 192.5v623h162v-1014h-160v96q-53 -53 -122.5 -80.5t-147.5 -27.5q-82 0 -147.5 24.5t-112.5 71.5q-53 53 -78 125t-25 160zM223 1313q0 41 29 71.5t70 30.5t70.5 -30.5t29.5 -71.5t-30 -71 t-70 -30q-41 0 -70 30t-29 71zM647 1313q0 41 30 71.5t71 30.5t69.5 -30.5t28.5 -71.5t-29 -71t-69 -30q-41 0 -71 30t-30 71z" />
<glyph unicode="&#xfd;" horiz-adv-x="872" d="M4 1012h176l264 -783l263 783h176l-455 -1252q-29 -78 -72 -120q-41 -41 -93 -56.5t-105 -15.5h-72v147h53q72 0 100.5 27t53.5 92l69 191zM328 1202l188 328h195l-230 -328h-153z" />
<glyph unicode="&#xfe;" horiz-adv-x="1050" d="M145 -451v1909h162v-545q59 68 126 89.5t145 21.5t141 -24.5t104 -65.5q39 -39 62.5 -89t37 -106.5t18.5 -117t5 -117.5q0 -59 -5 -118.5t-18.5 -116t-37 -106.5t-62.5 -89q-41 -41 -104.5 -65.5t-140.5 -24.5q-78 0 -144.5 22.5t-126.5 89.5v-547h-162zM307 504 q0 -74 8.5 -141.5t35 -118.5t72.5 -82t124 -31q76 0 123 31t72.5 82t33.5 118.5t8 141.5t-8 141.5t-33.5 118.5t-72.5 82t-123 31q-78 0 -124 -31t-72.5 -82t-35 -118.5t-8.5 -141.5z" />
<glyph unicode="&#xff;" horiz-adv-x="872" d="M4 1012h176l264 -783l263 783h176l-455 -1252q-29 -78 -72 -120q-41 -41 -93 -56.5t-105 -15.5h-72v147h53q72 0 100.5 27t53.5 92l69 191zM131 1313q0 41 28.5 71.5t69.5 30.5t71 -30.5t30 -71.5t-30 -71t-71 -30t-69.5 30t-28.5 71zM555 1313q0 41 29.5 71.5t70.5 30.5 t70 -30.5t29 -71.5t-29 -71t-70 -30t-70.5 30t-29.5 71z" />
<glyph unicode="&#x152;" horiz-adv-x="1949" d="M119 729q0 115 2 202t15.5 155.5t42 125t79.5 107.5q152 152 373 151q102 0 188 -35.5t154 -109.5v133h897v-153h-725q0 -117 1 -249t1 -247h616v-147h-616q0 -117 -1 -254.5t-1 -253.5h729v-154h-901v133q-68 -74 -157 -109.5t-185 -35.5q-221 0 -373 151 q-51 51 -79.5 106.5t-42 125t-15.5 156.5t-2 202zM291 729q0 -115 3 -191.5t13 -131t29.5 -92.5t52.5 -70q47 -47 110.5 -74t133.5 -27t132 27t109 74q33 33 52.5 70.5t30 92t13.5 131t3 191.5q0 113 -3 190.5t-13.5 132t-30 91.5t-52.5 71q-47 47 -109.5 74t-131.5 27 q-70 0 -133.5 -26.5t-110.5 -74.5q-33 -35 -52.5 -71.5t-29.5 -91t-13 -132t-3 -190.5z" />
<glyph unicode="&#x153;" horiz-adv-x="1699" d="M104 504q0 117 24 220t101 181q53 53 126 84t165 31q111 0 200 -48t140 -134q106 182 330 182q98 0 176 -35t132 -98.5t82 -153.5t28 -201v-75h-672q2 -158 75.5 -241t209.5 -83q43 0 76.5 6t64.5 19.5t59.5 36t59.5 53.5l112 -98q-41 -41 -80.5 -72t-84 -50.5 t-96.5 -29.5t-115 -10q-121 0 -212.5 45t-146.5 137q-51 -86 -139 -134t-199 -48q-92 0 -164.5 30.5t-126.5 83.5q-78 78 -101.5 181.5t-23.5 220.5zM268 504q0 -84 12.5 -165t65.5 -134q70 -70 174 -70q106 0 176 70q53 53 64.5 134t11.5 165t-11 165t-65 134 q-70 70 -176 69q-104 0 -174 -69q-53 -53 -65.5 -134t-12.5 -165zM936 584h510q-4 55 -9 83.5t-22 67.5q-29 66 -88 105t-137 39t-137.5 -39t-87.5 -105q-16 -39 -20.5 -67.5t-8.5 -83.5z" />
<glyph unicode="&#x178;" horiz-adv-x="1007" d="M-12 1462h186l332 -680l328 680h186l-428 -860v-602h-172v602zM190 1696q0 41 30 71.5t71 30.5t70.5 -30.5t29.5 -71.5t-29.5 -71t-70.5 -30t-71 30t-30 71zM616 1696q0 41 30 71.5t71 30.5t70.5 -30.5t29.5 -71.5t-29.5 -71t-70.5 -30t-71 30t-30 71z" />
<glyph unicode="&#x2c6;" horiz-adv-x="671" d="M0 1217l264 313h144l264 -313h-160l-176 196l-176 -196h-160z" />
<glyph unicode="&#x2dc;" horiz-adv-x="659" d="M0 1343q37 35 65.5 55.5t52 32t44 14.5t41.5 3q45 0 76.5 -12.5t68.5 -34.5q31 -18 54.5 -26.5t52.5 -8.5q20 0 45.5 9t72.5 55l86 -80q-74 -70 -119.5 -87.5t-82.5 -17.5q-43 0 -76 12.5t-70 32.5q-25 14 -51.5 25.5t-54.5 11.5q-23 0 -46.5 -8t-72.5 -55z" />
<glyph unicode="&#x2000;" horiz-adv-x="1007" />
<glyph unicode="&#x2001;" horiz-adv-x="2017" />
<glyph unicode="&#x2002;" horiz-adv-x="1007" />
<glyph unicode="&#x2003;" horiz-adv-x="2017" />
<glyph unicode="&#x2004;" horiz-adv-x="671" />
<glyph unicode="&#x2005;" horiz-adv-x="503" />
<glyph unicode="&#x2006;" horiz-adv-x="335" />
<glyph unicode="&#x2007;" horiz-adv-x="335" />
<glyph unicode="&#x2008;" horiz-adv-x="251" />
<glyph unicode="&#x2009;" horiz-adv-x="403" />
<glyph unicode="&#x200a;" horiz-adv-x="110" />
<glyph unicode="&#x2010;" horiz-adv-x="819" d="M129 483v138h561v-138h-561z" />
<glyph unicode="&#x2011;" horiz-adv-x="819" d="M129 483v138h561v-138h-561z" />
<glyph unicode="&#x2013;" horiz-adv-x="1003" d="M74 483v138h856v-138h-856z" />
<glyph unicode="&#x2014;" horiz-adv-x="1708" d="M74 483v140h1560v-140h-1560z" />
<glyph unicode="&#x2018;" horiz-adv-x="485" d="M154 1286v176l178 168v-344h-178z" />
<glyph unicode="&#x2019;" horiz-adv-x="485" d="M154 1114v344h178v-176z" />
<glyph unicode="&#x201a;" horiz-adv-x="505" d="M180 -172v344h178v-176z" />
<glyph unicode="&#x201c;" horiz-adv-x="835" d="M154 1286v176l190 168v-344h-190zM489 1286v176l193 168v-344h-193z" />
<glyph unicode="&#x201d;" horiz-adv-x="835" d="M154 1114v344h190v-176zM489 1114v344h193v-176z" />
<glyph unicode="&#x201e;" horiz-adv-x="856" d="M180 -172v344h191v-176zM516 -172v344h193v-176z" />
<glyph unicode="&#x2022;" horiz-adv-x="1024" d="M178 684q0 70 26.5 130t72 105.5t105.5 72t130 26.5t130 -26.5t105.5 -72t72 -105.5t26.5 -130t-26.5 -130t-72 -105.5t-105.5 -72t-130 -26.5t-130 26.5t-105.5 72t-72 105.5t-26.5 130z" />
<glyph unicode="&#x2026;" horiz-adv-x="1544" d="M174 111q0 47 37 81.5t88 34.5t87 -34.5t36 -81.5t-36 -82t-87 -35t-88 35t-37 82zM662 111q0 47 36.5 81.5t87.5 34.5t88 -34.5t37 -81.5t-36.5 -82t-88.5 -35q-51 0 -87.5 35t-36.5 82zM1151 111q0 47 36 81.5t87 34.5t88 -34.5t37 -81.5t-37 -82t-88 -35t-87 35 t-36 82z" />
<glyph unicode="&#x202f;" horiz-adv-x="403" />
<glyph unicode="&#x2039;" horiz-adv-x="630" d="M78 549l434 442v-205l-231 -237l231 -240v-203z" />
<glyph unicode="&#x203a;" horiz-adv-x="630" d="M160 106v203l233 240l-233 237v205l434 -442z" />
<glyph unicode="&#x205f;" horiz-adv-x="503" />
<glyph unicode="&#x20ac;" horiz-adv-x="1091" d="M70 547v125h159v125h-159v125h161q4 121 40 221t98.5 173t149.5 113.5t196 40.5q121 0 207 -39.5t159 -127.5l-127 -109q-49 63 -102 92t-137 29t-141.5 -34t-94.5 -89t-55 -126t-21 -144h433v-125h-437v-125h437v-125h-433q4 -197 81 -300.5t231 -103.5q86 0 148.5 29 t123.5 94l105 -112q-45 -47 -86 -79t-87.5 -51.5t-98.5 -27.5t-118 -8q-131 0 -220 48t-144 127t-80 179t-27 205h-161z" />
<glyph unicode="&#x2122;" horiz-adv-x="1615" d="M47 1333v125h615v-125h-240v-749h-135v749h-240zM797 584v874h131l258 -508l256 508h131v-874h-133v590l-193 -377h-125l-190 377v-590h-135z" />
</font>
</defs>
</svg>
