<?xml version="1.0" standalone="no"?>
<!DOCTYPE svg PUBLIC "-//W3C//DTD SVG 1.1//EN" "http://www.w3.org/Graphics/SVG/1.1/DTD/svg11.dtd" >
<svg xmlns="http://www.w3.org/2000/svg">
<metadata>
This is a custom SVG webfont generated by Font Squirrel.
Copyright   : 1970 AlbertJan Pool published by Fontshop International for the FontFont library
</metadata>
<defs>
<font id="webfontuqLLqO9I" horiz-adv-x="1044" >
<font-face units-per-em="2048" ascent="1556" descent="-492" />
<missing-glyph horiz-adv-x="358" />
<glyph unicode=" "  horiz-adv-x="358" />
<glyph unicode="&#x09;" horiz-adv-x="358" />
<glyph unicode="&#xa0;" horiz-adv-x="358" />
<glyph unicode="!" horiz-adv-x="583" d="M127 1458h330l-68 -1001h-196zM131 154q0 66 47 113.5t113 47.5t114 -48t48 -113q0 -66 -48.5 -113t-113.5 -47q-66 0 -113 47t-47 113z" />
<glyph unicode="&#x22;" horiz-adv-x="890" d="M111 1026v432h249v-432h-249zM532 1026v432h248v-432h-248z" />
<glyph unicode="#" horiz-adv-x="1333" d="M70 389v250h182l33 221h-144v248h183l57 362h281l-58 -362h238l57 362h279l-56 -362h142v-248h-183l-32 -221h141v-250h-182l-62 -389h-280l63 389h-237l-62 -389h-280l61 389h-141zM530 639h238l33 221h-236z" />
<glyph unicode="$" horiz-adv-x="1236" d="M0 180l184 185q66 -66 150 -92.5t176 -30.5v370l-66 9q-92 12 -163.5 43.5t-118.5 78.5q-104 104 -105 285q0 178 113 297t313 141v185h207v-183q125 -8 222.5 -48t181.5 -120l-181 -178q-51 49 -119.5 72t-131.5 27v-357l77 -12q100 -16 166 -44t113 -71 q59 -55 85.5 -132t26.5 -175q0 -94 -32.5 -169t-91 -130t-139.5 -89t-177 -46v-229h-207v221q-147 4 -265 47t-218 145zM332 1038q0 -29 10 -55.5t33 -48.5q47 -45 135 -57v342q-90 -12 -134 -62.5t-44 -118.5zM662 246q92 10 141 55t49 121q0 80 -45 123q-31 29 -68 38 t-77 15v-352z" />
<glyph unicode="%" horiz-adv-x="1654" d="M66 987v203q0 70 23.5 122t64.5 87t94 53t114 18q59 0 113.5 -18t95.5 -53t64.5 -87t23.5 -122v-203q0 -70 -23.5 -122t-64.5 -88t-95 -53t-114 -17q-61 0 -114 17t-94 53t-64.5 88t-23.5 122zM258 995q0 -59 27.5 -87.5t76.5 -28.5t77 28.5t28 87.5v187q0 59 -27.5 87.5 t-77.5 28.5q-104 0 -104 -116v-187zM379 0l690 1458h209l-690 -1458h-209zM995 268v203q0 70 23.5 122t64.5 87t94.5 53.5t114.5 18.5q59 0 113.5 -18.5t95.5 -53.5t64.5 -87t23.5 -122v-203q0 -70 -23.5 -122t-64.5 -87.5t-95 -53t-114 -17.5q-61 0 -114.5 17.5t-94.5 53 t-64.5 87.5t-23.5 122zM1188 276q0 -117 104 -116q49 0 77 28.5t28 87.5v187q0 59 -28 88t-77 29q-104 0 -104 -117v-187z" />
<glyph unicode="&#x26;" horiz-adv-x="1388" d="M72 430q0 70 23.5 128t60.5 106.5t84 87.5t94 69q-23 25 -48.5 57.5t-47 70.5t-36 83t-14.5 98q0 74 27 136.5t77 107.5t121.5 70.5t164.5 25.5q86 0 154.5 -25.5t117.5 -71.5t74.5 -109.5t25.5 -137.5q0 -86 -41 -145t-108 -109q-2 -2 -19 -14l-42 -31l-44 -30l246 -291 q35 47 52.5 112.5t21.5 143.5h252q-8 -141 -43 -254t-113 -199l262 -309h-338l-106 127l-57.5 -44t-77.5 -45.5t-104.5 -35.5t-137.5 -14q-242 0 -361.5 117.5t-119.5 324.5zM330 434q0 -45 17.5 -83t47 -64.5t69.5 -42t87 -15.5q66 0 116 20.5t101 65.5l-291 342 q-66 -47 -106.5 -96t-40.5 -127zM457 1124q0 -41 28.5 -79.5t67.5 -83.5l39 25l22 15q35 25 59.5 54.5t24.5 68.5q0 51 -31.5 85t-88.5 34q-59 0 -90 -34t-31 -85z" />
<glyph unicode="'" horiz-adv-x="473" d="M111 1026v432h251v-432h-251z" />
<glyph unicode="(" horiz-adv-x="647" d="M154 283v893q0 68 9 135t44 129q35 59 82 109l98 102l178 -178l-62 -65q-26 -28 -52 -73q-31 -55 -31 -172v-868q0 -117 31 -172q27 -45 52 -73l62 -64l-178 -179l-98 102q-47 50 -82 109q-35 61 -44 129t-9 136z" />
<glyph unicode=")" horiz-adv-x="649" d="M82 -12l62 63q26 27 53 72q31 55 30 172v868q0 117 -30 172q-27 45 -53 72l-62 63l180 181l98 -102q47 -50 82 -109q35 -61 44.5 -129t9.5 -135v-893q0 -68 -9.5 -135.5t-44.5 -129.5q-35 -59 -82 -109l-98 -102z" />
<glyph unicode="*" horiz-adv-x="948" d="M80 942l225 119l-225 119l92 163l217 -137l-10 256h188l-8 -256l215 137l94 -163l-227 -119l227 -119l-94 -162l-215 135l8 -256h-188l10 256l-217 -135z" />
<glyph unicode="+" horiz-adv-x="1042" d="M68 442v250h329v328h250v-328h328v-250h-328v-327h-250v327h-329z" />
<glyph unicode="," horiz-adv-x="536" d="M123 291h293v-404l-293 -225v629z" />
<glyph unicode="-" horiz-adv-x="819" d="M94 461v248h631v-248h-631z" />
<glyph unicode="." horiz-adv-x="567" d="M104 172q0 74 52.5 126t126.5 52t127 -52t53 -126t-53.5 -126t-126.5 -52q-74 0 -126.5 52t-52.5 126z" />
<glyph unicode="/" horiz-adv-x="776" d="M-29 -152l584 1762h250l-584 -1762h-250z" />
<glyph unicode="0" horiz-adv-x="1075" d="M94 422v614q0 104 36 185.5t97.5 136.5t141.5 83.5t170 28.5q88 0 168.5 -28.5t141 -83.5t96.5 -136t36 -186v-614q0 -104 -36 -185t-96.5 -136.5t-141 -84t-168.5 -28.5q-90 0 -170 28.5t-141.5 84t-97.5 136.5t-36 185zM360 424q0 -92 50.5 -144.5t128.5 -52.5 t127 52.5t49 144.5v608q0 92 -49.5 145.5t-126.5 53.5q-78 0 -128.5 -53.5t-50.5 -145.5v-608z" />
<glyph unicode="1" horiz-adv-x="776" d="M68 913v287l297 258h266v-1458h-266v1171z" />
<glyph unicode="2" horiz-adv-x="1028" d="M59 0v240l545 632q41 47 58.5 86t17.5 91q0 82 -45 132t-131 50q-33 0 -64.5 -9.5t-57.5 -31t-41 -57t-15 -89.5h-267q0 100 34 179.5t94.5 134.5t141.5 83.5t175 28.5q96 0 178 -29.5t140.5 -83.5t91 -133t32.5 -177q0 -53 -10 -95.5t-29.5 -81.5t-49.5 -76l-66 -81 l-408 -473h563v-240h-887z" />
<glyph unicode="3" d="M33 418h266q2 -49 18.5 -85t43 -59.5t62.5 -35t75 -11.5q86 0 141 52.5t55 150.5q0 92 -53 146.5t-152 54.5h-38v231h38q98 0 141.5 52.5t43.5 129.5q0 92 -53.5 139.5t-124.5 47.5q-76 0 -126.5 -46t-54.5 -130h-266q2 98 38 175t95.5 130t140 81.5t173.5 28.5 q96 0 178 -30.5t141 -86t92 -132t33 -168.5q0 -119 -48 -189.5t-120 -109.5q78 -41 133.5 -120t55.5 -212q0 -109 -37 -190.5t-100.5 -136t-147.5 -81t-178 -26.5q-90 0 -173 24.5t-147.5 76.5t-103.5 133t-41 196z" />
<glyph unicode="4" horiz-adv-x="1083" d="M37 207v252l500 999h290l-499 -999h305v272h256v-272h133v-252h-133v-207h-256v207h-596z" />
<glyph unicode="5" horiz-adv-x="1024" d="M57 408h267q10 -86 52 -133.5t126 -47.5q80 0 127 47q35 35 46 91.5t11 126.5q0 127 -40 194.5t-138 67.5q-82 0 -122 -38t-54 -81h-244v823h832v-239h-590v-314q29 29 87 51.5t132 22.5q92 0 159.5 -26.5t112.5 -71.5q86 -86 108.5 -185.5t22.5 -203.5 q0 -123 -24.5 -214.5t-104.5 -171.5q-49 -49 -128 -83.5t-193 -34.5q-115 0 -197 34.5t-129 81.5q-68 68 -90.5 146t-28.5 158z" />
<glyph unicode="6" d="M68 438q0 100 36.5 194.5t85.5 194.5l308 631h290l-303 -602q27 10 54.5 14t54.5 4q74 0 142.5 -29.5t122.5 -84.5t86 -136t32 -182q0 -109 -35 -192.5t-96.5 -142t-144.5 -89t-179 -30.5t-179 29.5t-144.5 87t-96 141t-34.5 192.5zM334 440q0 -102 53 -157.5t135 -55.5 t135.5 55.5t53.5 157.5q0 98 -51.5 155.5t-137.5 57.5q-82 0 -135 -55.5t-53 -157.5z" />
<glyph unicode="7" horiz-adv-x="1009" d="M49 989v469h928v-239l-473 -1219h-289l473 1219h-385v-230h-254z" />
<glyph unicode="8" horiz-adv-x="1089" d="M78 424q0 68 17.5 119t44 91t58 68.5t62.5 49.5q-29 18 -57.5 46.5t-52 65.5t-39 84t-15.5 107q0 96 36 173t97.5 131t142.5 82.5t173 28.5t173 -28.5t141.5 -82.5t96 -131t35.5 -173q0 -59 -15 -106.5t-39 -84.5t-53.5 -65.5t-56.5 -46.5q31 -20 63 -49t59.5 -69t45 -91 t17.5 -119q0 -106 -37 -187t-100.5 -136.5t-148.5 -84t-181 -28.5t-181 28.5t-148.5 84t-100.5 136.5t-37 187zM344 428q0 -86 57.5 -143.5t143.5 -57.5t143 57.5t57 143.5t-57 144.5t-143 58.5t-143.5 -58.5t-57.5 -144.5zM362 1047q0 -80 52.5 -132.5t130.5 -52.5 t129 52.5t51 132.5q0 78 -51 131t-129 53t-130.5 -53t-52.5 -131z" />
<glyph unicode="9" d="M68 1016q0 106 34.5 191t96 143.5t144.5 89t179 30.5t179 -29.5t144.5 -87t96.5 -141.5t35 -192q0 -100 -36 -194.5t-85 -194.5l-309 -631h-289l303 602q-27 -10 -54.5 -14t-53.5 -4q-74 0 -143.5 29.5t-123 85t-86 135.5t-32.5 182zM334 1018q0 -98 51 -155.5t137 -57.5 q82 0 135.5 55t53.5 158q0 102 -53.5 157.5t-135.5 55.5t-135 -55.5t-53 -157.5z" />
<glyph unicode=":" horiz-adv-x="614" d="M129 172q0 74 52 126t126 52t126 -52t52 -126t-52 -126t-126 -52t-126 52t-52 126zM129 715q0 74 52 127t126 53t126 -53.5t52 -126.5q0 -74 -52 -126t-126 -52t-126 52t-52 126z" />
<glyph unicode=";" horiz-adv-x="593" d="M129 715q0 74 52 127t126 53t126 -53.5t52 -126.5q0 -74 -52 -126t-126 -52t-126 52t-52 126zM162 291h291v-404l-291 -225v629z" />
<glyph unicode="&#x37e;" horiz-adv-x="593" d="M129 715q0 74 52 127t126 53t126 -53.5t52 -126.5q0 -74 -52 -126t-126 -52t-126 52t-52 126zM162 291h291v-404l-291 -225v629z" />
<glyph unicode="&#x3c;" d="M86 469v231l832 383v-280l-494 -219l494 -217v-281z" />
<glyph unicode="=" horiz-adv-x="1042" d="M68 238v249h907v-249h-907zM68 682v250h907v-250h-907z" />
<glyph unicode="&#x3e;" d="M127 86v281l494 217l-494 219v280l831 -383v-231z" />
<glyph unicode="?" horiz-adv-x="1007" d="M63 1061q0 94 34 171t92.5 129t136 80.5t168.5 28.5q86 0 164.5 -27.5t138 -79.5t94.5 -128t35 -174q0 -78 -29 -138.5t-72 -117.5l-151 -201q-16 -20 -26.5 -49t-10.5 -55v-43h-266v61q0 66 18.5 113t59.5 100l151 195q25 33 42 67.5t17 69.5q0 72 -44 120t-121 48 q-82 0 -123 -49t-41 -121h-267zM344 154q0 66 47 113.5t113 47.5t114 -48t48 -113q0 -66 -48.5 -113t-113.5 -47q-66 0 -113 47t-47 113z" />
<glyph unicode="@" horiz-adv-x="2181" d="M102 442v209q0 203 54.5 357.5t156 260t249 160t331.5 54.5h395q184 0 331.5 -54.5t249 -160t156 -260t54.5 -357.5v-159q0 -104 -19.5 -193.5t-67.5 -156t-128 -104.5t-199 -38h-121q-86 0 -144.5 30.5t-84.5 75.5q-53 -63 -125 -89.5t-189 -26.5q-178 0 -272 94 q-43 45 -65.5 106.5t-22.5 133.5q0 63 22.5 119.5t67.5 98.5t113.5 66.5t161.5 24.5h251v53q0 88 -46 128t-152 40q-39 0 -67.5 -5t-52.5 -15.5t-44.5 -26.5t-40.5 -41l-170 166q78 86 165 116.5t220 30.5q225 0 340 -94t115 -283v-387q0 -47 31.5 -70.5t70.5 -23.5h29 q45 0 76.5 10.5t52 36t29 68.5t8.5 110v213q0 305 -132.5 453t-388.5 148h-419q-256 0 -388.5 -147.5t-132.5 -453.5v-225q0 -305 132.5 -452.5t388.5 -147.5h419v-225h-407q-184 0 -331.5 54t-249 160.5t-156 261t-54.5 357.5zM897 330q0 -55 38 -89t116 -34q55 0 94 8 t74 43q39 37 38 135v58h-210q-72 0 -111 -32t-39 -89z" />
<glyph unicode="A" horiz-adv-x="1228" d="M-29 0l531 1458h223l532 -1458h-296l-87 258h-518l-88 -258h-297zM436 498h363l-178 530z" />
<glyph unicode="B" horiz-adv-x="1236" d="M117 0v1458h585q215 0 333 -110.5t118 -298.5q0 -61 -17.5 -110.5t-45 -87.5t-59.5 -64.5t-58 -38.5q33 -16 68.5 -42t64.5 -65t48.5 -93t19.5 -128q0 -102 -33 -180t-92.5 -131.5t-141.5 -81t-180 -27.5h-610zM401 254h297q98 0 144.5 53t46.5 127t-46 126t-145 52h-297 v-358zM401 868h279q92 0 140 46.5t48 121.5q0 76 -48 122t-140 46h-279v-336z" />
<glyph unicode="C" horiz-adv-x="1214" d="M94 729q0 94 2 176t14.5 153.5t42 134t85.5 118.5q78 78 175 118.5t218 40.5q102 0 191 -28.5t160 -87t119 -144.5t66 -200h-288q-23 88 -80.5 147.5t-165.5 59.5q-59 0 -105.5 -20.5t-76.5 -55.5q-20 -23 -35 -50.5t-23 -72.5t-11 -114.5t-3 -174.5q0 -104 3 -174 t11 -115t22.5 -72.5t35.5 -50.5q31 -35 76.5 -55t105.5 -20q109 0 166 59t80 148h288q-18 -115 -66 -201t-119 -144.5t-161 -87t-190 -28.5q-121 0 -218.5 41t-174.5 118q-55 55 -85 118t-42.5 134.5t-14.5 153.5t-2 176z" />
<glyph unicode="D" horiz-adv-x="1259" d="M117 0v1458h526q115 0 214 -33.5t171 -105.5q61 -61 92 -129t43.5 -141.5t12.5 -153.5v-160v-164q0 -80 -12.5 -155.5t-43 -145t-92.5 -131.5q-72 -72 -171 -105.5t-214 -33.5h-526zM401 254h215q74 0 125.5 22.5t87.5 67.5q39 49 50.5 137t11.5 254q0 82 -2 142.5 t-8.5 105.5t-18.5 76t-33 55q-37 45 -88 67.5t-125 22.5h-215v-950z" />
<glyph unicode="E" horiz-adv-x="1126" d="M117 0v1458h960v-254h-676v-342h576v-254h-576v-354h676v-254h-960z" />
<glyph unicode="F" horiz-adv-x="1091" d="M117 0v1458h960v-254h-676v-358h576v-254h-576v-592h-284z" />
<glyph unicode="G" horiz-adv-x="1273" d="M94 729q0 94 2 176t14.5 153.5t42 134t85.5 118.5q78 78 174 118.5t219 40.5q127 0 223 -38.5t163.5 -103t107.5 -148.5t55 -176h-287q-25 104 -88.5 158.5t-173.5 54.5q-59 0 -105.5 -21.5t-76.5 -56.5q-20 -23 -34 -50.5t-22 -72.5t-11 -113.5t-3 -173.5q0 -104 3 -174 t11 -115t21.5 -72.5t34.5 -50.5q31 -35 76.5 -55t105.5 -20q66 0 117 21.5t86 60.5q35 41 50 89t15 105v55h-268v238h551v-213q0 -158 -32 -261.5t-108 -182.5q-88 -92 -191 -129t-220 -37q-121 0 -218.5 41t-174.5 118q-55 55 -85 118t-42.5 134.5t-14.5 153.5t-2 176z" />
<glyph unicode="H" horiz-adv-x="1296" d="M117 0v1458h284v-596h494v596h285v-1458h-285v610h-494v-610h-284z" />
<glyph unicode="I" horiz-adv-x="530" d="M123 0v1458h285v-1458h-285z" />
<glyph unicode="J" horiz-adv-x="1003" d="M6 137l189 187q35 -35 74.5 -58.5t111.5 -23.5q104 0 166.5 61.5t62.5 188.5v966h285v-979q0 -121 -42 -213t-113.5 -153.5t-165 -93t-193.5 -31.5q-119 0 -206 33.5t-169 115.5z" />
<glyph unicode="K" horiz-adv-x="1296" d="M117 0v1458h284v-635l514 635h347l-484 -579l518 -879h-331l-375 664l-189 -226v-438h-284z" />
<glyph unicode="L" horiz-adv-x="1062" d="M117 0v1458h284v-1204h662v-254h-946z" />
<glyph unicode="M" horiz-adv-x="1554" d="M117 0v1458h280l381 -788l379 788h281v-1458h-285v850l-279 -553h-192l-281 553v-850h-284z" />
<glyph unicode="N" horiz-adv-x="1349" d="M117 0v1458h254l577 -893v893h285v-1458h-254l-578 895v-895h-284z" />
<glyph unicode="O" horiz-adv-x="1265" d="M94 729q0 94 2 176t14.5 153.5t42 134t85.5 118.5q78 78 174 118.5t221 40.5t220 -40.5t173 -118.5q55 -55 85 -118t43 -134.5t15 -153.5t2 -176t-2 -176t-15 -153.5t-43 -134t-85 -118.5q-78 -78 -173 -118.5t-220 -40.5t-221.5 41t-173.5 118q-55 55 -85 118 t-42.5 134.5t-14.5 153.5t-2 176zM379 729q0 -104 3 -173t11 -114t21.5 -72.5t34.5 -50.5q31 -35 77.5 -56t106.5 -21q59 0 105 21.5t77 55.5q20 23 34.5 50.5t23 72.5t11.5 114t3 173t-3 173t-11.5 114t-22.5 72.5t-35 50.5q-31 35 -77 56.5t-105 21.5t-106.5 -21.5 t-77.5 -56.5q-20 -23 -34 -50.5t-22 -72.5t-11 -114t-3 -173z" />
<glyph unicode="P" horiz-adv-x="1218" d="M117 0v1458h565q113 0 202 -36t151.5 -98t95 -145t32.5 -175t-32.5 -175.5t-95 -145.5t-151.5 -98t-202 -36h-281v-549h-284zM401 805h267q98 0 154.5 54t56.5 145q0 90 -56.5 145t-154.5 55h-267v-399z" />
<glyph unicode="Q" horiz-adv-x="1263" d="M94 729q0 94 2 176t14.5 153.5t42 134t85.5 118.5q78 78 174 118.5t221 40.5t220 -40.5t173 -118.5q55 -55 85 -118t43 -134.5t15 -153.5t2 -176q0 -82 -1 -153.5t-9 -135t-26.5 -120t-53.5 -107.5l125 -125l-149 -149l-129 129q-123 -80 -295 -80q-125 0 -221.5 41 t-173.5 118q-55 55 -85 118t-42.5 134.5t-14.5 153.5t-2 176zM379 729q0 -104 3 -173t11 -114t21.5 -72.5t34.5 -50.5q31 -35 77.5 -56t106.5 -21q55 0 94 26l-127 125l152 150l108 -109q16 47 21.5 115.5t5.5 179.5q0 104 -3 173t-11.5 114t-22.5 72.5t-35 50.5 q-31 35 -77 56.5t-105 21.5t-106.5 -21.5t-77.5 -56.5q-20 -23 -34 -50.5t-22 -72.5t-11 -114t-3 -173z" />
<glyph unicode="R" horiz-adv-x="1243" d="M117 0v1458h571q111 0 199 -36t149.5 -96t93 -141t31.5 -173q0 -78 -21.5 -139.5t-58.5 -109.5t-85 -82t-101 -52l326 -629h-330l-285 582h-205v-582h-284zM401 819h269q94 0 150.5 53.5t56.5 139.5t-56.5 139t-150.5 53h-269v-385z" />
<glyph unicode="S" horiz-adv-x="1138" d="M8 180l185 185q70 -70 159.5 -96.5t192.5 -26.5q127 0 192.5 46t65.5 134q0 80 -45 123q-23 20 -50.5 31.5t-78.5 19.5l-176 25q-186 27 -283 120q-104 104 -104 287q0 98 34.5 179t100 139.5t160 91t212.5 32.5q152 0 264.5 -38.5t206.5 -131.5l-180 -178 q-70 66 -148.5 83.5t-150.5 17.5q-115 0 -170 -54.5t-55 -130.5q0 -29 10 -55.5t33 -48.5q23 -20 56.5 -35.5t78.5 -21.5l172 -25q100 -14 166 -42t113 -71q59 -55 85.5 -133t26.5 -176q0 -106 -42 -188t-114.5 -138.5t-171 -86t-212.5 -29.5q-166 0 -296.5 41.5 t-236.5 150.5z" />
<glyph unicode="T" horiz-adv-x="1083" d="M18 1204v254h1047v-254h-381v-1204h-285v1204h-381z" />
<glyph unicode="U" horiz-adv-x="1282" d="M104 500v958h285v-948q0 -127 67.5 -197.5t184.5 -70.5t185.5 70.5t68.5 197.5v948h283v-958q0 -117 -42 -211t-115 -161t-170 -103.5t-210 -36.5t-210 36.5t-170 103.5t-115 161t-42 211z" />
<glyph unicode="V" horiz-adv-x="1189" d="M6 1458h295l293 -950l293 950h297l-484 -1458h-213z" />
<glyph unicode="W" horiz-adv-x="1816" d="M12 1458h297l226 -919l266 919h213l266 -919l227 919h297l-391 -1458h-237l-269 885l-268 -885h-238z" />
<glyph unicode="X" horiz-adv-x="1234" d="M10 0l453 748l-424 710h323l254 -471l256 471h322l-424 -710l455 -748h-326l-283 508l-280 -508h-326z" />
<glyph unicode="Y" horiz-adv-x="1171" d="M6 1458h309l273 -588l268 588h309l-438 -860v-598h-283v598z" />
<glyph unicode="Z" horiz-adv-x="1054" d="M41 0v229l623 975h-596v254h931v-225l-624 -979h624v-254h-958z" />
<glyph unicode="[" horiz-adv-x="727" d="M143 -152v1762h527v-240h-260v-1282h260v-240h-527z" />
<glyph unicode="\" horiz-adv-x="776" d="M-25 1583h250l576 -1735h-250z" />
<glyph unicode="]" horiz-adv-x="727" d="M57 86h260v1286h-260v238h527v-1762h-527v238z" />
<glyph unicode="^" horiz-adv-x="1159" d="M92 797l365 676h245l365 -676h-279l-208 385l-209 -385h-279z" />
<glyph unicode="_" horiz-adv-x="1159" d="M-37 -186h1233v-179h-1233v179z" />
<glyph unicode="`" horiz-adv-x="411" d="M0 1585h281l131 -348h-179z" />
<glyph unicode="a" d="M70 324q0 63 22.5 119.5t67.5 98.5t113.5 66.5t160.5 24.5h252v53q0 88 -46 128t-153 40q-39 0 -67.5 -5t-52 -15.5t-44 -26.5t-40.5 -41l-170 166q78 86 165 116.5t220 30.5q225 0 339.5 -94t114.5 -283v-702h-260v92q-53 -53 -111.5 -77.5t-150.5 -24.5q-178 0 -272 94 q-43 45 -65.5 106.5t-22.5 133.5zM326 330q0 -55 37.5 -89t115.5 -34q55 0 94 8t74 43q39 37 39 135v58h-211q-72 0 -110.5 -32t-38.5 -89z" />
<glyph unicode="b" horiz-adv-x="1085" d="M104 0v1458h267v-485q53 59 114.5 82.5t143.5 23.5q78 0 146.5 -25.5t113.5 -70.5q39 -41 61.5 -93t32.5 -111.5t12 -122t2 -121.5t-2 -123t-12 -123.5t-32.5 -112.5t-61.5 -92q-45 -45 -113.5 -70.5t-146.5 -25.5q-86 0 -148.5 25.5t-118.5 86.5v-100h-258zM371 535 q0 -66 6 -122.5t24.5 -97.5t54.5 -64.5t95 -23.5t95 23.5t54.5 64.5t24.5 97.5t6 122.5t-6 121t-24.5 96t-54.5 64.5t-95 23.5t-95 -23.5t-54.5 -64.5t-24.5 -96t-6 -121z" />
<glyph unicode="c" horiz-adv-x="921" d="M76 535q0 162 45 267t113.5 166.5t153.5 86t165 24.5q111 0 196 -34.5t156 -108.5l-180 -180q-41 45 -80 64.5t-92 19.5q-94 0 -152 -70q-31 -39 -45 -94t-14 -141q0 -164 59 -238q57 -70 152 -70q53 0 92 19.5t80 64.5l180 -178q-72 -74 -156.5 -109.5t-195.5 -35.5 q-80 0 -165 24.5t-153.5 87t-113.5 168t-45 267.5z" />
<glyph unicode="d" horiz-adv-x="1087" d="M88 535q0 59 2 121.5t12.5 122t32 111.5t62.5 93q45 45 113.5 70.5t146.5 25.5q82 0 144.5 -23.5t115.5 -82.5v485h266v-1458h-260v100q-55 -61 -116.5 -86.5t-147.5 -25.5q-78 0 -147.5 25.5t-114.5 70.5q-41 39 -62.5 92t-32 112.5t-12.5 123.5t-2 123zM354 535 q0 -66 6.5 -122.5t24.5 -97.5t54 -64.5t96 -23.5q59 0 95 23.5t55.5 64.5t25.5 97.5t6 122.5t-6 121t-25.5 96t-55.5 64.5t-95 23.5t-95.5 -23.5t-54.5 -64.5t-24.5 -96t-6.5 -121z" />
<glyph unicode="e" horiz-adv-x="1062" d="M76 535q0 131 33.5 232t95 171t146.5 105.5t190 35.5q111 0 197.5 -39t146 -106.5t90.5 -160.5t31 -204v-118h-668q0 -104 60.5 -171t172.5 -67q88 0 139.5 24.5t102.5 75.5l162 -157q-41 -41 -82 -72t-89 -52.5t-105.5 -32.5t-129.5 -11q-94 0 -183 24.5t-157.5 87 t-110.5 168t-42 267.5zM338 633h405q-2 35 -7 60.5t-17 54.5q-23 47 -67 78.5t-111 31.5q-68 0 -112 -31.5t-67 -78.5q-12 -29 -17 -54.5t-7 -60.5z" />
<glyph unicode="f" horiz-adv-x="649" d="M27 834v202h110v133q0 57 18.5 111.5t56.5 97.5t96.5 70t140.5 27h151v-226h-104q-92 0 -93 -96v-117h197v-202h-197v-834h-266v834h-110z" />
<glyph unicode="g" horiz-adv-x="1075" d="M88 563q0 70 3 130.5t13.5 112.5t33 97t59.5 82q45 45 111.5 69.5t144.5 24.5q86 0 145 -25.5t115 -86.5v100h258v-1028q0 -96 -33 -177t-94.5 -140.5t-148.5 -92t-193 -32.5q-123 0 -213 29.5t-174 109.5l166 168q45 -43 93 -62.5t115 -19.5q59 0 100.5 19.5t67 50 t37 70.5t11.5 81v109q-53 -59 -115 -83t-139 -24q-78 0 -143.5 24.5t-110.5 69.5q-37 37 -59.5 82t-33 97.5t-13.5 113.5t-3 131zM354 563q0 -53 5.5 -103t22.5 -89t52 -62.5t94 -23.5t94 23.5t53.5 62.5t24 89t5.5 103t-5.5 103.5t-24 88.5t-53 61.5t-94.5 23.5 q-59 0 -94 -23.5t-52 -61.5t-22.5 -88.5t-5.5 -103.5z" />
<glyph unicode="h" horiz-adv-x="1087" d="M109 0v1458h266v-489q53 55 118.5 82.5t137.5 27.5q88 0 154.5 -28.5t111.5 -80.5t67.5 -124t22.5 -156v-690h-266v651q0 53 -15.5 89t-40 58.5t-56 32t-62.5 9.5t-61.5 -10.5t-55 -32t-40 -58.5t-15.5 -88v-651h-266z" />
<glyph unicode="i" horiz-adv-x="505" d="M86 1368q0 70 49 118t119 48t118 -48t48 -118t-48 -119t-118 -49t-119 49t-49 119zM121 0v1067h266v-1067h-266z" />
<glyph unicode="j" horiz-adv-x="505" d="M-76 -174h103q51 0 72.5 24.5t21.5 71.5v1145h266v-1161q0 -57 -17.5 -111.5t-55.5 -97.5t-97 -69.5t-141 -26.5h-152v225zM86 1368q0 70 49 118t119 48t118 -48t48 -118t-48 -119t-118 -49t-119 49t-49 119z" />
<glyph unicode="k" horiz-adv-x="1085" d="M104 0v1458h267v-827l354 436h322l-381 -430l409 -637h-330l-262 444l-112 -127v-317h-267z" />
<glyph unicode="l" horiz-adv-x="583" d="M100 305v1153h267v-1136q0 -47 21.5 -72t72.5 -25h102v-225h-151q-82 0 -141.5 26.5t-97.5 69.5t-55.5 97.5t-17.5 111.5z" />
<glyph unicode="m" horiz-adv-x="1712" d="M104 0v1067h261v-98q53 53 122.5 81.5t143.5 28.5q90 0 160.5 -32.5t121.5 -102.5q68 72 144 103.5t176 31.5q80 0 148.5 -24.5t113.5 -69.5q66 -66 91.5 -140.5t25.5 -162.5v-682h-266v645q0 55 -15.5 92t-41 59.5t-57.5 33t-63 10.5t-62.5 -10.5t-57 -32t-42 -58.5 t-16.5 -88v-651h-266v645q0 55 -15.5 92t-41 59.5t-57 33t-62.5 10.5t-62.5 -10.5t-57.5 -33t-42 -59.5t-16 -92v-645h-267z" />
<glyph unicode="n" horiz-adv-x="1095" d="M109 0v1067h260v-98q53 55 122.5 82.5t143.5 27.5q80 0 143.5 -24.5t108.5 -69.5q66 -66 87 -140.5t21 -162.5v-682h-266v645q0 55 -15.5 92t-41 59.5t-57 33t-62.5 10.5t-62.5 -10.5t-57 -33t-42 -59.5t-16.5 -92v-645h-266z" />
<glyph unicode="o" horiz-adv-x="1071" d="M84 535q0 145 24.5 241t96.5 172q49 53 130 92t200 39t200.5 -39t130.5 -92q72 -76 96.5 -172t24.5 -241t-24.5 -242.5t-96.5 -173.5q-49 -53 -131 -92t-200 -39q-119 0 -200 39t-130 92q-72 76 -96.5 173.5t-24.5 242.5zM350 535q0 -84 10.5 -152t51.5 -109 q47 -47 123 -47q78 0 124 47q41 41 51.5 109t10.5 152t-10.5 150.5t-51.5 107.5q-47 47 -124 47q-76 0 -123 -47q-41 -41 -51.5 -107.5t-10.5 -150.5z" />
<glyph unicode="p" horiz-adv-x="1085" d="M104 -391v1458h258v-100q55 61 118 86.5t149 25.5q78 0 146.5 -25.5t113.5 -70.5q39 -41 61.5 -93t32.5 -111.5t12 -122t2 -121.5t-2 -123t-12 -123.5t-32.5 -112.5t-61.5 -92q-45 -45 -113.5 -70.5t-146.5 -25.5q-82 0 -143.5 23.5t-114.5 82.5v-485h-267zM371 535 q0 -66 6 -122.5t24.5 -97.5t54.5 -64.5t95 -23.5t95 23.5t54.5 64.5t24.5 97.5t6 122.5t-6 121t-24.5 96t-54.5 64.5t-95 23.5t-95 -23.5t-54.5 -64.5t-24.5 -96t-6 -121z" />
<glyph unicode="q" horiz-adv-x="1087" d="M88 535q0 59 2 121.5t12.5 122t32 111.5t62.5 93q45 45 114.5 70.5t147.5 25.5q86 0 147.5 -25.5t116.5 -86.5v100h260v-1458h-266v485q-53 -59 -115.5 -82.5t-144.5 -23.5q-78 0 -146.5 25.5t-113.5 70.5q-41 39 -62.5 92t-32 112.5t-12.5 123.5t-2 123zM354 535 q0 -66 6.5 -122.5t24.5 -97.5t54 -64.5t96 -23.5q59 0 95 23.5t55.5 64.5t25.5 97.5t6 122.5t-6 121t-25.5 96t-55.5 64.5t-95 23.5t-95.5 -23.5t-54.5 -64.5t-24.5 -96t-6.5 -121z" />
<glyph unicode="r" horiz-adv-x="874" d="M115 0v1067h260v-102q39 47 110.5 80.5t157.5 33.5q78 0 137.5 -22.5t114.5 -77.5l-201 -203q-31 31 -61.5 47.5t-79.5 16.5q-31 0 -61.5 -11.5t-55 -36t-40 -61.5t-15.5 -88v-643h-266z" />
<glyph unicode="s" horiz-adv-x="956" d="M8 141l174 174q66 -66 145 -83t140 -17q35 0 68.5 6t60.5 19.5t43 34t16 51.5q0 41 -24.5 66.5t-87.5 31.5l-168 16q-145 14 -228.5 83t-83.5 216q0 82 34 145.5t90.5 106.5t131 65.5t156.5 22.5q125 0 227.5 -26.5t180.5 -98.5l-164 -166q-47 41 -112.5 56.5 t-135.5 15.5q-80 0 -116 -30.5t-36 -71.5q0 -14 4.5 -29.5t16.5 -28t33.5 -22.5t56.5 -12l168 -17q160 -16 238.5 -97t78.5 -216q0 -88 -34.5 -153.5t-96 -108.5t-144.5 -64.5t-177 -21.5q-63 0 -122.5 5t-117 21.5t-111 46t-104.5 80.5z" />
<glyph unicode="t" horiz-adv-x="669" d="M37 834v202h113v316h266v-316h188v-202h-188v-512q0 -96 92 -97h96v-225h-145q-82 0 -140.5 26.5t-96.5 69.5t-55 97.5t-17 111.5v529h-113z" />
<glyph unicode="u" horiz-adv-x="1095" d="M100 385v682h267v-645q0 -55 15 -92t41 -59.5t57.5 -33t62.5 -10.5t62.5 10.5t57 33t42 59.5t16.5 92v645h266v-1067h-260v98q-53 -55 -122.5 -82.5t-143.5 -27.5q-80 0 -143.5 24.5t-108.5 69.5q-66 66 -87.5 140.5t-21.5 162.5z" />
<glyph unicode="v" horiz-adv-x="964" d="M-14 1067h280l217 -659l215 659h281l-391 -1067h-209z" />
<glyph unicode="w" horiz-adv-x="1525" d="M-6 1067h282l173 -659l217 659h194l219 -659l172 659h281l-326 -1067h-219l-223 670l-223 -670h-219z" />
<glyph unicode="x" horiz-adv-x="1017" d="M-6 0l368 545l-354 522h320l180 -305l182 305h320l-355 -522l369 -545h-319l-197 319l-195 -319h-319z" />
<glyph unicode="y" horiz-adv-x="966" d="M-14 1067h280l221 -659l213 659h281l-457 -1239q-35 -92 -80 -137q-47 -47 -105 -64.5t-124 -17.5h-104v239h61q57 0 85 18.5t48 78.5l45 131z" />
<glyph unicode="z" horiz-adv-x="892" d="M37 0v203l473 624h-447v240h787v-203l-479 -624h479v-240h-813z" />
<glyph unicode="{" horiz-adv-x="880" d="M47 610v238h94q37 0 63.5 11t43.5 28q35 35 35 123v297q0 141 86 227q37 37 93 56.5t136 19.5h209v-240h-109q-47 0 -73.5 -6t-42.5 -23q-16 -18 -24.5 -47.5t-8.5 -83.5v-276q0 -55 -14.5 -91t-36 -58.5t-46 -35t-44.5 -20.5q20 -8 44.5 -20.5t46 -35t36 -58t14.5 -91.5 v-276q0 -53 8 -83t25 -48q16 -16 42.5 -22.5t73.5 -6.5h109v-240h-209q-80 0 -136 19.5t-93 56.5q-86 86 -86 228v297q0 88 -35 122q-16 16 -43 27.5t-64 11.5h-94z" />
<glyph unicode="|" horiz-adv-x="671" d="M203 -152v1762h266v-1762h-266z" />
<glyph unicode="}" horiz-adv-x="880" d="M74 88h108q47 0 74 6t43 23q16 18 24.5 48t8.5 83v276q0 55 14 91t35.5 58.5t46.5 35t45 20.5q-20 8 -45 20.5t-46.5 35t-35.5 58.5t-14 91v276q0 53 -8.5 83t-24.5 48q-16 16 -43 22.5t-74 6.5h-108v240h209q80 0 136 -19.5t93 -56.5q86 -86 86 -227v-297q0 -88 35 -123 q16 -16 42.5 -27.5t63.5 -11.5h95v-238h-95q-37 0 -63.5 -11t-42.5 -28q-35 -35 -35 -122v-297q0 -141 -86 -228q-37 -37 -93.5 -56.5t-135.5 -19.5h-209v240z" />
<glyph unicode="~" horiz-adv-x="1167" d="M39 600q47 47 88 81t81 55.5t80 30.5t87 9q63 0 118.5 -17.5t120.5 -51.5q45 -23 83 -36.5t83 -13.5q41 0 81 14.5t97 71.5l170 -168q-47 -47 -88 -80.5t-80.5 -55t-80.5 -31t-88 -9.5q-63 0 -119 17.5t-121 52.5q-45 23 -84 36t-84 13q-41 0 -80 -14.5t-96 -71.5z" />
<glyph unicode="&#xa1;" horiz-adv-x="583" d="M127 -391l66 1001h196l68 -1001h-330zM131 913q0 66 47 113t113 47t114 -47t48 -113t-48.5 -113.5t-113.5 -47.5q-66 0 -113 47.5t-47 113.5z" />
<glyph unicode="&#xa2;" horiz-adv-x="960" d="M55 750q0 119 29 211t80 158.5t120.5 107.5t149.5 57v174h207v-174q86 -16 152.5 -54t126.5 -100l-177 -172q-31 33 -60.5 53.5t-70.5 30.5v-585q41 10 71 30.5t60 53.5l177 -172q-59 -61 -126 -99.5t-153 -54.5v-215h-207v215q-80 16 -149.5 57t-120.5 107.5t-80 159 t-29 211.5zM322 750q0 -86 16 -141.5t47 -94.5q31 -41 78 -53v577q-43 -12 -78 -53q-31 -39 -47 -94t-16 -141z" />
<glyph unicode="&#xa3;" horiz-adv-x="1114" d="M51 608v205h125v166q0 121 42 213t113.5 153.5t164 93t194.5 31.5q119 0 205 -33.5t168 -115.5l-186 -186q-35 35 -75 58.5t-112 23.5q-104 0 -167.5 -61.5t-63.5 -188.5v-154h231v-205h-231v-354h604v-254h-887v608h-125z" />
<glyph unicode="&#xa4;" horiz-adv-x="1144" d="M31 485v170h149v140h-149v170h157q6 117 46 210t109 159.5t162 101t208 34.5q102 0 196.5 -35.5t165.5 -113.5l-172 -184q-35 35 -83 59.5t-115 24.5q-61 0 -103.5 -21.5t-68 -57.5t-39 -82t-15.5 -95h320v-170h-332v-140h332v-170h-322q10 -106 74.5 -174.5t181.5 -68.5 q59 0 107.5 20.5t83.5 54.5l159 -184q-74 -70 -157.5 -107.5t-206.5 -37.5q-117 0 -212 34.5t-165 99t-109.5 157t-44.5 206.5h-157z" />
<glyph unicode="&#xa5;" horiz-adv-x="1234" d="M39 1458h309l270 -590l271 590h307l-278 -553h151v-205h-256l-53 -102v-104h309v-205h-309v-289h-283v289h-311v205h311v104l-53 102h-258v205h153z" />
<glyph unicode="&#xa6;" horiz-adv-x="679" d="M207 -152v717h266v-717h-266zM207 893v717h266v-717h-266z" />
<glyph unicode="&#xa7;" horiz-adv-x="1021" d="M90 543q0 57 17.5 105t45 87t60.5 67.5t63 45.5q-66 35 -110.5 95.5t-44.5 172.5q0 70 23.5 133.5t72.5 112.5t123 78.5t174 29.5t174 -27.5t122 -74.5t72.5 -111.5t24.5 -138.5h-250q-4 68 -44 96.5t-99 28.5q-72 0 -107.5 -33.5t-35.5 -87.5q0 -90 137 -135l127 -41 q147 -47 223 -135t76 -250q0 -57 -18.5 -105t-46 -87t-59.5 -68t-60 -45q68 -35 116.5 -100.5t48.5 -184.5q0 -94 -34.5 -164.5t-92 -116.5t-130 -69.5t-148.5 -23.5q-74 0 -146.5 20.5t-130 64.5t-93.5 112.5t-38 166.5h256q4 -57 43 -93t109 -36q72 0 110.5 36t38.5 95 q0 41 -29.5 82t-113.5 70l-127 43q-74 25 -130 57.5t-93 78.5t-56.5 106.5t-19.5 142.5zM346 551q0 -55 15.5 -87t33.5 -50t48 -30.5t69 -12.5t67.5 12t47.5 31q18 18 34.5 50t16.5 87q0 53 -14.5 85t-36.5 54q-20 18 -48 30.5t-67 12.5t-68.5 -12t-48.5 -31 q-23 -23 -36 -54.5t-13 -84.5z" />
<glyph unicode="&#xa8;" horiz-adv-x="737" d="M0 1366q0 57 40 97t97 40t97 -40t40 -97t-39.5 -97t-97.5 -40q-57 0 -97 40t-40 97zM463 1366q0 57 40 97t97 40t97 -40t40 -97t-40 -97t-97 -40t-97 40t-40 97z" />
<glyph unicode="&#xa9;" horiz-adv-x="1622" d="M70 729q0 154 58 289t158.5 235.5t235.5 158.5t289 58t289 -58t235.5 -158.5t158.5 -235.5t58 -289t-58 -289t-158.5 -235.5t-235.5 -158.5t-289 -58t-289 58t-235.5 158.5t-158.5 235.5t-58 289zM246 729q0 -123 44 -228.5t119.5 -182t179 -120.5t222.5 -44t222.5 44 t179 120.5t118.5 182t43 228.5t-43 228.5t-118.5 182.5t-179 121t-222.5 44t-222.5 -44t-179 -121t-119.5 -182.5t-44 -228.5zM459 729q0 98 28.5 174t77.5 126t116 77t144 27q86 0 148.5 -29t122.5 -80l-115 -115q-41 35 -75 50.5t-81 15.5q-98 0 -145 -66.5t-47 -179.5 t47 -179.5t145 -66.5q47 0 81 15.5t75 50.5l115 -115q-57 -51 -121 -78.5t-150 -27.5q-78 0 -144.5 25.5t-115.5 76.5t-77.5 126t-28.5 173z" />
<glyph unicode="&#xaa;" horiz-adv-x="874" d="M76 864q0 51 17.5 96.5t53 79t91 53t129.5 19.5h198v41q0 70 -35.5 101.5t-121.5 31.5q-59 0 -93 -15.5t-69 -53.5l-137 133q63 70 132.5 94t176.5 24q180 0 271 -75.5t91 -225.5v-561h-211v74q-43 -43 -88 -62.5t-119 -19.5q-141 0 -215 78q-71 71 -71 188zM285 870 q0 -43 28.5 -68.5t87.5 -25.5q45 0 76 7.5t58 31.5q31 29 30 105v47h-166q-57 0 -85.5 -27t-28.5 -70z" />
<glyph unicode="&#xab;" horiz-adv-x="1208" d="M29 563l510 508v-317l-193 -191l193 -190v-318zM598 563l512 508v-317l-197 -191l197 -190v-318z" />
<glyph unicode="&#xac;" horiz-adv-x="1699" d="M51 1081v217l185 160h194v-874h-194v657zM346 0l690 1458h207l-690 -1458h-207zM1094 0v174l319 350q25 27 36 47.5t11 49.5q0 41 -23.5 64.5t-64.5 23.5q-31 0 -57.5 -18.5t-26.5 -72.5h-194q0 63 21.5 112.5t59 83.5t89 51.5t108.5 17.5q121 0 200 -70t79 -192 q0 -68 -28 -113t-79 -100l-215 -234h322v-174h-557z" />
<glyph unicode="&#xad;" horiz-adv-x="819" d="M94 461v248h631v-248h-631z" />
<glyph unicode="&#xae;" horiz-adv-x="1622" d="M70 729q0 154 58 289t158.5 235.5t235.5 158.5t289 58t289 -58t235.5 -158.5t158.5 -235.5t58 -289t-58 -289t-158.5 -235.5t-235.5 -158.5t-289 -58t-289 58t-235.5 158.5t-158.5 235.5t-58 289zM246 729q0 -123 43 -228.5t119.5 -182t179 -120.5t223.5 -44 q119 0 222.5 44t180 120.5t119.5 182t43 228.5t-43 228.5t-119.5 182.5t-180 121t-222.5 44q-121 0 -223.5 -44t-179 -121t-119.5 -182.5t-43 -228.5zM541 336v788h321q59 0 108.5 -20.5t83 -54t52 -78.5t18.5 -94q0 -82 -44 -134.5t-101 -74.5l166 -332h-201l-143 305h-84 v-305h-176zM717 774h123q49 0 78.5 31t29.5 72t-29.5 71.5t-78.5 30.5h-123v-205z" />
<glyph unicode="&#xaf;" horiz-adv-x="962" d="M188 1290v178h648v-178h-648z" />
<glyph unicode="&#x2c9;" horiz-adv-x="962" d="M188 1290v178h648v-178h-648z" />
<glyph unicode="&#xb0;" horiz-adv-x="917" d="M82 1110q0 78 29.5 147.5t81 121t120 81t146.5 29.5t146.5 -29.5t119.5 -81t81 -121t30 -147.5t-30 -146.5t-81 -119.5t-119.5 -81t-146.5 -30t-146.5 30t-120 81t-81 119.5t-29.5 146.5zM297 1110q0 -70 47 -117t115 -47t115 47t47 117t-48.5 117t-115.5 47 q-68 0 -114 -47t-46 -117z" />
<glyph unicode="&#xb1;" horiz-adv-x="1042" d="M68 0v250h907v-250h-907zM68 698v248h329v330h250v-330h328v-248h-328v-329h-250v329h-329z" />
<glyph unicode="&#xb2;" horiz-adv-x="690" d="M88 584v174l320 350q25 27 35 47.5t10 48.5q0 41 -22.5 64.5t-63.5 23.5q-31 0 -58.5 -18.5t-27.5 -71.5h-193q0 63 21.5 112.5t59.5 83.5t89 51t109 17q121 0 199.5 -69.5t78.5 -192.5q0 -68 -27.5 -112.5t-78.5 -100.5l-215 -233h321v-174h-557z" />
<glyph unicode="&#xb3;" horiz-adv-x="749" d="M88 846h193q0 -49 27.5 -73.5t68.5 -24.5q43 0 69.5 26.5t26.5 75.5q0 43 -26.5 70.5t-73.5 27.5h-27v166h27q47 0 68.5 27.5t21.5 60.5q0 45 -25.5 67.5t-60.5 22.5t-60.5 -22.5t-25.5 -63.5h-193q0 61 21.5 109.5t59.5 82.5t89 51t109 17q59 0 110.5 -19.5t88 -53 t58 -80.5t21.5 -105q0 -72 -28.5 -110.5t-63.5 -61.5q39 -25 71 -69.5t32 -122.5q0 -68 -24 -119t-63.5 -84t-92 -49.5t-109.5 -16.5q-55 0 -106.5 15.5t-92.5 48.5t-65.5 84t-24.5 123z" />
<glyph unicode="&#xb4;" horiz-adv-x="411" d="M0 1237l131 348h281l-234 -348h-178z" />
<glyph unicode="&#xb5;" horiz-adv-x="1046" d="M68 297l288 289l-288 288l168 168l286 -288l289 288l168 -168l-289 -288l289 -289l-168 -168l-289 289l-286 -289z" />
<glyph unicode="&#x3bc;" horiz-adv-x="1046" d="M68 297l288 289l-288 288l168 168l286 -288l289 288l168 -168l-289 -288l289 -289l-168 -168l-289 289l-286 -289z" />
<glyph unicode="&#xb6;" horiz-adv-x="1286" d="M88 1042q0 100 34 178t96.5 130.5t149.5 80t193 27.5h653v-1849h-266v1595h-205v-1595h-266v1022q-78 0 -147.5 32.5t-123.5 88t-86 130t-32 160.5z" />
<glyph unicode="&#xb7;" horiz-adv-x="567" d="M104 582q0 74 52.5 127t126.5 53q37 0 69.5 -14.5t57 -39t39 -57.5t14.5 -69q0 -74 -53.5 -126.5t-126.5 -52.5q-74 0 -126.5 52.5t-52.5 126.5z" />
<glyph unicode="&#x22c5;" horiz-adv-x="567" d="M104 582q0 74 52.5 127t126.5 53q37 0 69.5 -14.5t57 -39t39 -57.5t14.5 -69q0 -74 -53.5 -126.5t-126.5 -52.5q-74 0 -126.5 52.5t-52.5 126.5z" />
<glyph unicode="&#xb8;" horiz-adv-x="962" d="M328 -422l141 299h197l-91 -299h-247z" />
<glyph unicode="&#xb9;" horiz-adv-x="534" d="M51 1081v217l185 160h194v-874h-194v657z" />
<glyph unicode="&#xba;" horiz-adv-x="888" d="M84 1032q0 117 19.5 194t78.5 138q41 41 104.5 72.5t157.5 31.5t158 -31.5t105 -72.5q59 -61 78.5 -138t19.5 -194t-19.5 -192.5t-78.5 -137.5q-41 -41 -104.5 -72.5t-158.5 -31.5q-94 0 -157.5 32t-104.5 72q-59 61 -78.5 137t-19.5 193zM299 1032q0 -66 7 -119t40 -86 q37 -37 98 -36q61 0 99 36q33 33 40 86.5t7 118.5q0 66 -7.5 120t-39.5 87q-37 37 -99 37q-61 0 -98 -37q-33 -33 -40 -87t-7 -120z" />
<glyph unicode="&#xbb;" horiz-adv-x="1208" d="M98 55v318l195 190l-195 191v317l510 -508zM668 55v318l192 190l-192 191v317l512 -508z" />
<glyph unicode="&#xbc;" horiz-adv-x="1660" d="M51 1081v217l185 160h194v-874h-194v657zM354 0l690 1458h209l-690 -1458h-209zM991 117v182l293 575h211l-295 -575h152v127h184v-127h68v-182h-68v-117h-184v117h-361z" />
<glyph unicode="&#xbd;" horiz-adv-x="1740" d="M51 1081v217l185 160h194v-874h-194v657zM346 0l690 1458h207l-690 -1458h-207zM1094 0v174l319 350q25 27 36 47.5t11 49.5q0 41 -23.5 64.5t-64.5 23.5q-31 0 -57.5 -18.5t-26.5 -72.5h-194q0 63 21.5 112.5t59 83.5t89 51.5t108.5 17.5q121 0 200 -70t79 -192 q0 -68 -28 -113t-79 -100l-215 -234h322v-174h-557z" />
<glyph unicode="&#xbe;" horiz-adv-x="1746" d="M88 846h193q0 -49 27.5 -73.5t68.5 -24.5q43 0 69.5 26.5t26.5 75.5q0 43 -26.5 70.5t-73.5 27.5h-27v166h27q47 0 68.5 27.5t21.5 60.5q0 45 -25.5 67.5t-60.5 22.5t-60.5 -22.5t-25.5 -63.5h-193q0 61 21.5 109.5t59.5 82.5t89 51t109 17q59 0 110.5 -19.5t88 -53 t58 -80.5t21.5 -105q0 -72 -28.5 -110.5t-63.5 -61.5q39 -25 71 -69.5t32 -122.5q0 -68 -24 -119t-63.5 -84t-92 -49.5t-109.5 -16.5q-55 0 -106.5 15.5t-92.5 48.5t-65.5 84t-24.5 123zM446 0l691 1458h209l-691 -1458h-209zM1077 117v182l293 575h211l-295 -575h152v127 h184v-127h68v-182h-68v-117h-184v117h-361z" />
<glyph unicode="&#xbf;" horiz-adv-x="1007" d="M72 6q0 78 28.5 138.5t71.5 117.5l152 203q16 20 26 49t10 55v41h267v-61q0 -66 -18.5 -113t-59.5 -100l-152 -195q-25 -33 -42 -67.5t-17 -69.5q0 -72 43 -120t121 -48q82 0 124 50.5t42 121.5h266q0 -96 -34 -172t-93 -129t-138 -81.5t-167 -28.5q-86 0 -165 27.5 t-137.5 79.5t-93 128t-34.5 174zM332 913q0 66 48 113t114 47t112.5 -47t46.5 -113t-47 -113.5t-112 -47.5q-66 0 -114 47.5t-48 113.5z" />
<glyph unicode="&#xc0;" horiz-adv-x="1228" d="M-29 0l531 1458h223l532 -1458h-296l-87 258h-518l-88 -258h-297zM311 1948h281l131 -349h-178zM436 498h363l-178 530z" />
<glyph unicode="&#xc1;" horiz-adv-x="1228" d="M-29 0l531 1458h223l532 -1458h-296l-87 258h-518l-88 -258h-297zM436 498h363l-178 530zM498 1599l131 349h280l-233 -349h-178z" />
<glyph unicode="&#xc2;" horiz-adv-x="1228" d="M-29 0l531 1458h223l532 -1458h-296l-87 258h-518l-88 -258h-297zM233 1599l271 347h213l270 -347h-207l-170 187l-170 -187h-207zM436 498h363l-178 530z" />
<glyph unicode="&#xc3;" horiz-adv-x="1228" d="M-29 0l531 1458h223l532 -1458h-296l-87 258h-518l-88 -258h-297zM240 1763q68 68 119 94.5t110 26.5q47 0 81 -10t77 -37q31 -18 56.5 -27.5t55.5 -9.5q27 0 53.5 9.5t67.5 50.5l119 -117q-68 -68 -120 -94.5t-111 -26.5q-45 0 -80 11.5t-78 35.5q-29 16 -56.5 26.5 t-58.5 10.5q-27 0 -53.5 -9t-67.5 -50zM436 498h363l-178 530z" />
<glyph unicode="&#xc4;" horiz-adv-x="1228" d="M-29 0l531 1458h223l532 -1458h-296l-87 258h-518l-88 -258h-297zM242 1729q0 57 40 97t97 40t97 -40t40 -97t-40 -97.5t-97 -40.5t-97 40.5t-40 97.5zM436 498h363l-178 530zM705 1729q0 57 39.5 97t97.5 40q57 0 97 -40t40 -97t-40 -97.5t-97 -40.5t-97 40.5t-40 97.5z " />
<glyph unicode="&#xc5;" horiz-adv-x="1228" d="M-29 0l531 1458h223l532 -1458h-296l-87 258h-518l-88 -258h-297zM342 1810q0 55 21.5 104.5t57.5 85.5t85 57.5t104 21.5t104.5 -20.5t85.5 -57.5t57.5 -86t21.5 -105q0 -55 -21.5 -104t-57.5 -85t-85 -57.5t-105 -21.5q-55 0 -104 21.5t-85 57.5t-57.5 85t-21.5 104z M436 498h363l-178 530zM492 1810q0 -49 34.5 -84.5t83.5 -35.5t84 35.5t35 84.5t-35 84t-84 35t-83.5 -35t-34.5 -84z" />
<glyph unicode="&#xc6;" horiz-adv-x="1945" d="M6 0l762 1458h1128v-254h-675v-344h577v-254h-577v-352h675v-254h-958v319h-461l-166 -319h-305zM600 559h338v645z" />
<glyph unicode="&#xc7;" horiz-adv-x="1214" d="M94 729q0 94 2 176t14.5 153.5t42 134t85.5 118.5q78 78 175 118.5t218 40.5q102 0 191 -28.5t160 -87t119 -144.5t66 -200h-288q-23 88 -80.5 147.5t-165.5 59.5q-59 0 -105.5 -20.5t-76.5 -55.5q-20 -23 -35 -50.5t-23 -72.5t-11 -114.5t-3 -174.5q0 -104 3 -174 t11 -115t22.5 -72.5t35.5 -50.5q31 -35 76.5 -55t105.5 -20q109 0 166 59t80 148h288q-18 -115 -66 -201t-119 -144.5t-161 -87t-190 -28.5q-121 0 -218.5 41t-174.5 118q-55 55 -85 118t-42.5 134.5t-14.5 153.5t-2 176zM412 -422l141 299h197l-91 -299h-247z" />
<glyph unicode="&#xc8;" horiz-adv-x="1126" d="M117 0v1458h960v-254h-676v-342h576v-254h-576v-354h676v-254h-960zM283 1948h280l131 -349h-178z" />
<glyph unicode="&#xc9;" horiz-adv-x="1126" d="M117 0v1458h960v-254h-676v-342h576v-254h-576v-354h676v-254h-960zM467 1599l131 349h281l-234 -349h-178z" />
<glyph unicode="&#xca;" horiz-adv-x="1126" d="M117 0v1458h960v-254h-676v-342h576v-254h-576v-354h676v-254h-960zM205 1599l270 347h213l270 -347h-206l-170 187l-170 -187h-207z" />
<glyph unicode="&#xcb;" horiz-adv-x="1126" d="M117 0v1458h960v-254h-676v-342h576v-254h-576v-354h676v-254h-960zM213 1729q0 57 40 97t97 40t97 -40t40 -97t-39.5 -97.5t-97.5 -40.5q-57 0 -97 40.5t-40 97.5zM676 1729q0 57 40 97t97 40t97 -40t40 -97t-40 -97.5t-97 -40.5t-97 40.5t-40 97.5z" />
<glyph unicode="&#xcc;" horiz-adv-x="530" d="M45 1948h281l131 -349h-178zM170 0v1458h285v-1458h-285z" />
<glyph unicode="&#xcd;" horiz-adv-x="530" d="M170 0v1458h285v-1458h-285zM170 1599l131 349h281l-234 -349h-178z" />
<glyph unicode="&#xce;" horiz-adv-x="530" d="M-66 1599l271 347h213l270 -347h-207l-170 187l-170 -187h-207zM170 0v1458h285v-1458h-285z" />
<glyph unicode="&#xcf;" horiz-adv-x="530" d="M-49 1729q0 57 40 97t97 40t97 -40t40 -97t-40 -97.5t-97 -40.5t-97 40.5t-40 97.5zM170 0v1458h285v-1458h-285zM414 1729q0 57 40 97t97 40t97 -40t40 -97t-40 -97.5t-97 -40.5t-97 40.5t-40 97.5z" />
<glyph unicode="&#xd0;" horiz-adv-x="1359" d="M76 629v217h141v612h526q123 0 225.5 -43t178.5 -129q51 -59 77.5 -116.5t38 -123t12.5 -142.5t1 -175q0 -100 -1 -179t-12.5 -144.5t-38 -123t-77.5 -112.5q-72 -80 -175.5 -125t-232.5 -45h-522v629h-141zM502 252h215q82 0 137 28.5t90 79.5q14 23 24.5 45.5 t14.5 61.5t6 99.5t2 158.5q0 96 -2 157.5t-7 102.5t-15.5 66.5t-26.5 48.5q-37 53 -90 79.5t-133 26.5h-215v-360h237v-217h-237v-377z" />
<glyph unicode="&#xd1;" horiz-adv-x="1349" d="M117 0v1458h254l577 -893v893h285v-1458h-254l-578 895v-895h-284zM305 1763q68 68 119 94.5t111 26.5q47 0 80.5 -10t76.5 -37q31 -18 56.5 -27.5t56.5 -9.5q27 0 53.5 9.5t67.5 50.5l118 -117q-68 -68 -120 -94.5t-111 -26.5q-45 0 -80 11.5t-78 35.5 q-29 16 -56.5 26.5t-57.5 10.5q-27 0 -53.5 -9t-67.5 -50z" />
<glyph unicode="&#xd2;" horiz-adv-x="1265" d="M94 729q0 94 2 176t14.5 153.5t42 134t85.5 118.5q78 78 174 118.5t221 40.5t220 -40.5t173 -118.5q55 -55 85 -118t43 -134.5t15 -153.5t2 -176t-2 -176t-15 -153.5t-43 -134t-85 -118.5q-78 -78 -173 -118.5t-220 -40.5t-221.5 41t-173.5 118q-55 55 -85 118 t-42.5 134.5t-14.5 153.5t-2 176zM334 1948h280l131 -349h-178zM379 729q0 -104 3 -173t11 -114t21.5 -72.5t34.5 -50.5q31 -35 77.5 -56t106.5 -21q59 0 105 21.5t77 55.5q20 23 34.5 50.5t23 72.5t11.5 114t3 173t-3 173t-11.5 114t-22.5 72.5t-35 50.5q-31 35 -77 56.5 t-105 21.5t-106.5 -21.5t-77.5 -56.5q-20 -23 -34 -50.5t-22 -72.5t-11 -114t-3 -173z" />
<glyph unicode="&#xd3;" horiz-adv-x="1265" d="M94 729q0 94 2 176t14.5 153.5t42 134t85.5 118.5q78 78 174 118.5t221 40.5t220 -40.5t173 -118.5q55 -55 85 -118t43 -134.5t15 -153.5t2 -176t-2 -176t-15 -153.5t-43 -134t-85 -118.5q-78 -78 -173 -118.5t-220 -40.5t-221.5 41t-173.5 118q-55 55 -85 118 t-42.5 134.5t-14.5 153.5t-2 176zM379 729q0 -104 3 -173t11 -114t21.5 -72.5t34.5 -50.5q31 -35 77.5 -56t106.5 -21q59 0 105 21.5t77 55.5q20 23 34.5 50.5t23 72.5t11.5 114t3 173t-3 173t-11.5 114t-22.5 72.5t-35 50.5q-31 35 -77 56.5t-105 21.5t-106.5 -21.5 t-77.5 -56.5q-20 -23 -34 -50.5t-22 -72.5t-11 -114t-3 -173zM520 1599l131 349h281l-234 -349h-178z" />
<glyph unicode="&#xd4;" horiz-adv-x="1265" d="M94 729q0 94 2 176t14.5 153.5t42 134t85.5 118.5q78 78 174 118.5t221 40.5t220 -40.5t173 -118.5q55 -55 85 -118t43 -134.5t15 -153.5t2 -176t-2 -176t-15 -153.5t-43 -134t-85 -118.5q-78 -78 -173 -118.5t-220 -40.5t-221.5 41t-173.5 118q-55 55 -85 118 t-42.5 134.5t-14.5 153.5t-2 176zM256 1599l270 347h213l271 -347h-207l-170 187l-170 -187h-207zM379 729q0 -104 3 -173t11 -114t21.5 -72.5t34.5 -50.5q31 -35 77.5 -56t106.5 -21q59 0 105 21.5t77 55.5q20 23 34.5 50.5t23 72.5t11.5 114t3 173t-3 173t-11.5 114 t-22.5 72.5t-35 50.5q-31 35 -77 56.5t-105 21.5t-106.5 -21.5t-77.5 -56.5q-20 -23 -34 -50.5t-22 -72.5t-11 -114t-3 -173z" />
<glyph unicode="&#xd5;" horiz-adv-x="1265" d="M94 729q0 94 2 176t14.5 153.5t42 134t85.5 118.5q78 78 174 118.5t221 40.5t220 -40.5t173 -118.5q55 -55 85 -118t43 -134.5t15 -153.5t2 -176t-2 -176t-15 -153.5t-43 -134t-85 -118.5q-78 -78 -173 -118.5t-220 -40.5t-221.5 41t-173.5 118q-55 55 -85 118 t-42.5 134.5t-14.5 153.5t-2 176zM262 1763q68 68 119 94.5t111 26.5q47 0 80.5 -10t76.5 -37q31 -18 56.5 -27.5t56.5 -9.5q27 0 53.5 9.5t67.5 50.5l118 -117q-68 -68 -120 -94.5t-111 -26.5q-45 0 -80 11.5t-78 35.5q-29 16 -56.5 26.5t-57.5 10.5q-27 0 -53.5 -9 t-67.5 -50zM379 729q0 -104 3 -173t11 -114t21.5 -72.5t34.5 -50.5q31 -35 77.5 -56t106.5 -21q59 0 105 21.5t77 55.5q20 23 34.5 50.5t23 72.5t11.5 114t3 173t-3 173t-11.5 114t-22.5 72.5t-35 50.5q-31 35 -77 56.5t-105 21.5t-106.5 -21.5t-77.5 -56.5 q-20 -23 -34 -50.5t-22 -72.5t-11 -114t-3 -173z" />
<glyph unicode="&#xd6;" horiz-adv-x="1265" d="M94 729q0 94 2 176t14.5 153.5t42 134t85.5 118.5q78 78 174 118.5t221 40.5t220 -40.5t173 -118.5q55 -55 85 -118t43 -134.5t15 -153.5t2 -176t-2 -176t-15 -153.5t-43 -134t-85 -118.5q-78 -78 -173 -118.5t-220 -40.5t-221.5 41t-173.5 118q-55 55 -85 118 t-42.5 134.5t-14.5 153.5t-2 176zM264 1729q0 57 40 97t97 40t97.5 -40t40.5 -97t-40 -97.5t-98 -40.5q-57 0 -97 40.5t-40 97.5zM379 729q0 -104 3 -173t11 -114t21.5 -72.5t34.5 -50.5q31 -35 77.5 -56t106.5 -21q59 0 105 21.5t77 55.5q20 23 34.5 50.5t23 72.5t11.5 114 t3 173t-3 173t-11.5 114t-22.5 72.5t-35 50.5q-31 35 -77 56.5t-105 21.5t-106.5 -21.5t-77.5 -56.5q-20 -23 -34 -50.5t-22 -72.5t-11 -114t-3 -173zM727 1729q0 57 40 97t97 40t97 -40t40 -97t-39.5 -97.5t-97.5 -40.5q-57 0 -97 40.5t-40 97.5z" />
<glyph unicode="&#xd7;" horiz-adv-x="1046" d="M68 297l288 289l-288 288l168 168l286 -288l289 288l168 -168l-289 -288l289 -289l-168 -168l-289 289l-286 -289z" />
<glyph unicode="&#xd8;" horiz-adv-x="1265" d="M94 729q0 94 2 176t14.5 153.5t42 134t85.5 118.5q78 78 174 118.5t221 40.5q133 0 231 -45l60 123h200l-108 -227l10 -10q55 -55 85 -118t43 -134.5t15 -153.5t2 -176t-2 -176t-15 -153.5t-43 -134t-85 -118.5q-78 -78 -173 -118.5t-220 -40.5q-133 0 -232 45l-59 -123 h-203l109 227l-10 10q-55 55 -85 118t-42.5 134.5t-14.5 153.5t-2 176zM379 729q0 -121 4 -192.5t14 -116.5l365 764q-53 33 -129 33q-59 0 -106.5 -21.5t-77.5 -56.5q-20 -23 -34 -50.5t-22 -72.5t-11 -114t-3 -173zM502 276q57 -35 131 -34q59 0 105 21.5t77 55.5 q20 23 34.5 50.5t23 72.5t11.5 114t3 173q0 121 -5 192.5t-16 116.5z" />
<glyph unicode="&#xd9;" horiz-adv-x="1282" d="M104 500v958h285v-948q0 -127 67.5 -197.5t184.5 -70.5t185.5 70.5t68.5 197.5v948h283v-958q0 -117 -42 -211t-115 -161t-170 -103.5t-210 -36.5t-210 36.5t-170 103.5t-115 161t-42 211zM342 1948h281l131 -349h-179z" />
<glyph unicode="&#xda;" horiz-adv-x="1282" d="M104 500v958h285v-948q0 -127 67.5 -197.5t184.5 -70.5t185.5 70.5t68.5 197.5v948h283v-958q0 -117 -42 -211t-115 -161t-170 -103.5t-210 -36.5t-210 36.5t-170 103.5t-115 161t-42 211zM528 1599l131 349h281l-233 -349h-179z" />
<glyph unicode="&#xdb;" horiz-adv-x="1282" d="M104 500v958h285v-948q0 -127 67.5 -197.5t184.5 -70.5t185.5 70.5t68.5 197.5v948h283v-958q0 -117 -42 -211t-115 -161t-170 -103.5t-210 -36.5t-210 36.5t-170 103.5t-115 161t-42 211zM264 1599l271 347h213l270 -347h-207l-170 187l-170 -187h-207z" />
<glyph unicode="&#xdc;" horiz-adv-x="1282" d="M104 500v958h285v-948q0 -127 67.5 -197.5t184.5 -70.5t185.5 70.5t68.5 197.5v948h283v-958q0 -117 -42 -211t-115 -161t-170 -103.5t-210 -36.5t-210 36.5t-170 103.5t-115 161t-42 211zM272 1729q0 57 40 97t98 40q57 0 97 -40t40 -97t-40 -97.5t-97 -40.5t-97.5 40.5 t-40.5 97.5zM735 1729q0 57 40 97t97 40t97.5 -40t40.5 -97t-40 -97.5t-98 -40.5q-57 0 -97 40.5t-40 97.5z" />
<glyph unicode="&#xdd;" horiz-adv-x="1171" d="M6 1458h309l273 -588l268 588h309l-438 -860v-598h-283v598zM471 1599l131 349h281l-234 -349h-178z" />
<glyph unicode="&#xde;" horiz-adv-x="1230" d="M117 0v1458h284v-268h281q113 0 202 -36t151.5 -97.5t95 -144.5t32.5 -175t-32.5 -175t-95 -145.5t-151.5 -98t-202 -35.5h-281v-283h-284zM401 537h267q98 0 154.5 55t56.5 145t-56.5 144.5t-154.5 54.5h-267v-399z" />
<glyph unicode="&#xdf;" horiz-adv-x="1105" d="M109 0v1067q0 106 34.5 183t96 126t146.5 71.5t183 22.5q96 0 178 -21.5t141.5 -65.5t92.5 -111.5t33 -159.5q0 -94 -39 -148.5t-86 -82.5q57 -29 92 -78t35 -146v-327q0 -162 -84 -244q-43 -43 -105.5 -64.5t-152.5 -21.5h-107v225h54q57 0 92 31t35 96v295q0 61 -31 92 q-33 33 -92 33h-58v209h58q49 0 86 28.5t37 94.5q0 57 -39 92q-47 43 -144 43q-109 0 -149.5 -50t-40.5 -142v-1047h-266z" />
<glyph unicode="&#xe0;" d="M70 324q0 63 22.5 119.5t67.5 98.5t113.5 66.5t160.5 24.5h252v53q0 88 -46 128t-153 40q-39 0 -67.5 -5t-52 -15.5t-44 -26.5t-40.5 -41l-170 166q78 86 165 116.5t220 30.5q225 0 339.5 -94t114.5 -283v-702h-260v92q-53 -53 -111.5 -77.5t-150.5 -24.5q-178 0 -272 94 q-43 45 -65.5 106.5t-22.5 133.5zM231 1585h281l131 -348h-178zM326 330q0 -55 37.5 -89t115.5 -34q55 0 94 8t74 43q39 37 39 135v58h-211q-72 0 -110.5 -32t-38.5 -89z" />
<glyph unicode="&#xe1;" d="M70 324q0 63 22.5 119.5t67.5 98.5t113.5 66.5t160.5 24.5h252v53q0 88 -46 128t-153 40q-39 0 -67.5 -5t-52 -15.5t-44 -26.5t-40.5 -41l-170 166q78 86 165 116.5t220 30.5q225 0 339.5 -94t114.5 -283v-702h-260v92q-53 -53 -111.5 -77.5t-150.5 -24.5q-178 0 -272 94 q-43 45 -65.5 106.5t-22.5 133.5zM326 330q0 -55 37.5 -89t115.5 -34q55 0 94 8t74 43q39 37 39 135v58h-211q-72 0 -110.5 -32t-38.5 -89zM418 1237l131 348h280l-233 -348h-178z" />
<glyph unicode="&#xe2;" d="M70 324q0 63 22.5 119.5t67.5 98.5t113.5 66.5t160.5 24.5h252v53q0 88 -46 128t-153 40q-39 0 -67.5 -5t-52 -15.5t-44 -26.5t-40.5 -41l-170 166q78 86 165 116.5t220 30.5q225 0 339.5 -94t114.5 -283v-702h-260v92q-53 -53 -111.5 -77.5t-150.5 -24.5q-178 0 -272 94 q-43 45 -65.5 106.5t-22.5 133.5zM154 1237l270 346h213l270 -346h-207l-170 186l-170 -186h-206zM326 330q0 -55 37.5 -89t115.5 -34q55 0 94 8t74 43q39 37 39 135v58h-211q-72 0 -110.5 -32t-38.5 -89z" />
<glyph unicode="&#xe3;" d="M70 324q0 63 22.5 119.5t67.5 98.5t113.5 66.5t160.5 24.5h252v53q0 88 -46 128t-153 40q-39 0 -67.5 -5t-52 -15.5t-44 -26.5t-40.5 -41l-170 166q78 86 165 116.5t220 30.5q225 0 339.5 -94t114.5 -283v-702h-260v92q-53 -53 -111.5 -77.5t-150.5 -24.5q-178 0 -272 94 q-43 45 -65.5 106.5t-22.5 133.5zM160 1401q68 68 119 94.5t110 26.5q47 0 81 -10.5t77 -36.5q31 -18 56.5 -27.5t55.5 -9.5q27 0 53.5 9t67.5 50l119 -117q-68 -68 -120 -94t-111 -26q-45 0 -80 11t-78 36q-29 16 -56.5 26t-58.5 10q-27 0 -53.5 -9t-67.5 -50zM326 330 q0 -55 37.5 -89t115.5 -34q55 0 94 8t74 43q39 37 39 135v58h-211q-72 0 -110.5 -32t-38.5 -89z" />
<glyph unicode="&#xe4;" d="M70 324q0 63 22.5 119.5t67.5 98.5t113.5 66.5t160.5 24.5h252v53q0 88 -46 128t-153 40q-39 0 -67.5 -5t-52 -15.5t-44 -26.5t-40.5 -41l-170 166q78 86 165 116.5t220 30.5q225 0 339.5 -94t114.5 -283v-702h-260v92q-53 -53 -111.5 -77.5t-150.5 -24.5q-178 0 -272 94 q-43 45 -65.5 106.5t-22.5 133.5zM162 1366q0 57 40 97t97 40t97 -40t40 -97t-40 -97t-97 -40t-97 40t-40 97zM326 330q0 -55 37.5 -89t115.5 -34q55 0 94 8t74 43q39 37 39 135v58h-211q-72 0 -110.5 -32t-38.5 -89zM625 1366q0 57 40 97t97 40t97 -40t40 -97t-40 -97 t-97 -40t-97 40t-40 97z" />
<glyph unicode="&#xe5;" d="M70 324q0 63 22.5 119.5t67.5 98.5t113.5 66.5t160.5 24.5h252v53q0 88 -46 128t-153 40q-39 0 -67.5 -5t-52 -15.5t-44 -26.5t-40.5 -41l-170 166q78 86 165 116.5t220 30.5q225 0 339.5 -94t114.5 -283v-702h-260v92q-53 -53 -111.5 -77.5t-150.5 -24.5q-178 0 -272 94 q-43 45 -65.5 106.5t-22.5 133.5zM262 1464q0 55 21.5 104.5t57.5 85.5t85 57.5t104 21.5t104.5 -20.5t85.5 -57.5t57.5 -86t21.5 -105q0 -55 -21.5 -104t-57.5 -85t-85 -57.5t-105 -21.5q-55 0 -104 21.5t-85 57.5t-57.5 85t-21.5 104zM326 330q0 -55 37.5 -89t115.5 -34 q55 0 94 8t74 43q39 37 39 135v58h-211q-72 0 -110.5 -32t-38.5 -89zM412 1464q0 -49 34.5 -85t83.5 -36t84 36t35 85t-34.5 84t-84.5 35q-49 0 -83.5 -35t-34.5 -84z" />
<glyph unicode="&#xe6;" horiz-adv-x="1673" d="M70 324q0 63 22.5 119.5t67.5 98.5t113.5 66.5t160.5 24.5h252v53q0 88 -46 128t-153 40q-39 0 -67.5 -5t-52 -15.5t-44 -26.5t-40.5 -41l-170 166q78 86 165 116.5t220 30.5q242 0 350 -116q57 59 134 87.5t169 28.5q111 0 198 -39t146 -106.5t90 -160.5t31 -204v-118 h-668q0 -104 60.5 -171t173.5 -67q88 0 139 24.5t102 75.5l162 -157q-41 -41 -82 -72t-89 -52.5t-105.5 -32.5t-128.5 -11q-109 0 -206 33.5t-169 115.5q-43 -47 -86 -76.5t-89 -46t-95.5 -21.5t-104.5 -5q-176 0 -272 96q-43 45 -65.5 106.5t-22.5 133.5zM326 330 q0 -55 37.5 -89t115.5 -34q55 0 94 8t74 43q39 37 39 135v58h-211q-72 0 -110.5 -32t-38.5 -89zM948 633h406q-2 35 -7.5 60.5t-17.5 54.5q-23 47 -66.5 78.5t-111.5 31.5t-112 -31.5t-66 -78.5q-12 -29 -17.5 -54.5t-7.5 -60.5z" />
<glyph unicode="&#xe7;" horiz-adv-x="921" d="M76 535q0 162 45 267t113.5 166.5t153.5 86t165 24.5q111 0 196 -34.5t156 -108.5l-180 -180q-41 45 -80 64.5t-92 19.5q-94 0 -152 -70q-31 -39 -45 -94t-14 -141q0 -164 59 -238q57 -70 152 -70q53 0 92 19.5t80 64.5l180 -178q-72 -74 -156.5 -109.5t-195.5 -35.5 q-80 0 -165 24.5t-153.5 87t-113.5 168t-45 267.5zM307 -422l142 299h196l-90 -299h-248z" />
<glyph unicode="&#xe8;" horiz-adv-x="1062" d="M76 535q0 131 33.5 232t95 171t146.5 105.5t190 35.5q111 0 197.5 -39t146 -106.5t90.5 -160.5t31 -204v-118h-668q0 -104 60.5 -171t172.5 -67q88 0 139.5 24.5t102.5 75.5l162 -157q-41 -41 -82 -72t-89 -52.5t-105.5 -32.5t-129.5 -11q-94 0 -183 24.5t-157.5 87 t-110.5 168t-42 267.5zM248 1585h280l131 -348h-178zM338 633h405q-2 35 -7 60.5t-17 54.5q-23 47 -67 78.5t-111 31.5q-68 0 -112 -31.5t-67 -78.5q-12 -29 -17 -54.5t-7 -60.5z" />
<glyph unicode="&#xe9;" horiz-adv-x="1062" d="M76 535q0 131 33.5 232t95 171t146.5 105.5t190 35.5q111 0 197.5 -39t146 -106.5t90.5 -160.5t31 -204v-118h-668q0 -104 60.5 -171t172.5 -67q88 0 139.5 24.5t102.5 75.5l162 -157q-41 -41 -82 -72t-89 -52.5t-105.5 -32.5t-129.5 -11q-94 0 -183 24.5t-157.5 87 t-110.5 168t-42 267.5zM338 633h405q-2 35 -7 60.5t-17 54.5q-23 47 -67 78.5t-111 31.5q-68 0 -112 -31.5t-67 -78.5q-12 -29 -17 -54.5t-7 -60.5zM434 1237l131 348h281l-234 -348h-178z" />
<glyph unicode="&#xea;" horiz-adv-x="1062" d="M76 535q0 131 33.5 232t95 171t146.5 105.5t190 35.5q111 0 197.5 -39t146 -106.5t90.5 -160.5t31 -204v-118h-668q0 -104 60.5 -171t172.5 -67q88 0 139.5 24.5t102.5 75.5l162 -157q-41 -41 -82 -72t-89 -52.5t-105.5 -32.5t-129.5 -11q-94 0 -183 24.5t-157.5 87 t-110.5 168t-42 267.5zM170 1237l270 346h213l271 -346h-207l-170 186l-170 -186h-207zM338 633h405q-2 35 -7 60.5t-17 54.5q-23 47 -67 78.5t-111 31.5q-68 0 -112 -31.5t-67 -78.5q-12 -29 -17 -54.5t-7 -60.5z" />
<glyph unicode="&#xeb;" horiz-adv-x="1062" d="M76 535q0 131 33.5 232t95 171t146.5 105.5t190 35.5q111 0 197.5 -39t146 -106.5t90.5 -160.5t31 -204v-118h-668q0 -104 60.5 -171t172.5 -67q88 0 139.5 24.5t102.5 75.5l162 -157q-41 -41 -82 -72t-89 -52.5t-105.5 -32.5t-129.5 -11q-94 0 -183 24.5t-157.5 87 t-110.5 168t-42 267.5zM178 1366q0 57 40 97t97 40t97.5 -40t40.5 -97t-40 -97t-98 -40q-57 0 -97 40t-40 97zM338 633h405q-2 35 -7 60.5t-17 54.5q-23 47 -67 78.5t-111 31.5q-68 0 -112 -31.5t-67 -78.5q-12 -29 -17 -54.5t-7 -60.5zM641 1366q0 57 40 97t97 40t97 -40 t40 -97t-39.5 -97t-97.5 -40q-57 0 -97 40t-40 97z" />
<glyph unicode="&#xec;" horiz-adv-x="505" d="M14 1585h281l131 -348h-178zM150 0v1067h266v-1067h-266z" />
<glyph unicode="&#xed;" horiz-adv-x="505" d="M150 0v1067h266v-1067h-266zM150 1237l131 348h280l-233 -348h-178z" />
<glyph unicode="&#xee;" horiz-adv-x="505" d="M-92 1237l270 346h213l271 -346h-207l-170 186l-170 -186h-207zM150 0v1067h266v-1067h-266z" />
<glyph unicode="&#xef;" horiz-adv-x="505" d="M-84 1366q0 57 40 97t97 40t97 -40t40 -97t-39.5 -97t-97.5 -40q-57 0 -97 40t-40 97zM150 0v1067h266v-1067h-266zM379 1366q0 57 40 97t97 40t97 -40t40 -97t-40 -97t-97 -40t-97 40t-40 97z" />
<glyph unicode="&#xf0;" horiz-adv-x="1048" d="M84 520q0 141 23.5 235.5t95.5 168.5q66 70 182 100q37 10 76 14t80 0l-70 127h-233v187h139l-64 123h285l64 -123h188v-187h-94l82 -157q37 -74 61.5 -130.5t38.5 -110.5t20.5 -112.5t6.5 -134.5q0 -141 -23.5 -236.5t-95.5 -168.5q-49 -51 -127 -89t-195 -38 t-194.5 37.5t-126.5 89.5q-72 74 -95.5 169t-23.5 236zM350 520q0 -78 9.5 -142.5t48.5 -105.5q45 -45 116 -45q74 0 119 45q39 41 47 105.5t8 142.5t-8 141.5t-47 104.5q-45 45 -119 45q-72 0 -116 -45q-39 -41 -48.5 -104.5t-9.5 -141.5z" />
<glyph unicode="&#xf1;" horiz-adv-x="1095" d="M109 0v1067h260v-98q53 55 122.5 82.5t143.5 27.5q80 0 143.5 -24.5t108.5 -69.5q66 -66 87 -140.5t21 -162.5v-682h-266v645q0 55 -15.5 92t-41 59.5t-57 33t-62.5 10.5t-62.5 -10.5t-57 -33t-42 -59.5t-16.5 -92v-645h-266zM182 1401q68 68 119 94.5t111 26.5 q47 0 80.5 -10.5t76.5 -36.5q31 -18 56.5 -27.5t56.5 -9.5q27 0 53.5 9t67.5 50l119 -117q-68 -68 -120 -94t-112 -26q-45 0 -80 11t-78 36q-29 16 -56 26t-58 10q-27 0 -53.5 -9t-67.5 -50z" />
<glyph unicode="&#xf2;" horiz-adv-x="1071" d="M84 535q0 145 24.5 241t96.5 172q49 53 130 92t200 39t200.5 -39t130.5 -92q72 -76 96.5 -172t24.5 -241t-24.5 -242.5t-96.5 -173.5q-49 -53 -131 -92t-200 -39q-119 0 -200 39t-130 92q-72 76 -96.5 173.5t-24.5 242.5zM229 1585h281l131 -348h-178zM350 535 q0 -84 10.5 -152t51.5 -109q47 -47 123 -47q78 0 124 47q41 41 51.5 109t10.5 152t-10.5 150.5t-51.5 107.5q-47 47 -124 47q-76 0 -123 -47q-41 -41 -51.5 -107.5t-10.5 -150.5z" />
<glyph unicode="&#xf3;" horiz-adv-x="1071" d="M84 535q0 145 24.5 241t96.5 172q49 53 130 92t200 39t200.5 -39t130.5 -92q72 -76 96.5 -172t24.5 -241t-24.5 -242.5t-96.5 -173.5q-49 -53 -131 -92t-200 -39q-119 0 -200 39t-130 92q-72 76 -96.5 173.5t-24.5 242.5zM350 535q0 -84 10.5 -152t51.5 -109 q47 -47 123 -47q78 0 124 47q41 41 51.5 109t10.5 152t-10.5 150.5t-51.5 107.5q-47 47 -124 47q-76 0 -123 -47q-41 -41 -51.5 -107.5t-10.5 -150.5zM424 1237l131 348h281l-234 -348h-178z" />
<glyph unicode="&#xf4;" horiz-adv-x="1071" d="M84 535q0 145 24.5 241t96.5 172q49 53 130 92t200 39t200.5 -39t130.5 -92q72 -76 96.5 -172t24.5 -241t-24.5 -242.5t-96.5 -173.5q-49 -53 -131 -92t-200 -39q-119 0 -200 39t-130 92q-72 76 -96.5 173.5t-24.5 242.5zM160 1237l270 346h213l270 -346h-206l-170 186 l-170 -186h-207zM350 535q0 -84 10.5 -152t51.5 -109q47 -47 123 -47q78 0 124 47q41 41 51.5 109t10.5 152t-10.5 150.5t-51.5 107.5q-47 47 -124 47q-76 0 -123 -47q-41 -41 -51.5 -107.5t-10.5 -150.5z" />
<glyph unicode="&#xf5;" horiz-adv-x="1071" d="M84 535q0 145 24.5 241t96.5 172q49 53 130 92t200 39t200.5 -39t130.5 -92q72 -76 96.5 -172t24.5 -241t-24.5 -242.5t-96.5 -173.5q-49 -53 -131 -92t-200 -39q-119 0 -200 39t-130 92q-72 76 -96.5 173.5t-24.5 242.5zM166 1401q68 68 119 94.5t110 26.5 q47 0 81 -10.5t77 -36.5q31 -18 56.5 -27.5t56.5 -9.5q27 0 53 9t67 50l119 -117q-68 -68 -120 -94t-111 -26q-45 0 -80 11t-78 36q-29 16 -56.5 26t-58.5 10q-27 0 -53 -9t-67 -50zM350 535q0 -84 10.5 -152t51.5 -109q47 -47 123 -47q78 0 124 47q41 41 51.5 109t10.5 152 t-10.5 150.5t-51.5 107.5q-47 47 -124 47q-76 0 -123 -47q-41 -41 -51.5 -107.5t-10.5 -150.5z" />
<glyph unicode="&#xf6;" horiz-adv-x="1071" d="M84 535q0 145 24.5 241t96.5 172q49 53 130 92t200 39t200.5 -39t130.5 -92q72 -76 96.5 -172t24.5 -241t-24.5 -242.5t-96.5 -173.5q-49 -53 -131 -92t-200 -39q-119 0 -200 39t-130 92q-72 76 -96.5 173.5t-24.5 242.5zM168 1366q0 57 40 97t97 40t97 -40t40 -97 t-40 -97t-97 -40t-97 40t-40 97zM350 535q0 -84 10.5 -152t51.5 -109q47 -47 123 -47q78 0 124 47q41 41 51.5 109t10.5 152t-10.5 150.5t-51.5 107.5q-47 47 -124 47q-76 0 -123 -47q-41 -41 -51.5 -107.5t-10.5 -150.5zM631 1366q0 57 40 97t97 40t97 -40t40 -97t-40 -97 t-97 -40t-97 40t-40 97z" />
<glyph unicode="&#xf7;" horiz-adv-x="1058" d="M68 461v248h923v-248h-923zM350 162q0 74 53.5 126t126.5 52q74 0 126.5 -52t52.5 -126t-52.5 -127t-126.5 -53q-37 0 -69.5 14t-57 38.5t-39 57.5t-14.5 70zM350 1008q0 37 14.5 69.5t39 57t57.5 39t69 14.5q74 0 126.5 -53.5t52.5 -126.5q0 -74 -52.5 -126.5 t-126.5 -52.5t-127 52.5t-53 126.5z" />
<glyph unicode="&#xf8;" horiz-adv-x="1071" d="M88 535q0 145 24.5 241t96.5 172q49 53 130 92t200 39q125 0 215 -45l71 123h164l-123 -207l4 -2q72 -76 96.5 -172t24.5 -241t-24.5 -242.5t-96.5 -173.5q-49 -53 -131 -92t-200 -39q-66 0 -118 12t-95 35l-74 -125h-162l121 207l-2 2q-74 74 -97.5 172.5t-23.5 243.5z M354 535q0 -49 2 -94.5t13 -82.5l270 455q-43 27 -100 27q-76 0 -123 -47q-41 -41 -51.5 -107.5t-10.5 -150.5zM440 254q43 -27 99 -27q78 0 125 47q41 41 51 109t10 152q0 49 -3 93t-13 81z" />
<glyph unicode="&#xf9;" horiz-adv-x="1095" d="M100 385v682h267v-645q0 -55 15 -92t41 -59.5t57.5 -33t62.5 -10.5t62.5 10.5t57 33t42 59.5t16.5 92v645h266v-1067h-260v98q-53 -55 -122.5 -82.5t-143.5 -27.5q-80 0 -143.5 24.5t-108.5 69.5q-66 66 -87.5 140.5t-21.5 162.5zM244 1585h280l131 -348h-178z" />
<glyph unicode="&#xfa;" horiz-adv-x="1095" d="M100 385v682h267v-645q0 -55 15 -92t41 -59.5t57.5 -33t62.5 -10.5t62.5 10.5t57 33t42 59.5t16.5 92v645h266v-1067h-260v98q-53 -55 -122.5 -82.5t-143.5 -27.5q-80 0 -143.5 24.5t-108.5 69.5q-66 66 -87.5 140.5t-21.5 162.5zM430 1237l131 348h281l-234 -348h-178z " />
<glyph unicode="&#xfb;" horiz-adv-x="1095" d="M100 385v682h267v-645q0 -55 15 -92t41 -59.5t57.5 -33t62.5 -10.5t62.5 10.5t57 33t42 59.5t16.5 92v645h266v-1067h-260v98q-53 -55 -122.5 -82.5t-143.5 -27.5q-80 0 -143.5 24.5t-108.5 69.5q-66 66 -87.5 140.5t-21.5 162.5zM166 1237l270 346h213l271 -346h-207 l-170 186l-170 -186h-207z" />
<glyph unicode="&#xfc;" horiz-adv-x="1095" d="M100 385v682h267v-645q0 -55 15 -92t41 -59.5t57.5 -33t62.5 -10.5t62.5 10.5t57 33t42 59.5t16.5 92v645h266v-1067h-260v98q-53 -55 -122.5 -82.5t-143.5 -27.5q-80 0 -143.5 24.5t-108.5 69.5q-66 66 -87.5 140.5t-21.5 162.5zM174 1366q0 57 40 97t97 40t97.5 -40 t40.5 -97t-40 -97t-98 -40q-57 0 -97 40t-40 97zM637 1366q0 57 40 97t97 40t97 -40t40 -97t-40 -97t-97 -40t-97 40t-40 97z" />
<glyph unicode="&#xfd;" horiz-adv-x="966" d="M-14 1067h280l221 -659l213 659h281l-457 -1239q-35 -92 -80 -137q-47 -47 -105 -64.5t-124 -17.5h-104v239h61q57 0 85 18.5t48 78.5l45 131zM365 1237l131 348h280l-233 -348h-178z" />
<glyph unicode="&#xfe;" horiz-adv-x="1085" d="M104 -391v1849h267v-485q53 59 114.5 82.5t143.5 23.5q78 0 146.5 -25.5t113.5 -70.5q39 -41 61.5 -93t32.5 -111.5t12 -122t2 -121.5t-2 -123t-12 -123.5t-32.5 -112.5t-61.5 -92q-45 -45 -113.5 -70.5t-146.5 -25.5q-82 0 -143.5 23.5t-114.5 82.5v-485h-267zM371 535 q0 -66 6 -122.5t24.5 -97.5t54.5 -64.5t95 -23.5t95 23.5t54.5 64.5t24.5 97.5t6 122.5t-6 121t-24.5 96t-54.5 64.5t-95 23.5t-95 -23.5t-54.5 -64.5t-24.5 -96t-6 -121z" />
<glyph unicode="&#xff;" horiz-adv-x="966" d="M-14 1067h280l221 -659l213 659h281l-457 -1239q-35 -92 -80 -137q-47 -47 -105 -64.5t-124 -17.5h-104v239h61q57 0 85 18.5t48 78.5l45 131zM109 1366q0 57 39.5 97t97.5 40q57 0 97 -40t40 -97t-40 -97t-97 -40t-97 40t-40 97zM571 1366q0 57 40 97t98 40q57 0 97 -40 t40 -97t-40 -97t-97 -40t-97.5 40t-40.5 97z" />
<glyph unicode="&#x152;" horiz-adv-x="1890" d="M94 729q0 94 2 177t15.5 157t42 136.5t84.5 117.5q78 78 170 115.5t217 37.5q68 0 138.5 -23.5t123.5 -78.5v90h952v-252h-670v-71q0 -47 1 -101.5t1 -103.5v-70h570v-250h-570v-73q0 -49 -1 -105.5t-1 -107.5v-72h672v-252h-954v90q-53 -55 -125 -78.5t-137 -23.5 q-125 0 -217.5 37.5t-169.5 115.5q-55 55 -84 118t-42.5 136.5t-15.5 156.5t-2 177zM379 729q0 -104 3 -173t11 -114t21.5 -72.5t34.5 -50.5q31 -35 77.5 -56t106.5 -21q59 0 105 21.5t77 55.5q20 23 34.5 50.5t23 72.5t11.5 114t3 173t-3 173t-11.5 114t-22.5 72.5 t-35 50.5q-31 35 -77 56.5t-105 21.5t-106.5 -21.5t-77.5 -56.5q-20 -23 -34 -50.5t-22 -72.5t-11 -114t-3 -173z" />
<glyph unicode="&#x153;" horiz-adv-x="1708" d="M84 535q0 145 24.5 241t96.5 172q49 53 130 92t200 39q115 0 197.5 -40t131.5 -101q117 141 322 141q111 0 197.5 -39t146 -106.5t90.5 -160.5t31 -204v-118h-668q0 -104 60.5 -171t173.5 -67q88 0 138 24.5t101 75.5l164 -157q-41 -41 -82 -72t-89 -52.5t-105.5 -32.5 t-129.5 -11q-104 0 -197 30.5t-159 104.5q-49 -59 -131 -97t-192 -38q-119 0 -200 39t-130 92q-72 76 -96.5 173.5t-24.5 242.5zM350 535q0 -84 10.5 -152t51.5 -109q47 -47 123 -47q78 0 124 47q41 41 51.5 109t10.5 152t-10.5 150.5t-51.5 107.5q-47 47 -124 47 q-76 0 -123 -47q-41 -41 -51.5 -107.5t-10.5 -150.5zM983 633h403q-2 35 -6 60.5t-16 54.5q-23 47 -67 78.5t-111 31.5q-68 0 -113 -31.5t-67 -78.5q-12 -29 -16.5 -54.5t-6.5 -60.5z" />
<glyph unicode="&#x178;" horiz-adv-x="1171" d="M6 1458h309l273 -588l268 588h309l-438 -860v-598h-283v598zM215 1729q0 57 40 97t97 40t97 -40t40 -97t-39.5 -97.5t-97.5 -40.5q-57 0 -97 40.5t-40 97.5zM678 1729q0 57 40 97t97 40t97 -40t40 -97t-40 -97.5t-97 -40.5t-97 40.5t-40 97.5z" />
<glyph unicode="&#x2c6;" horiz-adv-x="962" d="M135 1237l271 346h212l271 -346h-207l-170 186l-170 -186h-207z" />
<glyph unicode="&#x2dc;" horiz-adv-x="962" d="M141 1401q68 68 119 94.5t111 26.5q47 0 80.5 -10.5t76.5 -36.5q31 -18 56.5 -27.5t56.5 -9.5q27 0 53.5 9t67.5 50l119 -117q-68 -68 -120 -94t-112 -26q-45 0 -79.5 11t-77.5 36q-29 16 -56.5 26t-58.5 10q-27 0 -53.5 -9t-67.5 -50z" />
<glyph unicode="&#x2000;" horiz-adv-x="1038" />
<glyph unicode="&#x2001;" horiz-adv-x="2078" />
<glyph unicode="&#x2002;" horiz-adv-x="1038" />
<glyph unicode="&#x2003;" horiz-adv-x="2078" />
<glyph unicode="&#x2004;" horiz-adv-x="692" />
<glyph unicode="&#x2005;" horiz-adv-x="518" />
<glyph unicode="&#x2006;" horiz-adv-x="346" />
<glyph unicode="&#x2007;" horiz-adv-x="346" />
<glyph unicode="&#x2008;" horiz-adv-x="258" />
<glyph unicode="&#x2009;" horiz-adv-x="415" />
<glyph unicode="&#x200a;" horiz-adv-x="114" />
<glyph unicode="&#x2010;" horiz-adv-x="819" d="M94 461v248h631v-248h-631z" />
<glyph unicode="&#x2011;" horiz-adv-x="819" d="M94 461v248h631v-248h-631z" />
<glyph unicode="&#x2013;" horiz-adv-x="1042" d="M68 461v248h907v-248h-907z" />
<glyph unicode="&#x2014;" horiz-adv-x="1996" d="M68 463v256h1861v-256h-1861z" />
<glyph unicode="&#x2018;" horiz-adv-x="495" d="M109 1206v252l278 215v-467h-278z" />
<glyph unicode="&#x2019;" horiz-adv-x="495" d="M109 993v465h278v-254z" />
<glyph unicode="&#x201a;" horiz-adv-x="503" d="M123 -213v467h278v-254z" />
<glyph unicode="&#x201c;" horiz-adv-x="925" d="M109 1206v252l276 215v-467h-276zM539 1206v252l278 215v-467h-278z" />
<glyph unicode="&#x201d;" horiz-adv-x="925" d="M109 993v465h276v-254zM539 993v465h278v-254z" />
<glyph unicode="&#x201e;" horiz-adv-x="933" d="M123 -213v467h276v-254zM553 -213v467h278v-254z" />
<glyph unicode="&#x2022;" horiz-adv-x="946" d="M139 684q0 70 27 130t72 105.5t105 72t130 26.5t130.5 -26.5t105.5 -72t71.5 -105.5t26.5 -130t-26.5 -130t-71.5 -105.5t-105.5 -72t-130.5 -26.5t-130 26.5t-105 72t-72 105.5t-27 130z" />
<glyph unicode="&#x2026;" horiz-adv-x="1744" d="M154 172q0 74 52 126t126 52t127 -52t53 -126t-53 -126t-127 -52t-126 52t-52 126zM719 172q0 74 52 126t126 52t126 -52t52 -126t-52 -126t-126 -52t-126 52t-52 126zM1284 172q0 74 52.5 126t125.5 52q74 0 126 -52t52 -126t-52 -126t-126 -52t-126 52t-52 126z" />
<glyph unicode="&#x202f;" horiz-adv-x="415" />
<glyph unicode="&#x2039;" horiz-adv-x="636" d="M29 563l510 508v-317l-193 -191l193 -190v-318z" />
<glyph unicode="&#x203a;" horiz-adv-x="636" d="M98 55v318l195 190l-195 191v317l510 -508z" />
<glyph unicode="&#x205f;" horiz-adv-x="518" />
<glyph unicode="&#x20ac;" horiz-adv-x="1132" d="M31 485v170h149v140h-149v170h157q6 117 46 210t109 159.5t162 101t208 34.5q102 0 196.5 -35.5t165.5 -113.5l-172 -184q-35 35 -83 59.5t-115 24.5q-61 0 -103.5 -21.5t-68 -57.5t-39 -82t-15.5 -95h320v-170h-332v-140h332v-170h-322q10 -106 74.5 -174.5t181.5 -68.5 q59 0 107.5 20.5t83.5 54.5l159 -184q-74 -70 -157.5 -107.5t-206.5 -37.5q-117 0 -212 34.5t-165 99t-109.5 157t-44.5 206.5h-157z" />
<glyph unicode="&#x2122;" horiz-adv-x="1779" d="M31 1284v174h645v-174h-225v-700h-195v700h-225zM811 584v874h195l249 -467l250 467h195v-874h-195v516l-164 -322h-172l-163 322v-516h-195z" />
</font>
</defs>
</svg>
