<?xml version="1.0" standalone="no"?>
<!DOCTYPE svg PUBLIC "-//W3C//DTD SVG 1.1//EN" "http://www.w3.org/Graphics/SVG/1.1/DTD/svg11.dtd" >
<svg xmlns="http://www.w3.org/2000/svg">
<metadata></metadata>
<defs>
<font id="din_habitat-mediumregular" horiz-adv-x="1021" >
<font-face units-per-em="2048" ascent="1597" descent="-451" />
<missing-glyph horiz-adv-x="491" />
<glyph horiz-adv-x="2048" />
<glyph horiz-adv-x="2048" />
<glyph unicode="&#xd;" horiz-adv-x="491" />
<glyph unicode=" "  horiz-adv-x="491" />
<glyph unicode="&#x09;" horiz-adv-x="491" />
<glyph unicode="&#xa0;" horiz-adv-x="491" />
<glyph unicode="!" horiz-adv-x="610" d="M207 127q0 55 39 94t94 39t94 -39t39 -94t-39 -94t-94 -39t-94 39t-39 94zM213 1458h254l-47 -1024h-158z" />
<glyph unicode="&#x22;" horiz-adv-x="839" d="M125 1067v391h207v-391h-207zM508 1067v391h207v-391h-207z" />
<glyph unicode="#" horiz-adv-x="1306" d="M104 426v192h193l41 254h-166v193h195l63 401h219l-63 -401h278l64 401h217l-64 -401h160v-193h-188l-41 -254h162v-192h-193l-68 -426h-217l68 426h-281l-65 -426h-219l67 426h-162zM514 618h281l39 254h-279z" />
<glyph unicode="$" horiz-adv-x="1175" d="M27 180l147 146q74 -74 157 -105t181 -35v455l-53 6q-88 10 -159 43t-116 74q-109 102 -108 278q0 176 109.5 291t308.5 133v185h168v-183q123 -8 215 -47t176 -116l-142 -140q-53 51 -121.5 78t-146.5 33v-442l70 -11q102 -16 163.5 -41.5t108.5 -66.5q59 -53 89 -129 t30 -170q0 -92 -32 -166t-90 -127t-140 -86t-180 -43v-227h-168v221q-147 6 -258 50t-209 142zM291 1051q0 -41 13 -75t42 -61q33 -29 76 -45t90 -22v426q-109 -10 -165 -71.5t-56 -151.5zM643 190q115 10 178.5 67t63.5 153q0 100 -58 151q-41 37 -86 46t-98 18v-435z" />
<glyph unicode="%" horiz-adv-x="1654" d="M84 985v207q0 66 22.5 118t61.5 88t91 55.5t112 19.5q59 0 111.5 -19.5t91 -55.5t61 -88.5t22.5 -117.5v-207q0 -66 -22.5 -118t-61 -88t-91 -54t-111.5 -18t-111.5 18t-91.5 54t-61.5 88.5t-22.5 117.5zM242 991q0 -145 129 -145q66 0 97.5 38t31.5 107v195 q0 70 -32 108.5t-97 38.5q-66 0 -97.5 -38t-31.5 -109v-195zM399 0l688 1458h166l-686 -1458h-168zM997 266v207q0 66 22.5 118t61.5 88t91.5 55.5t111.5 19.5t111.5 -19.5t91.5 -55.5t61.5 -88t22.5 -118v-207q0 -66 -22.5 -118t-61.5 -87.5t-91.5 -55t-111.5 -19.5 t-111.5 19.5t-91.5 55t-61.5 88t-22.5 117.5zM1155 272q0 -72 32 -109.5t97 -37.5q66 0 97.5 39t31.5 108v195q0 70 -31.5 108.5t-97.5 38.5t-97.5 -37.5t-31.5 -109.5v-195z" />
<glyph unicode="&#x26;" horiz-adv-x="1425" d="M104 422q0 76 25 136t66 109.5t93 90.5t105 76q-25 29 -51.5 62.5t-49 72.5t-36.5 83t-14 95q0 70 25.5 129t71.5 102t111.5 67.5t147.5 24.5q78 0 141.5 -24.5t109.5 -68.5t70.5 -103.5t24.5 -128.5q0 -86 -43 -148.5t-113 -109.5q-20 -12 -40 -27q-16 -12 -34 -24.5 t-32 -22.5l307 -367q41 57 58.5 125t19.5 168h201q-4 -141 -38 -251.5t-108 -196.5l244 -291h-268l-119 143q-25 -20 -59.5 -46.5t-84 -51.5t-113 -41t-147.5 -16q-229 0 -350 117.5t-121 316.5zM311 426q0 -111 75 -179.5t189 -68.5q74 0 140.5 23.5t138.5 89.5l-346 411 q-39 -27 -75 -54t-63.5 -60t-43 -72t-15.5 -90zM455 1145q0 -45 28.5 -90t83.5 -111q10 6 21.5 13.5t21.5 15.5l27 18q43 29 74.5 65t31.5 87q0 61 -39.5 103t-105.5 42q-68 0 -105.5 -41t-37.5 -102z" />
<glyph unicode="'" horiz-adv-x="456" d="M125 1067v391h207v-391h-207z" />
<glyph unicode="(" horiz-adv-x="579" d="M141 240v979q0 61 7.5 120.5t39.5 116.5q31 55 74 100.5t92 94.5l142 -142q-37 -37 -65 -64.5t-50 -70.5q-31 -57 -31 -168v-954q0 -109 31 -168q23 -43 50.5 -70.5l64.5 -64.5l-142 -142q-49 49 -92 94.5t-74 100.5q-33 57 -40 116.5t-7 121.5z" />
<glyph unicode=")" horiz-adv-x="579" d="M84 -49q37 37 63.5 64.5t49.5 70.5q31 59 30 166v954q0 109 -30 166q-23 43 -49.5 70.5t-63.5 64.5l143 144q49 -49 91 -94.5t73 -100.5q33 -57 41 -116.5t8 -120.5v-979q0 -61 -8 -121t-41 -117q-31 -55 -73 -100t-91 -95z" />
<glyph unicode="*" horiz-adv-x="923" d="M90 954l236 125l-236 127l76 133l227 -141l-8 266h154l-9 -266l228 141l76 -133l-236 -127l236 -125l-76 -133l-228 142l9 -269h-154l8 269l-227 -142z" />
<glyph unicode="+" d="M70 461v194h344v342h194v-342h344v-194h-344v-344h-194v344h-344z" />
<glyph unicode="," horiz-adv-x="487" d="M125 238h237v-361l-237 -194v555z" />
<glyph unicode="-" horiz-adv-x="802" d="M102 471v195h598v-195h-598z" />
<glyph unicode="." horiz-adv-x="512" d="M106 143q0 61 44.5 104.5t105.5 43.5t105.5 -43.5t44.5 -104.5t-44.5 -105t-105.5 -44t-105.5 44t-44.5 105z" />
<glyph unicode="/" horiz-adv-x="708" d="M-35 -152l584 1762h201l-584 -1762h-201z" />
<glyph unicode="0" d="M90 406v647q0 98 33 175t90 131t134 82.5t163 28.5t163 -28.5t134 -82.5t91 -131t34 -175v-647q0 -98 -34 -175t-91 -131.5t-134 -83t-163 -28.5t-163 28.5t-134 83t-90 131t-33 175.5zM299 412q0 -106 55.5 -172t155.5 -66t156.5 65.5t56.5 172.5v635q0 106 -56.5 171.5 t-156.5 65.5t-155.5 -65.5t-55.5 -171.5v-635z" />
<glyph unicode="1" d="M199 981v231l284 246h209v-1458h-209v1231z" />
<glyph unicode="2" d="M94 0v186l561 682q41 51 59.5 95.5t18.5 99.5q0 98 -55 159.5t-158 61.5q-41 0 -80 -12t-68.5 -39t-48 -70t-18.5 -104h-209q0 92 32 169t88 130t134 82.5t170 29.5q94 0 172 -28.5t133.5 -81.5t86 -129t30.5 -170q0 -49 -9 -88t-25.5 -76t-42 -74t-60.5 -78l-457 -559 h594v-186h-848z" />
<glyph unicode="3" d="M51 395h209q4 -57 24.5 -99t52.5 -69.5t74 -40t87 -12.5q102 0 169.5 62.5t67.5 179.5q0 111 -60.5 175t-182.5 64h-35v183h35q115 0 168 60t53 161q0 111 -62.5 168t-152.5 57q-96 0 -153.5 -55t-65.5 -154h-209q4 92 38.5 166t92 125t133.5 79t164 28q92 0 169.5 -30 t134 -83t88.5 -129t32 -166q0 -117 -48.5 -193.5t-134.5 -117.5q94 -41 149.5 -125t55.5 -219q0 -104 -36 -184.5t-96 -133.5t-141 -79.5t-173 -26.5q-88 0 -167 23.5t-140.5 73.5t-98.5 128t-41 184z" />
<glyph unicode="4" d="M37 219v195l514 1044h225l-512 -1044h363v340h202v-340h156v-195h-156v-219h-202v219h-590z" />
<glyph unicode="5" d="M94 377h209q12 -98 63.5 -150.5t149.5 -52.5q94 0 152 57q47 47 58 115t11 141q0 66 -9 121.5t-33.5 96t-65.5 64.5t-105 24q-90 0 -140 -39t-67 -92h-190v796h786v-186h-598v-385q37 39 99.5 61.5t142.5 22.5q86 0 151.5 -24.5t110.5 -69.5q41 -41 66.5 -88.5t39 -96.5 t17.5 -101.5t4 -103.5q0 -117 -21.5 -212t-101.5 -175q-49 -49 -124.5 -81.5t-182.5 -32.5q-104 0 -184 32.5t-127 79.5q-59 59 -82 130t-29 149z" />
<glyph unicode="6" d="M80 424q0 90 30.5 176t77.5 182l332 676h223l-313 -627q29 12 61.5 17.5t67.5 5.5q80 0 149.5 -29.5t122 -85t82 -133.5t29.5 -174q0 -100 -31.5 -182t-89 -140.5t-136.5 -90t-173 -31.5t-174 29.5t-137.5 87t-89 138.5t-31.5 181zM289 428q0 -117 61.5 -185.5 t159.5 -68.5t160.5 68.5t62.5 185.5q0 109 -59.5 180.5t-163.5 71.5q-98 0 -159.5 -66.5t-61.5 -185.5z" />
<glyph unicode="7" d="M94 1042v416h869v-186l-488 -1272h-225l489 1272h-444v-230h-201z" />
<glyph unicode="8" d="M61 412q0 66 17.5 119t45.5 95t63.5 73.5t74.5 54.5q-72 43 -124 119.5t-52 193.5q0 92 33 166t90 127t135 81.5t166 28.5q90 0 167 -28.5t135 -81.5t91 -127t33 -166q0 -117 -52.5 -193.5t-123.5 -119.5q39 -23 74.5 -54.5t63.5 -73.5t45.5 -95t17.5 -119 q0 -98 -35 -177t-96.5 -134.5t-143.5 -84t-176 -28.5t-176 28.5t-142.5 84t-95.5 134t-35 177.5zM270 416q0 -51 18.5 -95.5t51.5 -77t76 -51t94 -18.5t95 18.5t76 51t50.5 77t18.5 95.5t-18.5 95t-50.5 77t-76 52t-95 19t-94 -19t-76 -52t-51.5 -77t-18.5 -95zM295 1061 q0 -98 59.5 -159.5t155.5 -61.5t156.5 61.5t60.5 159.5q0 96 -60.5 159.5t-156.5 63.5t-155.5 -63.5t-59.5 -159.5z" />
<glyph unicode="9" d="M80 1026q0 100 31.5 182t89 140.5t136.5 90t173 31.5t174 -29.5t137.5 -87t89 -137.5t31.5 -182q0 -90 -30.5 -176t-77.5 -182l-332 -676h-223l313 627q-29 -12 -62.5 -17.5t-68.5 -5.5q-80 0 -148.5 30t-121 85t-82 133t-29.5 174zM289 1030q0 -109 58.5 -180.5 t162.5 -71.5q98 0 160.5 66.5t62.5 185.5q0 117 -62.5 185.5t-160.5 68.5t-159.5 -68.5t-61.5 -185.5z" />
<glyph unicode=":" horiz-adv-x="565" d="M160 143q0 61 44 104.5t105 43.5t104.5 -43.5t43.5 -104.5t-43 -105t-105 -44q-61 0 -105 44t-44 105zM160 711q0 61 44 105t105 44t104.5 -44t43.5 -105t-43 -105.5t-105 -44.5q-61 0 -105 44t-44 106z" />
<glyph unicode=";" horiz-adv-x="550" d="M160 711q0 61 44 105t105 44t104.5 -44t43.5 -105t-43 -105.5t-105 -44.5q-61 0 -105 44t-44 106zM190 238h238v-361l-238 -194v555z" />
<glyph unicode="&#x3c;" d="M133 475v187l756 362v-221l-502 -236l502 -233v-221z" />
<glyph unicode="=" d="M70 272v195h882v-195h-882zM70 670v194h882v-194h-882z" />
<glyph unicode="&#x3e;" d="M133 113v221l502 233l-502 236v221l756 -362v-187z" />
<glyph unicode="?" horiz-adv-x="976" d="M111 1077q0 86 30.5 159t86 125t130 80.5t160.5 28.5q84 0 159 -26.5t130 -77.5t88 -124t33 -163q0 -74 -29 -134t-70 -118l-157 -221q-16 -23 -26.5 -54.5t-10.5 -55.5v-62h-209v72q0 63 16.5 108t53.5 95l159 215q29 37 46.5 74.5t17.5 80.5q0 86 -55.5 145.5 t-145.5 59.5q-96 0 -147.5 -61.5t-51.5 -145.5h-208zM397 127q0 55 38 94t93 39t94.5 -39t39.5 -94t-39 -94t-95 -39q-55 0 -93 39t-38 94z" />
<glyph unicode="@" horiz-adv-x="1980" d="M70 387v289q0 188 51 336.5t149.5 252t240.5 158t323 54.5h315q182 0 324.5 -54.5t240.5 -158t149.5 -252t51.5 -336.5v-252q0 -86 -15.5 -164t-55.5 -135t-108.5 -91t-176.5 -34h-105q-82 0 -135 31.5t-76 77.5q-55 -68 -138 -94.5t-185 -26.5q-98 0 -165 23.5 t-114 70.5q-82 86 -82 223q0 131 89 215t270 84h274v74q0 98 -52.5 146t-174.5 48q-86 0 -135.5 -22.5t-92.5 -77.5l-137 129q74 86 159 118t214 32q428 0 428 -357v-413q0 -51 31.5 -79t72.5 -28h47q92 0 126 50t34 169v291q0 293 -140 453.5t-421 160.5h-320 q-281 0 -421 -160.5t-140 -453.5v-303q0 -293 140.5 -455t420.5 -162h402v-178h-399q-180 0 -322.5 54.5t-241 158t-149.5 252t-51 336.5zM762 309q0 -72 46 -109.5t144 -37.5q59 0 106.5 9t88.5 50q45 45 45 154v84h-244q-92 0 -139 -39t-47 -111z" />
<glyph unicode="A" horiz-adv-x="1210" d="M-18 0l534 1458h178l535 -1458h-236l-100 293h-576l-100 -293h-235zM383 481h448l-221 647z" />
<glyph unicode="B" horiz-adv-x="1288" d="M156 0v1458h567q205 0 322.5 -106.5t117.5 -292.5q0 -59 -16.5 -109.5t-44 -90.5t-63 -67.5t-72.5 -41.5q43 -16 81.5 -46t69.5 -71t49.5 -96t18.5 -125q0 -100 -33 -177t-91 -129.5t-139 -79t-178 -26.5h-589zM377 199h348q117 0 178.5 62.5t61.5 160.5t-61.5 159.5 t-178.5 61.5h-348v-444zM377 842h328q106 0 171.5 53.5t65.5 155.5t-65.5 155.5t-171.5 53.5h-328v-418z" />
<glyph unicode="C" horiz-adv-x="1216" d="M102 729q0 104 2 189.5t15.5 155t42 129t82.5 112.5q76 76 172 115.5t211 39.5q203 0 342 -114.5t178 -333.5h-225q-27 111 -99.5 180.5t-195.5 69.5q-66 0 -121 -23.5t-94 -64.5q-27 -29 -44.5 -63t-26.5 -84t-13 -123.5t-4 -184.5t4 -184.5t13 -123.5t26.5 -84 t44.5 -63q39 -41 94 -64.5t121 -23.5q123 0 196.5 70t100.5 180h223q-18 -109 -64.5 -192.5t-115 -140t-155.5 -86t-185 -29.5q-115 0 -211.5 40t-171.5 115q-53 53 -82 112.5t-42.5 129.5t-15.5 155t-2 189z" />
<glyph unicode="D" horiz-adv-x="1294" d="M156 0v1458h512q115 0 211 -33.5t165 -103.5q59 -59 90 -128t43.5 -143.5t13.5 -152.5t1 -158t-1 -160.5t-13.5 -159.5t-43 -150.5t-90.5 -131.5q-70 -70 -166 -103.5t-210 -33.5h-512zM377 199h268q158 0 248 98q57 63 67.5 176.5t10.5 265.5t-10.5 255.5t-67.5 166.5 q-90 98 -248 99h-268v-1061z" />
<glyph unicode="E" horiz-adv-x="1165" d="M156 0v1458h931v-198h-710v-426h606v-197h-606v-438h710v-199h-931z" />
<glyph unicode="F" horiz-adv-x="1128" d="M156 0v1458h931v-198h-710v-445h606v-199h-606v-616h-221z" />
<glyph unicode="G" horiz-adv-x="1259" d="M102 729q0 104 2 189.5t15.5 155t42 129t82.5 112.5q76 76 171 115.5t212 39.5t208 -35.5t157.5 -97t108.5 -143.5t56 -176h-223q-29 121 -106.5 187.5t-200.5 66.5q-66 0 -121 -24.5t-94 -65.5q-27 -29 -44.5 -63t-26.5 -84t-13 -122.5t-4 -183.5t4 -184.5t13 -123.5 t26.5 -84t44.5 -63q39 -41 94 -64.5t121 -23.5q72 0 133 27t104 76q41 47 57.5 102t16.5 127v82h-311v188h532v-223q0 -141 -29.5 -237.5t-101.5 -173.5q-84 -88 -184.5 -127t-216.5 -39q-115 0 -211.5 40t-171.5 115q-53 53 -82 112.5t-42.5 129.5t-15.5 155t-2 189z" />
<glyph unicode="H" horiz-adv-x="1345" d="M156 0v1458h221v-622h592v622h221v-1458h-221v637h-592v-637h-221z" />
<glyph unicode="I" horiz-adv-x="532" d="M156 0v1458h221v-1458h-221z" />
<glyph unicode="J" horiz-adv-x="966" d="M-8 129l147 145q39 -39 83 -63.5t124 -24.5q123 0 193.5 74t70.5 217v981h221v-997q0 -113 -37.5 -202t-104 -148.5t-155 -91t-188.5 -31.5q-113 0 -195.5 32.5t-158.5 108.5z" />
<glyph unicode="K" horiz-adv-x="1277" d="M156 0v1458h221v-733l596 733h270l-473 -571l522 -887h-260l-409 719l-246 -295v-424h-221z" />
<glyph unicode="L" horiz-adv-x="1105" d="M156 0v1458h221v-1259h702v-199h-923z" />
<glyph unicode="M" horiz-adv-x="1595" d="M156 0v1458h221l426 -907l418 907h221v-1458h-221v975l-336 -711h-164l-344 711v-975h-221z" />
<glyph unicode="N" horiz-adv-x="1409" d="M156 0v1458h202l674 -1024v1024h221v-1458h-202l-674 1026v-1026h-221z" />
<glyph unicode="O" horiz-adv-x="1253" d="M102 729q0 104 2 189.5t15.5 155t42 129t82.5 112.5q76 76 171 115.5t212 39.5t213 -39.5t172 -115.5q53 -53 81.5 -112.5t41 -129t14.5 -155t2 -189.5t-2 -189t-14.5 -155t-41 -129t-81.5 -113q-76 -76 -172.5 -115.5t-212.5 -39.5q-117 0 -212.5 40t-170.5 115 q-53 53 -82 112.5t-42.5 129.5t-15.5 155t-2 189zM324 729q0 -111 3 -183.5t12 -122.5t26.5 -84t44.5 -63q39 -41 95 -65.5t122 -24.5t122 25t95 65q27 29 44 63t26.5 84t12.5 122.5t3 183.5t-3 183.5t-12.5 122.5t-27 84t-43.5 63q-39 41 -95.5 65.5t-121.5 24.5 q-66 0 -122 -24.5t-95 -65.5q-27 -29 -44.5 -63t-26.5 -84t-12 -122.5t-3 -183.5z" />
<glyph unicode="P" horiz-adv-x="1218" d="M156 0v1458h553q106 0 192 -33.5t147.5 -92t94.5 -139.5t33 -177q0 -94 -33 -176t-94.5 -140.5t-147.5 -92.5t-192 -34h-332v-573h-221zM377 774h319q117 0 187.5 62.5t70.5 179.5t-70.5 180.5t-187.5 63.5h-319v-486z" />
<glyph unicode="Q" horiz-adv-x="1253" d="M102 729q0 104 2 189.5t15.5 155t42 129t82.5 112.5q76 76 171 115.5t212 39.5t213 -39.5t172 -115.5q53 -53 81.5 -112.5t41 -129t14.5 -154.5t2 -190q0 -92 -1 -169t-10.5 -140.5t-27.5 -117.5t-55 -103l143 -142l-123 -123l-145 146q-63 -45 -141 -68.5t-164 -23.5 q-117 0 -212.5 40t-170.5 115q-53 53 -82 112.5t-42.5 129.5t-15.5 155t-2 189zM324 729q0 -111 3 -183.5t12 -122.5t26.5 -84t44.5 -63q39 -41 95 -65.5t122 -24.5q84 0 149 47l-153 154l122 123l142 -141q29 55 36 137t7 223q0 111 -3 183.5t-12.5 122.5t-27 84t-43.5 63 q-39 41 -95.5 65.5t-121.5 24.5q-66 0 -122 -24.5t-95 -65.5q-27 -29 -44.5 -63t-26.5 -84t-12 -122.5t-3 -183.5z" />
<glyph unicode="R" horiz-adv-x="1271" d="M156 0v1458h565q104 0 187 -31.5t142.5 -88t91.5 -135.5t32 -171q0 -158 -84 -255t-207 -132l336 -645h-258l-308 614h-276v-614h-221zM377 803h328q111 0 179 59t68 168t-68.5 169.5t-178.5 60.5h-328v-457z" />
<glyph unicode="S" horiz-adv-x="1138" d="M27 180l147 146q80 -80 170 -110t203 -30q143 0 222 58.5t79 165.5q0 100 -57 151q-29 27 -62 39t-98 23l-172 24q-178 25 -277 117q-106 100 -106 278q0 96 33.5 174t96 135.5t154 88t203.5 30.5q145 0 252 -38.5t201 -126.5l-142 -140q-68 66 -146.5 89.5t-170.5 23.5 q-129 0 -197.5 -64.5t-68.5 -162.5q0 -41 13 -75t42 -61q57 -51 164 -67l166 -25q102 -16 163.5 -41.5t108.5 -66.5q59 -53 89 -129t30 -170q0 -100 -39 -180t-108.5 -135.5t-166 -84t-210.5 -28.5q-166 0 -289 43t-227 149z" />
<glyph unicode="T" horiz-adv-x="1077" d="M27 1260v198h1024v-198h-402v-1260h-221v1260h-401z" />
<glyph unicode="U" horiz-adv-x="1312" d="M133 492v966h221v-956q0 -147 82 -231.5t219 -84.5t220 84t83 232v956h222v-966q0 -113 -40 -206t-111 -159t-167 -102.5t-207 -36.5t-207 36.5t-165.5 102.5t-109.5 159t-40 206z" />
<glyph unicode="V" horiz-adv-x="1122" d="M-6 1458h229l336 -1061l336 1061h233l-483 -1458h-172z" />
<glyph unicode="W" horiz-adv-x="1738" d="M0 1458h233l254 -1042l293 1042h178l293 -1042l254 1042h234l-381 -1458h-193l-297 1022l-295 -1022h-192z" />
<glyph unicode="X" horiz-adv-x="1130" d="M-6 0l450 748l-421 710h253l287 -522l289 522h254l-422 -710l453 -748h-256l-318 559l-315 -559h-254z" />
<glyph unicode="Y" horiz-adv-x="1081" d="M-6 1458h242l305 -641l305 641h241l-436 -858v-600h-221v600z" />
<glyph unicode="Z" horiz-adv-x="1060" d="M63 0v190l674 1070h-645v198h905v-180l-678 -1079h678v-199h-934z" />
<glyph unicode="[" horiz-adv-x="641" d="M141 -152v1762h447v-187h-238v-1388h238v-187h-447z" />
<glyph unicode="\" horiz-adv-x="708" d="M-35 1593h201l577 -1745h-200z" />
<glyph unicode="]" horiz-adv-x="641" d="M53 33h242v1392h-242v185h447v-1762h-447v185z" />
<glyph unicode="^" horiz-adv-x="1099" d="M102 821l353 652h190l350 -652h-217l-229 424l-230 -424h-217z" />
<glyph unicode="_" horiz-adv-x="1099" d="M-35 -209h1170v-143h-1170v143z" />
<glyph unicode="`" horiz-adv-x="954" d="M199 1559h231l154 -332h-158z" />
<glyph unicode="a" horiz-adv-x="1015" d="M53 305q0 131 89 215t270 84h274v74q0 98 -52 146t-175 48q-86 0 -135.5 -22.5t-92.5 -77.5l-137 129q74 86 159 118t214 32q428 0 428 -357v-694h-205v94q-57 -57 -118.5 -81.5t-157.5 -24.5q-98 0 -165 23.5t-114 70.5q-82 86 -82 223zM256 309q0 -72 46 -109.5 t144 -37.5q59 0 106.5 9t88.5 50q45 45 45 154v84h-244q-92 0 -139 -39t-47 -111z" />
<glyph unicode="b" horiz-adv-x="1062" d="M131 0v1458h209v-524q57 68 122.5 92.5t149.5 24.5q78 0 143.5 -25t108.5 -68q39 -39 62.5 -90t36 -108.5t15.5 -119t3 -120.5t-3 -120.5t-15.5 -120t-36 -109.5t-62.5 -90q-43 -43 -109.5 -67.5t-144.5 -24.5q-86 0 -150.5 25.5t-123.5 97.5v-111h-205zM340 520 q0 -70 7 -132t30.5 -109.5t66.5 -76t113 -28.5q72 0 114 28.5t64.5 76t29.5 109.5t7 132t-7 132.5t-29.5 109.5t-64.5 74.5t-114 27.5q-70 0 -113 -27.5t-66.5 -74.5t-30.5 -109.5t-7 -132.5z" />
<glyph unicode="c" horiz-adv-x="913" d="M78 520q0 145 40 246.5t104.5 165t147.5 91.5t171 28q109 0 188.5 -34t153.5 -112l-144 -139q-49 53 -93 75.5t-105 22.5q-123 0 -193 -92q-35 -43 -48 -101.5t-13 -150.5t13 -151.5t48 -102.5q70 -92 193 -92q61 0 105 22.5t93 75.5l144 -137q-74 -78 -154 -112.5 t-188 -34.5q-88 0 -171 28.5t-147.5 92t-104.5 165t-40 246.5z" />
<glyph unicode="d" horiz-adv-x="1062" d="M82 520q0 59 3 120.5t15.5 119t36 109t62.5 89.5q43 43 108.5 68t143.5 25q84 0 149.5 -25t122.5 -92v524h209v-1458h-205v111q-59 -72 -123.5 -97.5t-150.5 -25.5q-78 0 -144.5 24.5t-109.5 67.5q-39 39 -62.5 90t-36 109.5t-15.5 120t-3 120.5zM291 520q0 -70 7 -132 t30.5 -109.5t66.5 -76t113 -28.5q72 0 114 28.5t64.5 76t29.5 109.5t7 132t-7 132.5t-29.5 109.5t-64.5 74.5t-114 27.5q-70 0 -113 -27.5t-66.5 -74.5t-30.5 -109.5t-7 -132.5z" />
<glyph unicode="e" horiz-adv-x="1034" d="M78 520q0 254 119.5 392.5t320.5 138.5q104 0 186 -37t138.5 -102.5t86 -157.5t29.5 -203v-92h-673q0 -135 67.5 -213t196.5 -78q88 0 142 25.5t110 80.5l133 -124q-39 -39 -80 -70t-87 -51.5t-100.5 -30.5t-121.5 -10q-98 0 -183.5 27.5t-147.5 90t-99 165t-37 249.5z M285 604h467q-2 47 -7.5 77t-21.5 64q-25 59 -78 95.5t-127 36.5t-128 -36t-79 -96q-16 -35 -20 -64.5t-6 -76.5z" />
<glyph unicode="f" horiz-adv-x="602" d="M45 860v160h119v160q0 55 17.5 107t52 92t88 64.5t127.5 24.5h131v-178h-93q-59 0 -86.5 -31.5t-27.5 -89.5v-149h207v-160h-207v-860h-209v860h-119z" />
<glyph unicode="g" horiz-adv-x="1054" d="M82 539q0 133 20.5 239.5t96.5 182.5q90 90 250 90q84 0 148.5 -26t123.5 -97v110h203v-1032q0 -96 -31 -176t-88 -138.5t-139 -91t-187 -32.5q-119 0 -201.5 30.5t-164.5 106.5l133 133q49 -47 98 -69.5t127 -22.5q66 0 113 21.5t75.5 58.5t42 84t13.5 100v133 q-57 -68 -123 -93t-146 -25q-78 0 -141 24.5t-106 67.5q-76 76 -96.5 182.5t-20.5 239.5zM291 539q0 -61 7 -120t28.5 -105t64.5 -73.5t113 -27.5q72 0 112.5 27.5t63 73.5t29 105t6.5 120t-6.5 119.5t-29 104.5t-63.5 73.5t-112 27.5q-70 0 -113 -27.5t-64.5 -73.5 t-28.5 -104.5t-7 -119.5z" />
<glyph unicode="h" horiz-adv-x="1089" d="M131 0v1458h209v-524q53 59 121.5 88t146.5 29q86 0 153.5 -28t114 -78t70 -120.5t23.5 -154.5v-670h-209v637q0 119 -60.5 173t-148.5 54t-149.5 -55t-61.5 -172v-637h-209z" />
<glyph unicode="i" horiz-adv-x="471" d="M100 1376q0 55 40 95t96 40q55 0 95 -40t40 -95t-40 -95t-95 -40t-95.5 40t-40.5 95zM131 0v1038h209v-1038h-209z" />
<glyph unicode="j" horiz-adv-x="471" d="M-74 -246h92q63 0 88 31t25 90v1163h209v-1175q0 -57 -16.5 -109.5t-51 -91.5t-89 -62.5t-128.5 -23.5h-129v178zM100 1376q0 55 40 95t96 40q55 0 95 -40t40 -95t-40 -95t-95 -40t-95.5 40t-40.5 95z" />
<glyph unicode="k" horiz-adv-x="1052" d="M131 0v1458h209v-899l403 479h254l-360 -407l405 -631h-258l-290 479l-154 -174v-305h-209z" />
<glyph unicode="l" horiz-adv-x="567" d="M125 287v1171h209v-1159q0 -59 24.5 -90t87.5 -31h93v-178h-129q-74 0 -128.5 23.5t-89 62.5t-51 91t-16.5 110z" />
<glyph unicode="m" horiz-adv-x="1726" d="M131 0v1038h205v-104q53 57 126 87t150 30q197 0 295 -152q125 152 326 152q80 0 147.5 -25t114.5 -70q59 -59 85 -131.5t26 -160.5v-664h-209v633q0 121 -60.5 176t-148.5 55q-43 0 -82 -13t-68.5 -41t-47 -70t-17.5 -97v-643h-209v633q0 121 -60.5 176t-148.5 55 q-43 0 -83 -13t-68.5 -42t-46 -73t-17.5 -103v-633h-209z" />
<glyph unicode="n" horiz-adv-x="1093" d="M131 0v1038h205v-104q53 59 126 88t150 29q80 0 144.5 -25t111.5 -70q59 -59 82 -131.5t23 -160.5v-664h-209v633q0 121 -60.5 176t-148.5 55q-43 0 -83 -13t-68.5 -42t-46 -73t-17.5 -103v-633h-209z" />
<glyph unicode="o" horiz-adv-x="1030" d="M82 520q0 131 24.5 230.5t98.5 177.5q51 53 127 88t182 35t183 -35t128 -88q74 -78 98.5 -177.5t24.5 -230.5q0 -133 -24.5 -232.5t-98.5 -176.5q-51 -53 -127.5 -88t-183.5 -35q-106 0 -182 34.5t-127 88.5q-74 78 -98.5 177t-24.5 232zM291 520q0 -86 12 -161.5 t59 -122.5q61 -61 152 -62q92 0 154 62q47 47 59 122.5t12 161.5t-12 162t-59 123q-59 59 -154 59q-92 0 -152 -59q-47 -47 -59 -123t-12 -162z" />
<glyph unicode="p" horiz-adv-x="1062" d="M131 -420v1458h205v-110q59 72 123.5 97.5t150.5 25.5q78 0 144.5 -25t109.5 -68q39 -39 62.5 -90t36 -108.5t15.5 -119t3 -120.5t-3 -120.5t-15.5 -120t-36 -109.5t-62.5 -90q-43 -43 -108.5 -67.5t-143.5 -24.5q-84 0 -149.5 25.5t-122.5 92.5v-526h-209zM340 520 q0 -70 7 -132t30.5 -109.5t66.5 -76t113 -28.5q72 0 114 28.5t64.5 76t29.5 109.5t7 132t-7 132.5t-29.5 109.5t-64.5 74.5t-114 27.5q-70 0 -113 -27.5t-66.5 -74.5t-30.5 -109.5t-7 -132.5z" />
<glyph unicode="q" horiz-adv-x="1062" d="M82 520q0 59 3 120.5t15.5 119t36 109t62.5 89.5q43 43 109.5 68t144.5 25q86 0 150.5 -26t123.5 -97v110h205v-1458h-209v526q-57 -68 -122.5 -93t-149.5 -25q-78 0 -143.5 24.5t-108.5 67.5q-39 39 -62.5 90t-36 109.5t-15.5 120t-3 120.5zM291 520q0 -70 7 -132 t30.5 -109.5t66.5 -76t113 -28.5q72 0 114 28.5t64.5 76t29.5 109.5t7 132t-7 132.5t-29.5 109.5t-64.5 74.5t-114 27.5q-70 0 -113 -27.5t-66.5 -74.5t-30.5 -109.5t-7 -132.5z" />
<glyph unicode="r" horiz-adv-x="829" d="M131 0v1038h205v-112q41 55 114.5 90t161.5 35q76 0 135.5 -22.5t112.5 -76.5l-158 -157q-35 35 -68.5 52t-86.5 17q-86 0 -146.5 -62.5t-60.5 -170.5v-631h-209z" />
<glyph unicode="s" horiz-adv-x="952" d="M31 137l137 137q63 -66 142 -87t157 -21q96 0 161.5 35t65.5 108q0 53 -31.5 85t-107.5 38l-166 14q-147 12 -227 81t-80 206q0 76 30.5 135.5t84 99.5t124 61.5t152.5 21.5q117 0 215 -27t170 -90l-131 -133q-49 41 -115.5 58.5t-140.5 17.5q-94 0 -141 -37t-47 -97 q0 -47 29.5 -78.5t113.5 -39.5l164 -15q147 -12 228 -83t81 -210q0 -82 -32.5 -143t-90 -102t-137.5 -62.5t-172 -21.5q-127 0 -235.5 29.5t-200.5 119.5z" />
<glyph unicode="t" horiz-adv-x="630" d="M37 860v160h119v315h209v-315h200v-160h-200v-561q0 -57 27.5 -89t86.5 -32h86v-178h-125q-74 0 -127 24.5t-88 64.5t-52 92t-17 108v571h-119z" />
<glyph unicode="u" horiz-adv-x="1093" d="M121 375v663h209v-632q0 -121 60.5 -176.5t148.5 -55.5t151.5 56.5t63.5 175.5v632h209v-1038h-205v104q-53 -59 -126 -87.5t-151 -28.5q-80 0 -144.5 24.5t-111.5 69.5q-59 59 -81.5 132t-22.5 161z" />
<glyph unicode="v" horiz-adv-x="894" d="M-18 1038h221l246 -731l243 731h221l-381 -1038h-170z" />
<glyph unicode="w" horiz-adv-x="1452" d="M-18 1038h221l200 -731l242 731h162l240 -731l200 731h223l-323 -1038h-178l-244 725l-242 -725h-180z" />
<glyph unicode="x" horiz-adv-x="960" d="M10 0l357 530l-342 508h251l205 -338l203 338h252l-340 -508l354 -530h-252l-217 354l-219 -354h-252z" />
<glyph unicode="y" horiz-adv-x="888" d="M-18 1038h221l248 -731l241 731h223l-458 -1245q-29 -82 -76 -129q-43 -43 -98.5 -59.5t-114.5 -16.5h-84v189h53q66 0 96.5 23.5t53.5 86.5l57 162z" />
<glyph unicode="z" horiz-adv-x="890" d="M53 0v166l516 686h-487v186h745v-166l-520 -686h520v-186h-774z" />
<glyph unicode="{" horiz-adv-x="763" d="M57 637v184h76q35 0 58.5 11.5t39.5 27.5q37 37 37 123v342q0 74 16.5 124t57.5 91q35 35 88 52.5t131 17.5h146v-187h-80q-49 0 -76 -6t-43 -22t-23.5 -47t-7.5 -84v-330q0 -49 -12 -84t-30.5 -57.5t-43 -38t-49.5 -25.5q25 -10 49.5 -25.5t43 -38t30.5 -57.5t12 -84 v-329q0 -53 7.5 -84t23.5 -48q16 -16 43 -22t76 -6h80v-187h-146q-78 0 -131 17.5t-88 52.5q-41 41 -57.5 91t-16.5 124v342q0 86 -37 123q-16 16 -39.5 27.5t-58.5 11.5h-76z" />
<glyph unicode="|" horiz-adv-x="622" d="M207 -152v1762h209v-1762h-209z" />
<glyph unicode="}" horiz-adv-x="763" d="M57 35h80q49 0 76 6t43 22t23.5 47t7.5 85v329q0 49 12 84t31.5 57.5t44 38t49.5 25.5q-25 10 -49.5 25.5t-44 38t-31.5 57.5t-12 84v330q0 53 -7.5 83.5t-23.5 47.5q-16 16 -43 22t-76 6h-80v187h146q78 0 131 -17.5t88 -52.5q41 -41 57.5 -91t16.5 -124v-342 q0 -86 36 -123q16 -16 41 -27.5t60 -11.5h74v-184h-74q-35 0 -59.5 -11.5t-41.5 -27.5q-37 -37 -36 -123v-342q0 -74 -16.5 -124t-57.5 -91q-35 -35 -88 -52.5t-131 -17.5h-146v187z" />
<glyph unicode="~" horiz-adv-x="1105" d="M53 571q45 45 83 76t73 49.5t69.5 26.5t75.5 8q59 0 111.5 -18.5t116.5 -48.5q43 -23 81.5 -36.5t81.5 -13.5t80 16.5t95 74.5l133 -132q-45 -45 -83 -75.5t-73 -49t-70.5 -26.5t-76.5 -8q-59 0 -112.5 18.5t-117.5 48.5q-43 23 -81 36t-81 13q-20 0 -39.5 -3t-39 -12 t-43 -27.5t-52.5 -47.5z" />
<glyph unicode="&#xa1;" horiz-adv-x="610" d="M174 911q0 55 39 94t94 39t94 -39t39 -94t-39 -93t-94 -38t-94 38t-39 93zM180 -420l47 1024h158l49 -1024h-254z" />
<glyph unicode="&#xa2;" horiz-adv-x="950" d="M78 750q0 115 27.5 204.5t77.5 156.5t119 106.5t151 54.5v186h163v-184q88 -10 156 -46t133 -106l-139 -135q-41 45 -79 67.5t-89 30.5v-671q51 8 89 30.5t79 67.5l139 -135q-66 -70 -133 -105.5t-156 -46.5v-225h-163v227q-82 14 -151 54.5t-119 107t-77.5 156.5 t-27.5 205zM287 750q0 -90 15 -148.5t48 -103.5q49 -66 121 -80v663q-70 -14 -119 -80q-33 -45 -49 -102t-16 -149z" />
<glyph unicode="&#xa3;" horiz-adv-x="1085" d="M53 641v160h127v196q0 115 39 203t104.5 147.5t154.5 91t190 31.5q113 0 195.5 -32.5t158.5 -108.5l-148 -145q-39 39 -82.5 63.5t-123.5 24.5q-123 0 -194 -74t-71 -217v-180h265v-160h-265v-442h619v-199h-842v641h-127z" />
<glyph unicode="&#xa4;" horiz-adv-x="1292" d="M104 166l150 151q-37 53 -57.5 118t-20.5 136q0 72 20.5 136.5t57.5 117.5l-150 150l138 137l149 -149q111 76 254 75q143 0 254 -75l152 149l137 -137l-152 -150q37 -53 57.5 -117.5t20.5 -136.5t-20.5 -136t-57.5 -118l152 -151l-137 -137l-152 151 q-53 -37 -117.5 -57.5t-136.5 -20.5t-136.5 20.5t-117.5 57.5l-149 -151zM367 571q0 -57 21.5 -108t59 -89t89 -59.5t108.5 -21.5t108.5 21.5t89.5 59.5t59.5 89t21.5 108t-21.5 107.5t-59.5 88.5t-89.5 59.5t-108.5 21.5t-108.5 -21.5t-89 -59.5t-59 -88t-21.5 -108z" />
<glyph unicode="&#xa5;" horiz-adv-x="1044" d="M-25 1458h242l307 -643l303 643h240l-299 -594h178v-159h-260l-53 -105v-106h313v-160h-313v-334h-221v334h-314v160h314v106l-54 105h-260v159h178z" />
<glyph unicode="&#xa6;" horiz-adv-x="634" d="M207 -152v717h209v-717h-209zM207 893v717h209v-717h-209z" />
<glyph unicode="&#xa7;" horiz-adv-x="1042" d="M117 530q0 59 17.5 110.5t46 91.5t64.5 69.5t70 48.5q-76 37 -124 99.5t-48 174.5q0 72 26 134.5t75 109.5t119.5 74.5t160.5 27.5t161 -25.5t120 -69.5t75.5 -106.5t28.5 -135.5h-200q-6 84 -56.5 119.5t-128.5 35.5q-86 0 -133 -41t-47 -117q0 -63 41 -103t113 -62 l143 -43q141 -43 216 -136t75 -245q0 -59 -18.5 -110.5t-47 -91.5t-63.5 -69.5t-70 -48.5q78 -35 129 -103.5t51 -185.5q0 -88 -31.5 -155.5t-86 -113.5t-125 -70.5t-148.5 -24.5q-76 0 -145.5 20.5t-124.5 63.5t-89 108.5t-38 155.5h205q6 -76 56 -119t136 -43 q88 0 137.5 46t49.5 126q0 55 -37 104.5t-123 75.5l-143 44q-141 43 -215 135t-74 245zM322 535q0 -59 16 -97.5t41 -64.5q53 -57 145 -58q90 0 144 58q25 27 42 64t17 98q0 106 -59 163q-29 27 -63 42.5t-81 15.5q-92 0 -145 -58q-29 -29 -43 -66.5t-14 -96.5z" />
<glyph unicode="&#xa8;" horiz-adv-x="954" d="M137 1346q0 47 34 80.5t81 33.5t82 -33.5t35 -80.5t-35 -82t-82 -35t-81 34.5t-34 82.5zM586 1346q0 47 34.5 80.5t81.5 33.5t81 -33.5t34 -80.5t-33.5 -82t-81.5 -35q-47 0 -81.5 34.5t-34.5 82.5z" />
<glyph unicode="&#xa9;" horiz-adv-x="1695" d="M106 729q0 154 58.5 289t159 235.5t235.5 158.5t289 58t289 -58t235.5 -158.5t158.5 -235.5t58 -289t-58 -289t-158.5 -235.5t-236 -158.5t-288.5 -58q-154 0 -289 58t-235.5 158.5t-159 235.5t-58.5 289zM256 729q0 -127 46 -236.5t126 -191.5t188.5 -128t231.5 -46 t231.5 46t188.5 128t126 191.5t46 236.5t-46 236.5t-126 191.5t-188.5 128t-231.5 46t-231.5 -46t-188.5 -128t-126 -191.5t-46 -236.5zM494 729q0 94 26.5 170t73.5 129t115.5 82t150.5 29q86 0 147.5 -27t120.5 -80l-94 -96q-47 41 -84 56.5t-90 15.5q-117 0 -169 -79 t-52 -200t52 -199.5t169 -78.5q53 0 90 15t84 56l94 -96q-59 -53 -120.5 -80t-147.5 -27q-82 0 -150.5 29t-115.5 82t-73.5 129t-26.5 170z" />
<glyph unicode="&#xaa;" horiz-adv-x="856" d="M72 872q0 104 71.5 172t212.5 68h215v57q0 78 -41 115t-137 37q-68 0 -105.5 -17.5t-72.5 -62.5l-113 107q59 70 127 94t172 24q340 0 340 -284v-553h-166v73q-45 -45 -93 -63t-124 -18q-78 0 -130 17t-91 56q-33 33 -49 79t-16 99zM238 877q0 -55 33.5 -84t111.5 -29 q47 0 85 7t69 38q35 33 34 119v65h-190q-72 0 -107.5 -30.5t-35.5 -85.5z" />
<glyph unicode="&#xab;" horiz-adv-x="1142" d="M41 557l471 469v-252l-219 -217l219 -219v-252zM559 557l471 469v-252l-221 -217l221 -219v-252z" />
<glyph unicode="&#xac;" d="M63 489v195h893v-483h-194v288h-699z" />
<glyph unicode="&#xad;" horiz-adv-x="802" d="M102 471v195h598v-195h-598z" />
<glyph unicode="&#xae;" horiz-adv-x="1695" d="M106 729q0 154 58.5 289t159 235.5t235.5 158.5t289 58t289 -58t235.5 -158.5t158.5 -235.5t58 -289t-58 -289t-158.5 -235.5t-236 -158.5t-288.5 -58q-154 0 -289 58t-235.5 158.5t-159 235.5t-58.5 289zM254 729q0 -127 46 -237.5t126 -191.5t188.5 -128t233.5 -47 t232.5 47t187.5 128t126 191.5t46 237.5t-46 237.5t-126 191.5t-187.5 128t-232.5 47t-233.5 -47t-188.5 -128t-126 -191.5t-46 -237.5zM590 330v800h301q57 0 104 -19t81 -53t53.5 -79t19.5 -94q0 -86 -46 -140.5t-112 -76.5l178 -338h-165l-164 317h-103v-317h-147z M737 764h135q59 0 95.5 35t36.5 86t-36 86t-96 35h-135v-242z" />
<glyph unicode="&#xaf;" horiz-adv-x="954" d="M160 1274v149h635v-149h-635z" />
<glyph unicode="&#xb0;" horiz-adv-x="894" d="M90 1124q0 74 27.5 139.5t77 113.5t114 77t137.5 29q74 0 139.5 -29t114 -77t77 -113.5t28.5 -139.5t-28.5 -138t-77 -113.5t-114 -77t-139.5 -27.5t-138 27.5t-113.5 77t-77 114t-27.5 137.5zM262 1124q0 -80 53.5 -134t130.5 -54q78 0 132.5 54t54.5 134q0 41 -14.5 75 t-40 60.5t-59.5 41t-73 14.5q-78 0 -131 -55.5t-53 -135.5z" />
<glyph unicode="&#xb1;" d="M70 0v195h882v-195h-882zM70 647v195h344v344h194v-344h344v-195h-344v-346h-194v346h-344z" />
<glyph unicode="&#xb2;" horiz-adv-x="647" d="M57 584v141l330 381q25 29 35 52.5t10 53.5q0 51 -27.5 82t-80.5 31q-41 0 -75 -23.5t-34 -89.5h-158q0 119 76 186.5t191 67.5q117 0 191.5 -67.5t74.5 -186.5q0 -63 -24.5 -105t-69.5 -95l-248 -287h342v-141h-533z" />
<glyph unicode="&#xb3;" horiz-adv-x="671" d="M57 831h158q2 -59 39 -87.5t84 -28.5q53 0 86 32.5t33 92.5q0 55 -32 89t-93 34h-23v135h23q59 0 86.5 32.5t27.5 79.5q0 57 -32.5 86t-77.5 29q-47 0 -77 -27.5t-34 -78.5h-155q4 117 79.5 182t186.5 65q57 0 106.5 -18t84 -51t55 -79t20.5 -101q0 -72 -28.5 -116 t-73.5 -67q47 -25 80.5 -71.5t33.5 -126.5q0 -66 -22.5 -115t-60 -82t-88 -49.5t-105.5 -16.5q-53 0 -103.5 14.5t-89.5 46.5t-63.5 81t-24.5 116z" />
<glyph unicode="&#xb4;" horiz-adv-x="954" d="M371 1227l153 332h232l-228 -332h-157z" />
<glyph unicode="&#xb5;" horiz-adv-x="1095" d="M121 -420v1458h209v-632q0 -121 61.5 -176.5t149.5 -55.5t150.5 55.5t62.5 176.5v632h209v-1038h-205v104q-53 -59 -125 -87.5t-150 -28.5q-92 0 -153 51v-459h-209z" />
<glyph unicode="&#xb6;" horiz-adv-x="1234" d="M43 1051q0 92 33 166.5t92 128t145 83t191 29.5h575v-1878h-209v1680h-221v-1680h-209v1069q-84 0 -156.5 33t-126 88t-84 128t-30.5 153z" />
<glyph unicode="&#xb7;" horiz-adv-x="512" d="M106 565q0 61 44.5 104.5t105.5 43.5t105.5 -43.5t44.5 -104.5t-44.5 -105t-105.5 -44t-105.5 44t-44.5 105z" />
<glyph unicode="&#xb8;" horiz-adv-x="954" d="M307 -432l144 301h167l-104 -301h-207z" />
<glyph unicode="&#xb9;" horiz-adv-x="497" d="M47 1126v179l178 153h158v-874h-158v698z" />
<glyph unicode="&#xba;" horiz-adv-x="868" d="M90 1044q0 104 19.5 183.5t78.5 140.5q41 41 100.5 69.5t145.5 28.5t146.5 -28.5t101.5 -69.5q59 -61 78.5 -140.5t19.5 -183.5q0 -106 -19.5 -185t-78.5 -140q-41 -41 -101.5 -69.5t-146.5 -28.5t-145.5 28.5t-100.5 69.5q-59 61 -78.5 140t-19.5 185zM260 1044 q0 -66 8 -126t47 -99q47 -47 119 -47q74 0 121 47q39 39 46 99t7 126t-7 125.5t-46 98.5q-47 47 -121 47q-72 0 -119 -47q-39 -39 -47 -98.5t-8 -125.5z" />
<glyph unicode="&#xbb;" horiz-adv-x="1142" d="M113 86v252l221 219l-221 217v252l473 -469zM631 86v252l219 219l-219 217v252l473 -469z" />
<glyph unicode="&#xbc;" horiz-adv-x="1585" d="M47 1126v179l178 153h158v-874h-158v698zM334 0l686 1458h166l-686 -1458h-166zM948 125v145l301 604h170l-301 -604h187v170h151v-170h82v-145h-82v-125h-151v125h-357z" />
<glyph unicode="&#xbd;" horiz-adv-x="1624" d="M47 1126v179l178 153h158v-874h-158v698zM317 0l687 1458h165l-686 -1458h-166zM1036 0v141l328 381q25 29 35 52.5t10 54.5q0 51 -27.5 81.5t-81.5 30.5q-41 0 -74.5 -23.5t-33.5 -88.5h-156q0 119 75 186.5t189 67.5q117 0 192 -67.5t75 -186.5q0 -63 -24.5 -105.5 t-69.5 -95.5l-248 -287h342v-141h-531z" />
<glyph unicode="&#xbe;" horiz-adv-x="1658" d="M57 831h158q2 -59 39 -87.5t84 -28.5q53 0 86 32.5t33 92.5q0 55 -32 89t-93 34h-23v135h23q59 0 86.5 32.5t27.5 79.5q0 57 -32.5 86t-77.5 29q-47 0 -77 -27.5t-34 -78.5h-155q4 117 79.5 182t186.5 65q57 0 106.5 -18t84 -51t55 -79t20.5 -101q0 -72 -28.5 -116 t-73.5 -67q47 -25 80.5 -71.5t33.5 -126.5q0 -66 -22.5 -115t-60 -82t-88 -49.5t-105.5 -16.5q-53 0 -103.5 14.5t-89.5 46.5t-63.5 81t-24.5 116zM420 0l686 1458h166l-686 -1458h-166zM1024 125v145l299 604h172l-301 -604h186v170h150v-170h82v-145h-82v-125h-150v125 h-356z" />
<glyph unicode="&#xbf;" horiz-adv-x="976" d="M78 -39q0 74 27.5 134.5t68.5 117.5l158 221q16 23 26.5 54.5t10.5 56.5v61h209v-74q0 -63 -16.5 -108t-53.5 -94l-160 -215q-29 -37 -45 -75t-16 -81q0 -86 54 -144.5t144 -58.5q96 0 147.5 60.5t51.5 144.5h209q0 -86 -31 -158.5t-86 -125t-130 -81t-161 -28.5 q-84 0 -157.5 27.5t-129 79t-88 124t-32.5 162.5zM342 911q0 55 39 94t94 39t94 -39t39 -94t-39 -93t-94 -38t-94 38t-39 93z" />
<glyph unicode="&#xc0;" horiz-adv-x="1210" d="M-18 0l534 1458h178l535 -1458h-236l-100 293h-576l-100 -293h-235zM319 1931h232l154 -332h-158zM383 481h448l-221 647z" />
<glyph unicode="&#xc1;" horiz-adv-x="1210" d="M-18 0l534 1458h178l535 -1458h-236l-100 293h-576l-100 -293h-235zM383 481h448l-221 647zM494 1599l153 332h232l-228 -332h-157z" />
<glyph unicode="&#xc2;" horiz-adv-x="1210" d="M-18 0l534 1458h178l535 -1458h-236l-100 293h-576l-100 -293h-235zM248 1599l264 330h176l264 -330h-174l-178 199l-178 -199h-174zM383 481h448l-221 647z" />
<glyph unicode="&#xc3;" horiz-adv-x="1210" d="M-18 0l534 1458h178l535 -1458h-236l-100 293h-576l-100 -293h-235zM246 1747q70 70 117 91.5t96 21.5q45 0 78.5 -12.5t74.5 -37.5q31 -18 56.5 -28t56.5 -10q25 0 52.5 11t68.5 52l98 -96q-70 -70 -118 -91.5t-95 -21.5q-45 0 -79 12.5t-74 34.5q-29 16 -56.5 27.5 t-58.5 11.5q-27 0 -51.5 -9t-67.5 -52zM383 481h448l-221 647z" />
<glyph unicode="&#xc4;" horiz-adv-x="1210" d="M-18 0l534 1458h178l535 -1458h-236l-100 293h-576l-100 -293h-235zM258 1718q0 47 34 81t81 34t81.5 -34t34.5 -81t-34.5 -81.5t-81.5 -34.5t-81 34.5t-34 81.5zM383 481h448l-221 647zM707 1718q0 47 34.5 81t81.5 34t81 -34t34 -81t-34 -81.5t-81 -34.5t-81.5 34.5 t-34.5 81.5z" />
<glyph unicode="&#xc5;" horiz-adv-x="1210" d="M-18 0l534 1458h178l535 -1458h-236l-100 293h-576l-100 -293h-235zM344 1792q0 53 20.5 99t55.5 81t81 55.5t99 20.5t99 -20.5t81 -55.5t55.5 -81t20.5 -99t-20.5 -99t-55.5 -81t-81 -55.5t-99 -20.5t-99 20.5t-81 55.5t-55.5 81t-20.5 99zM383 481h448l-221 647z M469 1792q0 -53 39 -91t92 -38t92 38t39 91t-39 91t-92 38t-92 -38t-39 -91z" />
<glyph unicode="&#xc6;" horiz-adv-x="1880" d="M-25 0l766 1458h1061v-198h-710v-429h606v-198h-606v-434h710v-199h-932v332h-481l-172 -332h-242zM485 520h385v740z" />
<glyph unicode="&#xc7;" horiz-adv-x="1216" d="M102 729q0 104 2 189.5t15.5 155t42 129t82.5 112.5q76 76 172 115.5t211 39.5q203 0 342 -114.5t178 -333.5h-225q-27 111 -99.5 180.5t-195.5 69.5q-66 0 -121 -23.5t-94 -64.5q-27 -29 -44.5 -63t-26.5 -84t-13 -123.5t-4 -184.5t4 -184.5t13 -123.5t26.5 -84 t44.5 -63q39 -41 94 -64.5t121 -23.5q123 0 196.5 70t100.5 180h223q-18 -109 -64.5 -192.5t-115 -140t-155.5 -86t-185 -29.5q-115 0 -211.5 40t-171.5 115q-53 53 -82 112.5t-42.5 129.5t-15.5 155t-2 189zM420 -432l143 301h168l-104 -301h-207z" />
<glyph unicode="&#xc8;" horiz-adv-x="1165" d="M156 0v1458h931v-198h-710v-426h606v-197h-606v-438h710v-199h-931zM324 1931h231l154 -332h-158z" />
<glyph unicode="&#xc9;" horiz-adv-x="1165" d="M156 0v1458h931v-198h-710v-426h606v-197h-606v-438h710v-199h-931zM496 1599l153 332h232l-228 -332h-157z" />
<glyph unicode="&#xca;" horiz-adv-x="1165" d="M156 0v1458h931v-198h-710v-426h606v-197h-606v-438h710v-199h-931zM250 1599l264 330h176l264 -330h-174l-178 199l-178 -199h-174z" />
<glyph unicode="&#xcb;" horiz-adv-x="1165" d="M156 0v1458h931v-198h-710v-426h606v-197h-606v-438h710v-199h-931zM262 1718q0 47 34 81t81 34t82 -34t35 -81t-35 -81.5t-82 -34.5t-81 34.5t-34 81.5zM711 1718q0 47 34.5 81t81.5 34t81 -34t34 -81t-34 -81.5t-81 -34.5t-81.5 34.5t-34.5 81.5z" />
<glyph unicode="&#xcc;" horiz-adv-x="532" d="M-39 1931h232l153 -332h-158zM156 0v1458h221v-1458h-221z" />
<glyph unicode="&#xcd;" horiz-adv-x="532" d="M156 0v1458h221v-1458h-221zM156 1599l153 332h232l-228 -332h-157z" />
<glyph unicode="&#xce;" horiz-adv-x="532" d="M-84 1599l264 330h176l265 -330h-175l-178 199l-178 -199h-174zM156 0v1458h221v-1458h-221z" />
<glyph unicode="&#xcf;" horiz-adv-x="532" d="M-78 1718q0 47 34 81t81 34t82 -34t35 -81t-35 -81.5t-82 -34.5t-81 34.5t-34 81.5zM156 0v1458h221v-1458h-221zM371 1718q0 47 34.5 81t81.5 34t81 -34t34 -81t-33.5 -81.5t-81.5 -34.5q-47 0 -81.5 34.5t-34.5 81.5z" />
<glyph unicode="&#xd0;" horiz-adv-x="1331" d="M43 651v170h152v637h512q260 0 411 -194q41 -53 63.5 -103.5t33 -110t12.5 -136t2 -185.5q0 -113 -2 -191.5t-13.5 -139t-33 -108.5t-62.5 -97q-70 -86 -174 -139.5t-244 -53.5h-505v651h-152zM416 197h264q184 0 272 129q18 29 29.5 55.5t17 68.5t7.5 106.5t2 166.5 q0 98 -2 164.5t-8.5 111.5t-18.5 76t-35 60q-47 66 -109.5 96.5t-154.5 30.5h-264v-441h282v-170h-282v-454z" />
<glyph unicode="&#xd1;" horiz-adv-x="1409" d="M156 0v1458h202l674 -1024v1024h221v-1458h-202l-674 1026v-1026h-221zM352 1747q70 70 117 91.5t96 21.5q45 0 79 -12.5t75 -37.5q31 -18 56.5 -28t55.5 -10q25 0 52.5 11t68.5 52l99 -96q-70 -70 -118 -91.5t-95 -21.5q-45 0 -79 12.5t-75 34.5q-29 16 -56.5 27.5 t-58.5 11.5q-27 0 -51 -9t-67 -52z" />
<glyph unicode="&#xd2;" horiz-adv-x="1253" d="M102 729q0 104 2 189.5t15.5 155t42 129t82.5 112.5q76 76 171 115.5t212 39.5t213 -39.5t172 -115.5q53 -53 81.5 -112.5t41 -129t14.5 -155t2 -189.5t-2 -189t-14.5 -155t-41 -129t-81.5 -113q-76 -76 -172.5 -115.5t-212.5 -39.5q-117 0 -212.5 40t-170.5 115 q-53 53 -82 112.5t-42.5 129.5t-15.5 155t-2 189zM324 729q0 -111 3 -183.5t12 -122.5t26.5 -84t44.5 -63q39 -41 95 -65.5t122 -24.5t122 25t95 65q27 29 44 63t26.5 84t12.5 122.5t3 183.5t-3 183.5t-12.5 122.5t-27 84t-43.5 63q-39 41 -95.5 65.5t-121.5 24.5 q-66 0 -122 -24.5t-95 -65.5q-27 -29 -44.5 -63t-26.5 -84t-12 -122.5t-3 -183.5zM348 1931h232l153 -332h-158z" />
<glyph unicode="&#xd3;" horiz-adv-x="1253" d="M102 729q0 104 2 189.5t15.5 155t42 129t82.5 112.5q76 76 171 115.5t212 39.5t213 -39.5t172 -115.5q53 -53 81.5 -112.5t41 -129t14.5 -155t2 -189.5t-2 -189t-14.5 -155t-41 -129t-81.5 -113q-76 -76 -172.5 -115.5t-212.5 -39.5q-117 0 -212.5 40t-170.5 115 q-53 53 -82 112.5t-42.5 129.5t-15.5 155t-2 189zM324 729q0 -111 3 -183.5t12 -122.5t26.5 -84t44.5 -63q39 -41 95 -65.5t122 -24.5t122 25t95 65q27 29 44 63t26.5 84t12.5 122.5t3 183.5t-3 183.5t-12.5 122.5t-27 84t-43.5 63q-39 41 -95.5 65.5t-121.5 24.5 q-66 0 -122 -24.5t-95 -65.5q-27 -29 -44.5 -63t-26.5 -84t-12 -122.5t-3 -183.5zM520 1599l154 332h231l-227 -332h-158z" />
<glyph unicode="&#xd4;" horiz-adv-x="1253" d="M102 729q0 104 2 189.5t15.5 155t42 129t82.5 112.5q76 76 171 115.5t212 39.5t213 -39.5t172 -115.5q53 -53 81.5 -112.5t41 -129t14.5 -155t2 -189.5t-2 -189t-14.5 -155t-41 -129t-81.5 -113q-76 -76 -172.5 -115.5t-212.5 -39.5q-117 0 -212.5 40t-170.5 115 q-53 53 -82 112.5t-42.5 129.5t-15.5 155t-2 189zM274 1599l265 330h176l264 -330h-174l-178 199l-178 -199h-175zM324 729q0 -111 3 -183.5t12 -122.5t26.5 -84t44.5 -63q39 -41 95 -65.5t122 -24.5t122 25t95 65q27 29 44 63t26.5 84t12.5 122.5t3 183.5t-3 183.5 t-12.5 122.5t-27 84t-43.5 63q-39 41 -95.5 65.5t-121.5 24.5q-66 0 -122 -24.5t-95 -65.5q-27 -29 -44.5 -63t-26.5 -84t-12 -122.5t-3 -183.5z" />
<glyph unicode="&#xd5;" horiz-adv-x="1253" d="M102 729q0 104 2 189.5t15.5 155t42 129t82.5 112.5q76 76 171 115.5t212 39.5t213 -39.5t172 -115.5q53 -53 81.5 -112.5t41 -129t14.5 -155t2 -189.5t-2 -189t-14.5 -155t-41 -129t-81.5 -113q-76 -76 -172.5 -115.5t-212.5 -39.5q-117 0 -212.5 40t-170.5 115 q-53 53 -82 112.5t-42.5 129.5t-15.5 155t-2 189zM274 1747q70 70 117 91.5t96 21.5q45 0 79 -12.5t75 -37.5q31 -18 56.5 -28t56.5 -10q25 0 52.5 11t67.5 52l99 -96q-70 -70 -118 -91.5t-95 -21.5q-45 0 -79 12.5t-75 34.5q-29 16 -56.5 27.5t-57.5 11.5q-27 0 -51.5 -9 t-67.5 -52zM324 729q0 -111 3 -183.5t12 -122.5t26.5 -84t44.5 -63q39 -41 95 -65.5t122 -24.5t122 25t95 65q27 29 44 63t26.5 84t12.5 122.5t3 183.5t-3 183.5t-12.5 122.5t-27 84t-43.5 63q-39 41 -95.5 65.5t-121.5 24.5q-66 0 -122 -24.5t-95 -65.5q-27 -29 -44.5 -63 t-26.5 -84t-12 -122.5t-3 -183.5z" />
<glyph unicode="&#xd6;" horiz-adv-x="1253" d="M102 729q0 104 2 189.5t15.5 155t42 129t82.5 112.5q76 76 171 115.5t212 39.5t213 -39.5t172 -115.5q53 -53 81.5 -112.5t41 -129t14.5 -155t2 -189.5t-2 -189t-14.5 -155t-41 -129t-81.5 -113q-76 -76 -172.5 -115.5t-212.5 -39.5q-117 0 -212.5 40t-170.5 115 q-53 53 -82 112.5t-42.5 129.5t-15.5 155t-2 189zM287 1718q0 47 33.5 81t80.5 34t82 -34t35 -81t-34.5 -81.5t-82.5 -34.5q-47 0 -80.5 34.5t-33.5 81.5zM324 729q0 -111 3 -183.5t12 -122.5t26.5 -84t44.5 -63q39 -41 95 -65.5t122 -24.5t122 25t95 65q27 29 44 63 t26.5 84t12.5 122.5t3 183.5t-3 183.5t-12.5 122.5t-27 84t-43.5 63q-39 41 -95.5 65.5t-121.5 24.5q-66 0 -122 -24.5t-95 -65.5q-27 -29 -44.5 -63t-26.5 -84t-12 -122.5t-3 -183.5zM735 1718q0 47 35 81t82 34t81 -34t34 -81t-34 -81.5t-81 -34.5t-82 34.5t-35 81.5z" />
<glyph unicode="&#xd7;" d="M82 270l299 299l-299 299l131 131l297 -299l299 299l131 -131l-299 -299l299 -299l-131 -129l-299 297l-297 -297z" />
<glyph unicode="&#xd8;" horiz-adv-x="1265" d="M102 729q0 104 2 189.5t15.5 155t42 129t82.5 112.5q76 76 171 115.5t212 39.5q68 0 130 -14t115 -41l62 133h170l-107 -221q4 -4 7.5 -6t7.5 -6q53 -53 81.5 -112.5t41 -129t14.5 -155t2 -189.5t-2 -189t-14.5 -155t-41 -129t-81.5 -113q-76 -76 -172.5 -115.5 t-212.5 -39.5q-68 0 -129.5 14t-114.5 41l-64 -133h-167l104 221l-12 12q-53 53 -82 112.5t-42.5 129.5t-15.5 155t-2 189zM326 729q0 -82 2 -142.5t6 -106.5t12 -79.5t21 -60.5l424 887q-74 45 -164 45q-66 0 -121 -24.5t-94 -65.5q-27 -29 -44.5 -63t-26.5 -84t-12 -122.5 t-3 -183.5zM465 231q72 -45 162 -45q66 0 122 25t95 65q27 29 44 63t26.5 84t12.5 122.5t3 183.5q0 82 -1 143.5t-6 107.5t-13.5 79t-20.5 59z" />
<glyph unicode="&#xd9;" horiz-adv-x="1312" d="M133 492v966h221v-956q0 -147 82 -231.5t219 -84.5t220 84t83 232v956h222v-966q0 -113 -40 -206t-111 -159t-167 -102.5t-207 -36.5t-207 36.5t-165.5 102.5t-109.5 159t-40 206zM379 1931h231l154 -332h-158z" />
<glyph unicode="&#xda;" horiz-adv-x="1312" d="M133 492v966h221v-956q0 -147 82 -231.5t219 -84.5t220 84t83 232v956h222v-966q0 -113 -40 -206t-111 -159t-167 -102.5t-207 -36.5t-207 36.5t-165.5 102.5t-109.5 159t-40 206zM551 1599l154 332h231l-227 -332h-158z" />
<glyph unicode="&#xdb;" horiz-adv-x="1312" d="M133 492v966h221v-956q0 -147 82 -231.5t219 -84.5t220 84t83 232v956h222v-966q0 -113 -40 -206t-111 -159t-167 -102.5t-207 -36.5t-207 36.5t-165.5 102.5t-109.5 159t-40 206zM305 1599l264 330h176l265 -330h-174l-179 199l-178 -199h-174z" />
<glyph unicode="&#xdc;" horiz-adv-x="1312" d="M133 492v966h221v-956q0 -147 82 -231.5t219 -84.5t220 84t83 232v956h222v-966q0 -113 -40 -206t-111 -159t-167 -102.5t-207 -36.5t-207 36.5t-165.5 102.5t-109.5 159t-40 206zM317 1718q0 47 34 81t81 34t82 -34t35 -81t-35 -81.5t-82 -34.5t-81 34.5t-34 81.5z M766 1718q0 47 35 81t82 34t80.5 -34t33.5 -81t-33.5 -81.5t-80.5 -34.5t-82 34.5t-35 81.5z" />
<glyph unicode="&#xdd;" horiz-adv-x="1044" d="M-25 1458h242l305 -641l305 641h242l-436 -858v-600h-221v600zM416 1599l153 332h232l-228 -332h-157z" />
<glyph unicode="&#xde;" horiz-adv-x="1234" d="M156 0v1458h221v-280h332q106 0 192 -34t147.5 -92.5t94.5 -139.5t33 -177q0 -94 -33 -175t-94.5 -140.5t-147.5 -92t-192 -32.5h-332v-295h-221zM377 494h317q117 0 187.5 62t70.5 179t-70.5 180.5t-187.5 63.5h-317v-485z" />
<glyph unicode="&#xdf;" horiz-adv-x="1087" d="M131 0v1069q0 102 32 177t90 126t139 76t177 25q90 0 166 -20.5t133.5 -63.5t89 -110t31.5 -157q0 -92 -35.5 -147t-91.5 -90q66 -35 97.5 -86t31.5 -150v-338q0 -74 -21.5 -133t-62.5 -98q-43 -41 -98 -60.5t-135 -19.5h-109v178h66q39 0 61.5 8.5t44.5 26.5 q43 35 43 117v319q0 74 -37 109q-39 39 -106 39h-72v166h64q66 0 108.5 38.5t42.5 114.5q0 37 -14 69t-37 54q-51 49 -166 49q-123 0 -172 -62.5t-49 -168.5v-1057h-211z" />
<glyph unicode="&#xe0;" horiz-adv-x="1015" d="M53 305q0 131 89 215t270 84h274v74q0 98 -52 146t-175 48q-86 0 -135.5 -22.5t-92.5 -77.5l-137 129q74 86 159 118t214 32q428 0 428 -357v-694h-205v94q-57 -57 -118.5 -81.5t-157.5 -24.5q-98 0 -165 23.5t-114 70.5q-82 86 -82 223zM213 1559h231l154 -332h-158z M256 309q0 -72 46 -109.5t144 -37.5q59 0 106.5 9t88.5 50q45 45 45 154v84h-244q-92 0 -139 -39t-47 -111z" />
<glyph unicode="&#xe1;" horiz-adv-x="1015" d="M53 305q0 131 89 215t270 84h274v74q0 98 -52 146t-175 48q-86 0 -135.5 -22.5t-92.5 -77.5l-137 129q74 86 159 118t214 32q428 0 428 -357v-694h-205v94q-57 -57 -118.5 -81.5t-157.5 -24.5q-98 0 -165 23.5t-114 70.5q-82 86 -82 223zM256 309q0 -72 46 -109.5 t144 -37.5q59 0 106.5 9t88.5 50q45 45 45 154v84h-244q-92 0 -139 -39t-47 -111zM385 1227l154 332h231l-227 -332h-158z" />
<glyph unicode="&#xe2;" horiz-adv-x="1015" d="M53 305q0 131 89 215t270 84h274v74q0 98 -52 146t-175 48q-86 0 -135.5 -22.5t-92.5 -77.5l-137 129q74 86 159 118t214 32q428 0 428 -357v-694h-205v94q-57 -57 -118.5 -81.5t-157.5 -24.5q-98 0 -165 23.5t-114 70.5q-82 86 -82 223zM139 1227l264 329h177l264 -329 h-174l-178 198l-179 -198h-174zM256 309q0 -72 46 -109.5t144 -37.5q59 0 106.5 9t88.5 50q45 45 45 154v84h-244q-92 0 -139 -39t-47 -111z" />
<glyph unicode="&#xe3;" horiz-adv-x="1015" d="M53 305q0 131 89 215t270 84h274v74q0 98 -52 146t-175 48q-86 0 -135.5 -22.5t-92.5 -77.5l-137 129q74 86 159 118t214 32q428 0 428 -357v-694h-205v94q-57 -57 -118.5 -81.5t-157.5 -24.5q-98 0 -165 23.5t-114 70.5q-82 86 -82 223zM139 1374q70 70 117 91.5 t96 21.5q45 0 79 -12.5t75 -36.5q31 -18 56.5 -28.5t55.5 -10.5q25 0 52.5 11t68.5 52l99 -96q-70 -70 -118 -91.5t-95 -21.5q-45 0 -79 12.5t-75 34.5q-29 16 -56.5 27.5t-58.5 11.5q-27 0 -51 -9t-67 -52zM256 309q0 -72 46 -109.5t144 -37.5q59 0 106.5 9t88.5 50 q45 45 45 154v84h-244q-92 0 -139 -39t-47 -111z" />
<glyph unicode="&#xe4;" horiz-adv-x="1015" d="M53 305q0 131 89 215t270 84h274v74q0 98 -52 146t-175 48q-86 0 -135.5 -22.5t-92.5 -77.5l-137 129q74 86 159 118t214 32q428 0 428 -357v-694h-205v94q-57 -57 -118.5 -81.5t-157.5 -24.5q-98 0 -165 23.5t-114 70.5q-82 86 -82 223zM152 1346q0 47 33.5 80.5 t80.5 33.5t82 -33.5t35 -80.5t-35 -82t-82 -35t-80.5 34.5t-33.5 82.5zM256 309q0 -72 46 -109.5t144 -37.5q59 0 106.5 9t88.5 50q45 45 45 154v84h-244q-92 0 -139 -39t-47 -111zM600 1346q0 47 35 80.5t82 33.5t80.5 -33.5t33.5 -80.5t-33.5 -82t-80.5 -35t-82 34.5 t-35 82.5z" />
<glyph unicode="&#xe5;" horiz-adv-x="1015" d="M53 305q0 131 89 215t270 84h274v74q0 98 -52 146t-175 48q-86 0 -135.5 -22.5t-92.5 -77.5l-137 129q74 86 159 118t214 32q428 0 428 -357v-694h-205v94q-57 -57 -118.5 -81.5t-157.5 -24.5q-98 0 -165 23.5t-114 70.5q-82 86 -82 223zM236 1436q0 53 20 99t55 81 t81 55.5t100 20.5q53 0 99 -20.5t81 -55.5t55.5 -81t20.5 -99t-20.5 -99.5t-55.5 -81t-81 -55t-99 -20.5t-99.5 20.5t-81.5 55t-55 80.5t-20 100zM256 309q0 -72 46 -109.5t144 -37.5q59 0 106.5 9t88.5 50q45 45 45 154v84h-244q-92 0 -139 -39t-47 -111zM360 1436 q0 -53 39 -91t93 -38q53 0 92 38t39 91t-39 91t-92 38t-92.5 -38t-39.5 -91z" />
<glyph unicode="&#xe6;" horiz-adv-x="1644" d="M53 305q0 131 89 215t270 84h274v74q0 98 -52 146t-175 48q-86 0 -135.5 -22.5t-92.5 -77.5l-137 129q74 86 159 118t214 32q256 0 352 -138q113 137 307 138q104 0 186.5 -37t138.5 -102.5t86 -157.5t30 -203v-92h-674q0 -135 67.5 -213t196.5 -78q88 0 142.5 25.5 t109.5 80.5l133 -124q-39 -39 -80 -70t-87 -51.5t-100 -30.5t-122 -10q-115 0 -209 37.5t-158 124.5q-78 -96 -164.5 -129t-207.5 -33q-98 0 -165 23.5t-114 70.5q-41 41 -61.5 99.5t-20.5 123.5zM256 309q0 -72 46 -109.5t144 -37.5q59 0 106.5 9t88.5 50q45 45 45 154v84 h-244q-92 0 -139 -39t-47 -111zM893 604h467q-2 47 -6 77t-21 64q-25 59 -79 95.5t-128 36.5t-127 -36t-77 -96q-16 -35 -21.5 -64.5t-7.5 -76.5z" />
<glyph unicode="&#xe7;" horiz-adv-x="913" d="M78 520q0 145 40 246.5t104.5 165t147.5 91.5t171 28q109 0 188.5 -34t153.5 -112l-144 -139q-49 53 -93 75.5t-105 22.5q-123 0 -193 -92q-35 -43 -48 -101.5t-13 -150.5t13 -151.5t48 -102.5q70 -92 193 -92q61 0 105 22.5t93 75.5l144 -137q-74 -78 -154 -112.5 t-188 -34.5q-88 0 -171 28.5t-147.5 92t-104.5 165t-40 246.5zM307 -432l144 301h167l-104 -301h-207z" />
<glyph unicode="&#xe8;" horiz-adv-x="1034" d="M78 520q0 254 119.5 392.5t320.5 138.5q104 0 186 -37t138.5 -102.5t86 -157.5t29.5 -203v-92h-673q0 -135 67.5 -213t196.5 -78q88 0 142 25.5t110 80.5l133 -124q-39 -39 -80 -70t-87 -51.5t-100.5 -30.5t-121.5 -10q-98 0 -183.5 27.5t-147.5 90t-99 165t-37 249.5z M246 1559h231l154 -332h-158zM285 604h467q-2 47 -7.5 77t-21.5 64q-25 59 -78 95.5t-127 36.5t-128 -36t-79 -96q-16 -35 -20 -64.5t-6 -76.5z" />
<glyph unicode="&#xe9;" horiz-adv-x="1034" d="M78 520q0 254 119.5 392.5t320.5 138.5q104 0 186 -37t138.5 -102.5t86 -157.5t29.5 -203v-92h-673q0 -135 67.5 -213t196.5 -78q88 0 142 25.5t110 80.5l133 -124q-39 -39 -80 -70t-87 -51.5t-100.5 -30.5t-121.5 -10q-98 0 -183.5 27.5t-147.5 90t-99 165t-37 249.5z M285 604h467q-2 47 -7.5 77t-21.5 64q-25 59 -78 95.5t-127 36.5t-128 -36t-79 -96q-16 -35 -20 -64.5t-6 -76.5zM418 1227l153 332h232l-228 -332h-157z" />
<glyph unicode="&#xea;" horiz-adv-x="1034" d="M78 520q0 254 119.5 392.5t320.5 138.5q104 0 186 -37t138.5 -102.5t86 -157.5t29.5 -203v-92h-673q0 -135 67.5 -213t196.5 -78q88 0 142 25.5t110 80.5l133 -124q-39 -39 -80 -70t-87 -51.5t-100.5 -30.5t-121.5 -10q-98 0 -183.5 27.5t-147.5 90t-99 165t-37 249.5z M172 1227l264 329h176l265 -329h-175l-178 198l-178 -198h-174zM285 604h467q-2 47 -7.5 77t-21.5 64q-25 59 -78 95.5t-127 36.5t-128 -36t-79 -96q-16 -35 -20 -64.5t-6 -76.5z" />
<glyph unicode="&#xeb;" horiz-adv-x="1034" d="M78 520q0 254 119.5 392.5t320.5 138.5q104 0 186 -37t138.5 -102.5t86 -157.5t29.5 -203v-92h-673q0 -135 67.5 -213t196.5 -78q88 0 142 25.5t110 80.5l133 -124q-39 -39 -80 -70t-87 -51.5t-100.5 -30.5t-121.5 -10q-98 0 -183.5 27.5t-147.5 90t-99 165t-37 249.5z M184 1346q0 47 34 80.5t81 33.5t82 -33.5t35 -80.5t-35 -82t-82 -35t-81 34.5t-34 82.5zM285 604h467q-2 47 -7.5 77t-21.5 64q-25 59 -78 95.5t-127 36.5t-128 -36t-79 -96q-16 -35 -20 -64.5t-6 -76.5zM633 1346q0 47 34.5 80.5t82.5 33.5q47 0 80.5 -33.5t33.5 -80.5 t-33.5 -82t-80.5 -35t-82 34.5t-35 82.5z" />
<glyph unicode="&#xec;" horiz-adv-x="471" d="M-61 1559h231l154 -332h-158zM131 0v1038h209v-1038h-209z" />
<glyph unicode="&#xed;" horiz-adv-x="471" d="M131 0v1038h209v-1038h-209zM131 1227l154 332h231l-227 -332h-158z" />
<glyph unicode="&#xee;" horiz-adv-x="471" d="M-111 1227l265 329h176l264 -329h-174l-178 198l-179 -198h-174zM131 0v1038h209v-1038h-209z" />
<glyph unicode="&#xef;" horiz-adv-x="471" d="M-109 1346q0 47 34 80.5t81 33.5t82 -33.5t35 -80.5t-35 -82t-82 -35t-81 34.5t-34 82.5zM131 0v1038h209v-1038h-209zM340 1346q0 47 35 80.5t82 33.5t80.5 -33.5t33.5 -80.5t-33.5 -82t-80.5 -35t-82 34.5t-35 82.5z" />
<glyph unicode="&#xf0;" horiz-adv-x="1030" d="M90 510q0 129 23.5 227.5t97.5 173.5q80 82 213 105q37 6 78 6t78 -10l-93 166h-237v147h160l-80 143h221l80 -143h178v-147h-102l104 -193q39 -72 64.5 -128t40 -109.5t19.5 -109.5t5 -128q0 -129 -23.5 -227.5t-97.5 -173.5q-49 -53 -125 -87t-180 -34t-179 33.5 t-124 87.5q-74 76 -97.5 174t-23.5 227zM299 510q0 -82 10 -155.5t58 -121.5q59 -59 147 -59q45 0 83 15.5t67 43.5q47 47 57 121t10 156t-10 155.5t-57 120.5q-29 29 -67 44.5t-83 15.5q-88 0 -147 -60q-47 -47 -57.5 -120.5t-10.5 -155.5z" />
<glyph unicode="&#xf1;" horiz-adv-x="1093" d="M131 0v1038h205v-104q53 59 126 88t150 29q80 0 144.5 -25t111.5 -70q59 -59 82 -131.5t23 -160.5v-664h-209v633q0 121 -60.5 176t-148.5 55q-43 0 -83 -13t-68.5 -42t-46 -73t-17.5 -103v-633h-209zM201 1374q70 70 117 91.5t96 21.5q45 0 78.5 -12.5t74.5 -36.5 q31 -18 56.5 -28.5t56.5 -10.5q25 0 52.5 11t68.5 52l98 -96q-70 -70 -118 -91.5t-95 -21.5q-45 0 -79 12.5t-75 34.5q-29 16 -56 27.5t-58 11.5q-27 0 -51.5 -9t-67.5 -52z" />
<glyph unicode="&#xf2;" horiz-adv-x="1030" d="M82 520q0 131 24.5 230.5t98.5 177.5q51 53 127 88t182 35t183 -35t128 -88q74 -78 98.5 -177.5t24.5 -230.5q0 -133 -24.5 -232.5t-98.5 -176.5q-51 -53 -127.5 -88t-183.5 -35q-106 0 -182 34.5t-127 88.5q-74 78 -98.5 177t-24.5 232zM221 1559h232l153 -332h-157z M291 520q0 -86 12 -161.5t59 -122.5q61 -61 152 -62q92 0 154 62q47 47 59 122.5t12 161.5t-12 162t-59 123q-59 59 -154 59q-92 0 -152 -59q-47 -47 -59 -123t-12 -162z" />
<glyph unicode="&#xf3;" horiz-adv-x="1030" d="M82 520q0 131 24.5 230.5t98.5 177.5q51 53 127 88t182 35t183 -35t128 -88q74 -78 98.5 -177.5t24.5 -230.5q0 -133 -24.5 -232.5t-98.5 -176.5q-51 -53 -127.5 -88t-183.5 -35q-106 0 -182 34.5t-127 88.5q-74 78 -98.5 177t-24.5 232zM291 520q0 -86 12 -161.5 t59 -122.5q61 -61 152 -62q92 0 154 62q47 47 59 122.5t12 161.5t-12 162t-59 123q-59 59 -154 59q-92 0 -152 -59q-47 -47 -59 -123t-12 -162zM408 1227l153 332h232l-228 -332h-157z" />
<glyph unicode="&#xf4;" horiz-adv-x="1030" d="M82 520q0 131 24.5 230.5t98.5 177.5q51 53 127 88t182 35t183 -35t128 -88q74 -78 98.5 -177.5t24.5 -230.5q0 -133 -24.5 -232.5t-98.5 -176.5q-51 -53 -127.5 -88t-183.5 -35q-106 0 -182 34.5t-127 88.5q-74 78 -98.5 177t-24.5 232zM162 1227l264 329h176l264 -329 h-174l-178 198l-178 -198h-174zM291 520q0 -86 12 -161.5t59 -122.5q61 -61 152 -62q92 0 154 62q47 47 59 122.5t12 161.5t-12 162t-59 123q-59 59 -154 59q-92 0 -152 -59q-47 -47 -59 -123t-12 -162z" />
<glyph unicode="&#xf5;" horiz-adv-x="1030" d="M82 520q0 131 24.5 230.5t98.5 177.5q51 53 127 88t182 35t183 -35t128 -88q74 -78 98.5 -177.5t24.5 -230.5q0 -133 -24.5 -232.5t-98.5 -176.5q-51 -53 -127.5 -88t-183.5 -35q-106 0 -182 34.5t-127 88.5q-74 78 -98.5 177t-24.5 232zM162 1374q70 70 117 91.5 t96 21.5q45 0 78.5 -12.5t74.5 -36.5q31 -18 56.5 -28.5t56.5 -10.5q25 0 52.5 11t68.5 52l98 -96q-70 -70 -118 -91.5t-95 -21.5q-45 0 -78.5 12.5t-74.5 34.5q-29 16 -56.5 27.5t-58.5 11.5q-27 0 -51.5 -9t-67.5 -52zM291 520q0 -86 12 -161.5t59 -122.5q61 -61 152 -62 q92 0 154 62q47 47 59 122.5t12 161.5t-12 162t-59 123q-59 59 -154 59q-92 0 -152 -59q-47 -47 -59 -123t-12 -162z" />
<glyph unicode="&#xf6;" horiz-adv-x="1030" d="M82 520q0 131 24.5 230.5t98.5 177.5q51 53 127 88t182 35t183 -35t128 -88q74 -78 98.5 -177.5t24.5 -230.5q0 -133 -24.5 -232.5t-98.5 -176.5q-51 -53 -127.5 -88t-183.5 -35q-106 0 -182 34.5t-127 88.5q-74 78 -98.5 177t-24.5 232zM174 1346q0 47 34 80.5t81 33.5 t82 -33.5t35 -80.5t-35 -82t-82 -35t-81 34.5t-34 82.5zM291 520q0 -86 12 -161.5t59 -122.5q61 -61 152 -62q92 0 154 62q47 47 59 122.5t12 161.5t-12 162t-59 123q-59 59 -154 59q-92 0 -152 -59q-47 -47 -59 -123t-12 -162zM623 1346q0 47 34.5 80.5t81.5 33.5t81 -33.5 t34 -80.5t-34 -82t-81 -35t-81.5 34.5t-34.5 82.5z" />
<glyph unicode="&#xf7;" d="M63 471v195h893v-195h-893zM362 172q0 61 43.5 105.5t104.5 44.5t105 -44.5t44 -105.5t-44 -105t-105 -44t-104.5 44t-43.5 105zM362 965q0 61 43.5 105t104.5 44t105 -44t44 -105t-44 -104.5t-105 -43.5t-104.5 43t-43.5 105z" />
<glyph unicode="&#xf8;" horiz-adv-x="1030" d="M82 520q0 131 24.5 230.5t98.5 177.5q51 53 127 88t182 35q66 0 119 -14.5t96 -37.5l76 129h141l-121 -200q74 -78 98.5 -177.5t24.5 -230.5q0 -133 -24.5 -232.5t-98.5 -176.5q-51 -53 -127.5 -88t-183.5 -35q-66 0 -118 14t-95 37l-76 -129h-141l119 203 q-74 78 -97.5 177t-23.5 230zM291 520q0 -61 5 -118.5t26 -104.5l315 532q-53 35 -123 35q-92 0 -152 -59q-47 -47 -59 -123t-12 -162zM393 211q53 -37 121 -37q92 0 154 62q47 47 59 122.5t12 161.5q0 61 -5 118.5t-25 104.5z" />
<glyph unicode="&#xf9;" horiz-adv-x="1093" d="M121 375v663h209v-632q0 -121 60.5 -176.5t148.5 -55.5t151.5 56.5t63.5 175.5v632h209v-1038h-205v104q-53 -59 -126 -87.5t-151 -28.5q-80 0 -144.5 24.5t-111.5 69.5q-59 59 -81.5 132t-22.5 161zM262 1559h232l153 -332h-158z" />
<glyph unicode="&#xfa;" horiz-adv-x="1093" d="M121 375v663h209v-632q0 -121 60.5 -176.5t148.5 -55.5t151.5 56.5t63.5 175.5v632h209v-1038h-205v104q-53 -59 -126 -87.5t-151 -28.5q-80 0 -144.5 24.5t-111.5 69.5q-59 59 -81.5 132t-22.5 161zM434 1227l154 332h231l-227 -332h-158z" />
<glyph unicode="&#xfb;" horiz-adv-x="1093" d="M121 375v663h209v-632q0 -121 60.5 -176.5t148.5 -55.5t151.5 56.5t63.5 175.5v632h209v-1038h-205v104q-53 -59 -126 -87.5t-151 -28.5q-80 0 -144.5 24.5t-111.5 69.5q-59 59 -81.5 132t-22.5 161zM188 1227l265 329h176l264 -329h-174l-178 198l-179 -198h-174z" />
<glyph unicode="&#xfc;" horiz-adv-x="1093" d="M121 375v663h209v-632q0 -121 60.5 -176.5t148.5 -55.5t151.5 56.5t63.5 175.5v632h209v-1038h-205v104q-53 -59 -126 -87.5t-151 -28.5q-80 0 -144.5 24.5t-111.5 69.5q-59 59 -81.5 132t-22.5 161zM201 1346q0 47 33.5 80.5t80.5 33.5t82 -33.5t35 -80.5t-35 -82 t-82 -35t-80.5 34.5t-33.5 82.5zM649 1346q0 47 35 80.5t82 33.5t81 -33.5t34 -80.5t-34 -82t-81 -35t-82 34.5t-35 82.5z" />
<glyph unicode="&#xfd;" horiz-adv-x="888" d="M-18 1038h221l248 -731l241 731h223l-458 -1245q-29 -82 -76 -129q-43 -43 -98.5 -59.5t-114.5 -16.5h-84v189h53q66 0 96.5 23.5t53.5 86.5l57 162zM338 1227l154 332h231l-227 -332h-158z" />
<glyph unicode="&#xfe;" horiz-adv-x="1064" d="M131 -420v1878h209v-524q57 68 122.5 92.5t149.5 24.5q78 0 143.5 -25t108.5 -68q39 -39 62.5 -90t36 -108.5t15.5 -119t3 -120.5t-3 -120.5t-15.5 -120t-36 -109.5t-62.5 -90q-43 -43 -108.5 -67.5t-143.5 -24.5q-84 0 -149.5 25.5t-122.5 92.5v-526h-209zM340 520 q0 -70 7 -132t30.5 -109.5t66.5 -76t113 -28.5q72 0 114 28.5t64.5 76t29.5 109.5t7 132t-7 132.5t-29.5 109.5t-64.5 74.5t-114 27.5q-70 0 -113 -27.5t-66.5 -74.5t-30.5 -109.5t-7 -132.5z" />
<glyph unicode="&#xff;" horiz-adv-x="888" d="M-18 1038h221l248 -731l241 731h223l-458 -1245q-29 -82 -76 -129q-43 -43 -98.5 -59.5t-114.5 -16.5h-84v189h53q66 0 96.5 23.5t53.5 86.5l57 162zM104 1346q0 47 34 80.5t81 33.5t82 -33.5t35 -80.5t-35 -82t-82 -35t-81 34.5t-34 82.5zM553 1346q0 47 35 80.5 t82 33.5t80.5 -33.5t33.5 -80.5t-33.5 -82t-80.5 -35t-82 34.5t-35 82.5z" />
<glyph unicode="&#x152;" horiz-adv-x="1931" d="M102 729q0 104 2 190.5t15.5 157t42 130t82.5 112.5q76 76 169 113.5t210 37.5q88 0 167.5 -30.5t139.5 -100.5v119h921v-196h-700v-431h596v-192h-596v-442h702v-197h-923v119q-59 -70 -142 -100.5t-165 -30.5q-117 0 -210.5 37.5t-168.5 113.5q-53 53 -82 112.5 t-42.5 130.5t-15.5 157t-2 190zM326 729q0 -111 3 -183.5t12 -122.5t26.5 -84t44.5 -63q39 -41 94 -65.5t121 -24.5t122 25t95 65q27 29 44 63t26.5 84t12.5 122.5t3 183.5t-3 183.5t-12.5 122.5t-27 84t-43.5 63q-39 41 -95.5 65.5t-121.5 24.5q-66 0 -121 -24.5t-94 -65.5 q-27 -29 -44.5 -63t-26.5 -84t-12 -122.5t-3 -183.5z" />
<glyph unicode="&#x153;" horiz-adv-x="1695" d="M82 520q0 131 24.5 230.5t98.5 177.5q51 53 127 88t182 35q115 0 201 -44t135 -122q109 166 328 166q104 0 186 -37t138.5 -102.5t86 -157.5t29.5 -203v-92h-674q0 -135 67.5 -213t196.5 -78q88 0 142.5 25.5t109.5 80.5l133 -124q-39 -39 -78.5 -70t-86 -51.5 t-100.5 -30.5t-122 -10q-115 0 -207 39t-151 125q-49 -76 -135 -120t-199 -44q-106 0 -182 34.5t-127 88.5q-74 78 -98.5 177t-24.5 232zM291 520q0 -86 12 -161.5t59 -122.5q61 -61 152 -62q92 0 154 62q47 47 59 122.5t12 161.5t-12 162t-59 123q-59 59 -154 59 q-92 0 -152 -59q-47 -47 -59 -123t-12 -162zM944 604h467q-2 47 -6 77t-21 64q-25 59 -79 95.5t-127 36.5q-74 0 -127.5 -36t-77.5 -96q-16 -35 -21.5 -64.5t-7.5 -76.5z" />
<glyph unicode="&#x178;" horiz-adv-x="1044" d="M-25 1458h242l305 -641l305 641h242l-436 -858v-600h-221v600zM180 1718q0 47 34 81t81 34t82 -34t35 -81t-35 -81.5t-82 -34.5t-81 34.5t-34 81.5zM629 1718q0 47 34.5 81t81.5 34t81 -34t34 -81t-33.5 -81.5t-81.5 -34.5q-47 0 -81.5 34.5t-34.5 81.5z" />
<glyph unicode="&#x2c6;" horiz-adv-x="954" d="M125 1227l264 329h176l264 -329h-174l-178 198l-178 -198h-174z" />
<glyph unicode="&#x2dc;" horiz-adv-x="954" d="M125 1374q70 70 117 91.5t96 21.5q45 0 79 -12.5t75 -36.5q31 -18 56 -28.5t56 -10.5q25 0 52.5 11t68.5 52l98 -96q-70 -70 -118 -91.5t-95 -21.5q-45 0 -78.5 12.5t-74.5 34.5q-29 16 -56.5 27.5t-58.5 11.5q-27 0 -51.5 -9t-67.5 -52z" />
<glyph unicode="&#x2000;" horiz-adv-x="1024" />
<glyph unicode="&#x2001;" horiz-adv-x="2048" />
<glyph unicode="&#x2002;" horiz-adv-x="1024" />
<glyph unicode="&#x2003;" horiz-adv-x="2048" />
<glyph unicode="&#x2004;" horiz-adv-x="682" />
<glyph unicode="&#x2005;" horiz-adv-x="512" />
<glyph unicode="&#x2006;" horiz-adv-x="341" />
<glyph unicode="&#x2007;" horiz-adv-x="341" />
<glyph unicode="&#x2008;" horiz-adv-x="256" />
<glyph unicode="&#x2009;" horiz-adv-x="409" />
<glyph unicode="&#x200a;" horiz-adv-x="113" />
<glyph unicode="&#x2010;" horiz-adv-x="802" d="M102 471v195h598v-195h-598z" />
<glyph unicode="&#x2011;" horiz-adv-x="802" d="M102 471v195h598v-195h-598z" />
<glyph unicode="&#x2012;" horiz-adv-x="802" d="M102 471v195h598v-195h-598z" />
<glyph unicode="&#x2013;" d="M70 471v195h882v-195h-882z" />
<glyph unicode="&#x2014;" horiz-adv-x="1921" d="M102 473v199h1717v-199h-1717z" />
<glyph unicode="&#x2018;" horiz-adv-x="479" d="M125 1245v213l229 191v-404h-229z" />
<glyph unicode="&#x2019;" horiz-adv-x="479" d="M125 1057v401h229v-215z" />
<glyph unicode="&#x201a;" horiz-adv-x="477" d="M125 -188v403h229v-215z" />
<glyph unicode="&#x201c;" horiz-adv-x="870" d="M125 1245v213l229 191v-404h-229zM516 1245v213l229 191v-404h-229z" />
<glyph unicode="&#x201d;" horiz-adv-x="870" d="M125 1057v401h229v-215zM516 1057v401h229v-215z" />
<glyph unicode="&#x201e;" horiz-adv-x="872" d="M125 -188v403h229v-215zM516 -188v403h229v-215z" />
<glyph unicode="&#x2022;" horiz-adv-x="978" d="M156 684q0 70 26.5 130t71.5 105.5t105.5 72t129.5 26.5q70 0 130.5 -26.5t105.5 -72t71.5 -105.5t26.5 -130t-26.5 -130t-71.5 -105.5t-105.5 -72t-130.5 -26.5t-130 26.5t-105 72t-71.5 105.5t-26.5 130z" />
<glyph unicode="&#x2026;" horiz-adv-x="1574" d="M106 143q0 61 44.5 104.5t105.5 43.5t105.5 -43.5t44.5 -104.5t-44.5 -105t-105.5 -44t-105.5 44t-44.5 105zM639 143q0 61 43 104.5t104 43.5t105.5 -43.5t44.5 -104.5t-44 -105t-106 -44q-61 0 -104 44t-43 105zM1169 143q0 61 44 104.5t106 43.5q61 0 105 -43.5 t44 -104.5t-44 -105t-105 -44t-105.5 44t-44.5 105z" />
<glyph unicode="&#x202f;" horiz-adv-x="409" />
<glyph unicode="&#x2039;" horiz-adv-x="624" d="M41 557l471 469v-252l-219 -217l219 -219v-252z" />
<glyph unicode="&#x203a;" horiz-adv-x="624" d="M113 86v252l221 219l-221 217v252l473 -469z" />
<glyph unicode="&#x205f;" horiz-adv-x="512" />
<glyph unicode="&#x20ac;" horiz-adv-x="1325" d="M53 508v137h140v176h-140v137h146q8 115 35.5 200t99.5 157q76 76 171 115.5t210 39.5q100 0 187 -29.5t155.5 -86t115 -140.5t64.5 -192h-225q-27 111 -100.5 181.5t-196.5 70.5q-66 0 -120 -24.5t-95 -65.5q-39 -41 -55.5 -89t-22.5 -137h375v-137h-383v-176h383v-137 h-375q6 -92 22.5 -142.5t55.5 -91.5q41 -41 95 -65.5t120 -24.5q123 0 197.5 71t101.5 181h223q-18 -109 -65.5 -192.5t-116 -140t-155.5 -86t-185 -29.5q-115 0 -210 40t-171 115q-74 74 -100.5 160t-34.5 205h-146z" />
<glyph unicode="&#x2122;" horiz-adv-x="1738" d="M49 1317v141h625v-141h-236v-733h-155v733h-234zM819 584v874h158l256 -497l258 497h158v-874h-158v571l-184 -367h-146l-184 367v-571h-158z" />
<glyph unicode="&#xe000;" horiz-adv-x="1034" d="M0 0v1034h1034v-1034h-1034z" />
<glyph unicode="&#xfb01;" horiz-adv-x="1122" d="M37 860v160h121v160q0 55 17.5 107t52 92t88 64.5t126.5 24.5h129v-178h-92q-59 0 -85.5 -31.5t-26.5 -89.5v-149h204v-160h-204v-860h-209v860h-121zM752 1376q0 55 38.5 95t94.5 40q55 0 95 -40t40 -95t-40 -95t-95 -40t-94 40t-39 95zM780 0v1020h209v-1020h-209z" />
<glyph unicode="&#xfb02;" horiz-adv-x="1212" d="M41 860v160h119v160q0 55 17.5 107t52 92t88 64.5t126.5 24.5h129v-178h-92q-59 0 -85.5 -31.5t-26.5 -89.5v-149h204v-160h-204v-860h-209v860h-119zM778 287v1171h209v-1159q0 -59 24.5 -90t88.5 -31h92v-178h-129q-74 0 -128 23.5t-89 62.5t-51.5 91t-16.5 110z" />
</font>
</defs>
</svg>
